<?xml version="1.0" encoding="utf-8" standalone="no"?>
<!DOCTYPE svg PUBLIC "-//W3C//DTD SVG 1.1//EN"
  "http://www.w3.org/Graphics/SVG/1.1/DTD/svg11.dtd">
<svg xmlns:xlink="http://www.w3.org/1999/xlink" width="568.746484pt" height="496.799659pt" viewBox="0 0 568.746484 496.799659" xmlns="http://www.w3.org/2000/svg" version="1.1">
 <metadata>
  <rdf:RDF xmlns:dc="http://purl.org/dc/elements/1.1/" xmlns:cc="http://creativecommons.org/ns#" xmlns:rdf="http://www.w3.org/1999/02/22-rdf-syntax-ns#">
   <cc:Work>
    <dc:type rdf:resource="http://purl.org/dc/dcmitype/StillImage"/>
    <dc:date>2026-10-10T05:28:05.947076</dc:date>
    <dc:format>image/svg+xml</dc:format>
    <dc:creator>
     <cc:Agent>
      <dc:title>Matplotlib v3.11.2, https://matplotlib.org/</dc:title>
     </cc:Agent>
    </dc:creator>
   </cc:Work>
  </rdf:RDF>
 </metadata>
 <defs>
  <style type="text/css">*{stroke-linejoin: round; stroke-linecap: butt}</style>
 </defs>
 <g id="figure_1">
  <g id="patch_1">
   <path d="M 0 496.799659 
L 568.746484 496.799659 
L 568.746484 0 
L 0 0 
z
" style="fill: #ffffff"/>
  </g>
  <g id="axes_1">
   <g id="patch_2">
    <path d="M 51.466484 212.380144 
L 561.546484 212.380144 
L 561.546484 9.96063 
L 51.466484 9.96063 
z
" style="fill: #ffffff"/>
   </g>
   <g id="matplotlib.axis_1">
    <g id="xtick_1">
     <g id="line2d_1">
      <defs>
       <path id="m9eb91bde09" d="M 0 0 
L 0 3.5 
" style="stroke: #000000; stroke-width: 0.8"/>
      </defs>
      <g>
       <use xlink:href="#m9eb91bde09" x="73.742705" y="212.380144" style="stroke: #000000; stroke-width: 0.8"/>
      </g>
     </g>
     <g id="text_1">
      <!-- 0.0 -->
      <g transform="translate(65.791143 226.977801) scale(0.1 -0.1)">
       <defs>
        <path id="DejaVuSans-13" d="M 2034 4250 
Q 1547 4250 1301 3770 
Q 1056 3291 1056 2328 
Q 1056 1369 1301 889 
Q 1547 409 2034 409 
Q 2525 409 2770 889 
Q 3016 1369 3016 2328 
Q 3016 3291 2770 3770 
Q 2525 4250 2034 4250 
z
M 2034 4750 
Q 2819 4750 3233 4129 
Q 3647 3509 3647 2328 
Q 3647 1150 3233 529 
Q 2819 -91 2034 -91 
Q 1250 -91 836 529 
Q 422 1150 422 2328 
Q 422 3509 836 4129 
Q 1250 4750 2034 4750 
z
" transform="scale(0.015625)"/>
        <path id="DejaVuSans-11" d="M 684 794 
L 1344 794 
L 1344 0 
L 684 0 
L 684 794 
z
" transform="scale(0.015625)"/>
       </defs>
       <use xlink:href="#DejaVuSans-13"/>
       <use xlink:href="#DejaVuSans-11" transform="translate(63.625 0)"/>
       <use xlink:href="#DejaVuSans-13" transform="translate(95.40625 0)"/>
      </g>
     </g>
    </g>
    <g id="xtick_2">
     <g id="line2d_2">
      <g>
       <use xlink:href="#m9eb91bde09" x="166.848217" y="212.380144" style="stroke: #000000; stroke-width: 0.8"/>
      </g>
     </g>
     <g id="text_2">
      <!-- 0.2 -->
      <g transform="translate(158.896654 226.977801) scale(0.1 -0.1)">
       <defs>
        <path id="DejaVuSans-15" d="M 1228 531 
L 3431 531 
L 3431 0 
L 469 0 
L 469 531 
Q 828 903 1448 1529 
Q 2069 2156 2228 2338 
Q 2531 2678 2651 2914 
Q 2772 3150 2772 3378 
Q 2772 3750 2511 3984 
Q 2250 4219 1831 4219 
Q 1534 4219 1204 4116 
Q 875 4013 500 3803 
L 500 4441 
Q 881 4594 1212 4672 
Q 1544 4750 1819 4750 
Q 2544 4750 2975 4387 
Q 3406 4025 3406 3419 
Q 3406 3131 3298 2873 
Q 3191 2616 2906 2266 
Q 2828 2175 2409 1742 
Q 1991 1309 1228 531 
z
" transform="scale(0.015625)"/>
       </defs>
       <use xlink:href="#DejaVuSans-13"/>
       <use xlink:href="#DejaVuSans-11" transform="translate(63.625 0)"/>
       <use xlink:href="#DejaVuSans-15" transform="translate(95.40625 0)"/>
      </g>
     </g>
    </g>
    <g id="xtick_3">
     <g id="line2d_3">
      <g>
       <use xlink:href="#m9eb91bde09" x="259.953729" y="212.380144" style="stroke: #000000; stroke-width: 0.8"/>
      </g>
     </g>
     <g id="text_3">
      <!-- 0.4 -->
      <g transform="translate(252.002166 226.977801) scale(0.1 -0.1)">
       <defs>
        <path id="DejaVuSans-17" d="M 2419 4116 
L 825 1625 
L 2419 1625 
L 2419 4116 
z
M 2253 4666 
L 3047 4666 
L 3047 1625 
L 3713 1625 
L 3713 1100 
L 3047 1100 
L 3047 0 
L 2419 0 
L 2419 1100 
L 313 1100 
L 313 1709 
L 2253 4666 
z
" transform="scale(0.015625)"/>
       </defs>
       <use xlink:href="#DejaVuSans-13"/>
       <use xlink:href="#DejaVuSans-11" transform="translate(63.625 0)"/>
       <use xlink:href="#DejaVuSans-17" transform="translate(95.40625 0)"/>
      </g>
     </g>
    </g>
    <g id="xtick_4">
     <g id="line2d_4">
      <g>
       <use xlink:href="#m9eb91bde09" x="353.05924" y="212.380144" style="stroke: #000000; stroke-width: 0.8"/>
      </g>
     </g>
     <g id="text_4">
      <!-- 0.6 -->
      <g transform="translate(345.107678 226.977801) scale(0.1 -0.1)">
       <defs>
        <path id="DejaVuSans-19" d="M 2113 2584 
Q 1688 2584 1439 2293 
Q 1191 2003 1191 1497 
Q 1191 994 1439 701 
Q 1688 409 2113 409 
Q 2538 409 2786 701 
Q 3034 994 3034 1497 
Q 3034 2003 2786 2293 
Q 2538 2584 2113 2584 
z
M 3366 4563 
L 3366 3988 
Q 3128 4100 2886 4159 
Q 2644 4219 2406 4219 
Q 1781 4219 1451 3797 
Q 1122 3375 1075 2522 
Q 1259 2794 1537 2939 
Q 1816 3084 2150 3084 
Q 2853 3084 3261 2657 
Q 3669 2231 3669 1497 
Q 3669 778 3244 343 
Q 2819 -91 2113 -91 
Q 1303 -91 875 529 
Q 447 1150 447 2328 
Q 447 3434 972 4092 
Q 1497 4750 2381 4750 
Q 2619 4750 2861 4703 
Q 3103 4656 3366 4563 
z
" transform="scale(0.015625)"/>
       </defs>
       <use xlink:href="#DejaVuSans-13"/>
       <use xlink:href="#DejaVuSans-11" transform="translate(63.625 0)"/>
       <use xlink:href="#DejaVuSans-19" transform="translate(95.40625 0)"/>
      </g>
     </g>
    </g>
    <g id="xtick_5">
     <g id="line2d_5">
      <g>
       <use xlink:href="#m9eb91bde09" x="446.164752" y="212.380144" style="stroke: #000000; stroke-width: 0.8"/>
      </g>
     </g>
     <g id="text_5">
      <!-- 0.8 -->
      <g transform="translate(438.213189 226.977801) scale(0.1 -0.1)">
       <defs>
        <path id="DejaVuSans-1b" d="M 2034 2216 
Q 1584 2216 1326 1975 
Q 1069 1734 1069 1313 
Q 1069 891 1326 650 
Q 1584 409 2034 409 
Q 2484 409 2743 651 
Q 3003 894 3003 1313 
Q 3003 1734 2745 1975 
Q 2488 2216 2034 2216 
z
M 1403 2484 
Q 997 2584 770 2862 
Q 544 3141 544 3541 
Q 544 4100 942 4425 
Q 1341 4750 2034 4750 
Q 2731 4750 3128 4425 
Q 3525 4100 3525 3541 
Q 3525 3141 3298 2862 
Q 3072 2584 2669 2484 
Q 3125 2378 3379 2068 
Q 3634 1759 3634 1313 
Q 3634 634 3220 271 
Q 2806 -91 2034 -91 
Q 1263 -91 848 271 
Q 434 634 434 1313 
Q 434 1759 690 2068 
Q 947 2378 1403 2484 
z
M 1172 3481 
Q 1172 3119 1398 2916 
Q 1625 2713 2034 2713 
Q 2441 2713 2670 2916 
Q 2900 3119 2900 3481 
Q 2900 3844 2670 4047 
Q 2441 4250 2034 4250 
Q 1625 4250 1398 4047 
Q 1172 3844 1172 3481 
z
" transform="scale(0.015625)"/>
       </defs>
       <use xlink:href="#DejaVuSans-13"/>
       <use xlink:href="#DejaVuSans-11" transform="translate(63.625 0)"/>
       <use xlink:href="#DejaVuSans-1b" transform="translate(95.40625 0)"/>
      </g>
     </g>
    </g>
    <g id="xtick_6">
     <g id="line2d_6">
      <g>
       <use xlink:href="#m9eb91bde09" x="539.270263" y="212.380144" style="stroke: #000000; stroke-width: 0.8"/>
      </g>
     </g>
     <g id="text_6">
      <!-- 1.0 -->
      <g transform="translate(531.318701 226.977801) scale(0.1 -0.1)">
       <defs>
        <path id="DejaVuSans-14" d="M 794 531 
L 1825 531 
L 1825 4091 
L 703 3866 
L 703 4441 
L 1819 4666 
L 2450 4666 
L 2450 531 
L 3481 531 
L 3481 0 
L 794 0 
L 794 531 
z
" transform="scale(0.015625)"/>
       </defs>
       <use xlink:href="#DejaVuSans-14"/>
       <use xlink:href="#DejaVuSans-11" transform="translate(63.625 0)"/>
       <use xlink:href="#DejaVuSans-13" transform="translate(95.40625 0)"/>
      </g>
     </g>
    </g>
    <g id="text_7">
     <!-- x (m) -->
     <g transform="translate(291.854141 241.737566) scale(0.11 -0.11)">
      <defs>
       <path id="DejaVuSans-5b" d="M 3513 3500 
L 2247 1797 
L 3578 0 
L 2900 0 
L 1881 1375 
L 863 0 
L 184 0 
L 1544 1831 
L 300 3500 
L 978 3500 
L 1906 2253 
L 2834 3500 
L 3513 3500 
z
" transform="scale(0.015625)"/>
       <path id="DejaVuSans-3" transform="scale(0.015625)"/>
       <path id="DejaVuSans-b" d="M 1984 4856 
Q 1566 4138 1362 3434 
Q 1159 2731 1159 2009 
Q 1159 1288 1364 580 
Q 1569 -128 1984 -844 
L 1484 -844 
Q 1016 -109 783 600 
Q 550 1309 550 2009 
Q 550 2706 781 3412 
Q 1013 4119 1484 4856 
L 1984 4856 
z
" transform="scale(0.015625)"/>
       <path id="DejaVuSans-50" d="M 3328 2828 
Q 3544 3216 3844 3400 
Q 4144 3584 4550 3584 
Q 5097 3584 5394 3201 
Q 5691 2819 5691 2113 
L 5691 0 
L 5113 0 
L 5113 2094 
Q 5113 2597 4934 2840 
Q 4756 3084 4391 3084 
Q 3944 3084 3684 2787 
Q 3425 2491 3425 1978 
L 3425 0 
L 2847 0 
L 2847 2094 
Q 2847 2600 2669 2842 
Q 2491 3084 2119 3084 
Q 1678 3084 1418 2786 
Q 1159 2488 1159 1978 
L 1159 0 
L 581 0 
L 581 3500 
L 1159 3500 
L 1159 2956 
Q 1356 3278 1631 3431 
Q 1906 3584 2284 3584 
Q 2666 3584 2933 3390 
Q 3200 3197 3328 2828 
z
" transform="scale(0.015625)"/>
       <path id="DejaVuSans-c" d="M 513 4856 
L 1013 4856 
Q 1481 4119 1714 3412 
Q 1947 2706 1947 2009 
Q 1947 1309 1714 600 
Q 1481 -109 1013 -844 
L 513 -844 
Q 928 -128 1133 580 
Q 1338 1288 1338 2009 
Q 1338 2731 1133 3434 
Q 928 4138 513 4856 
z
" transform="scale(0.015625)"/>
      </defs>
      <use xlink:href="#DejaVuSans-5b"/>
      <use xlink:href="#DejaVuSans-3" transform="translate(59.1875 0)"/>
      <use xlink:href="#DejaVuSans-b" transform="translate(90.96875 0)"/>
      <use xlink:href="#DejaVuSans-50" transform="translate(129.984375 0)"/>
      <use xlink:href="#DejaVuSans-c" transform="translate(227.390625 0)"/>
     </g>
    </g>
   </g>
   <g id="matplotlib.axis_2">
    <g id="ytick_1">
     <g id="line2d_7">
      <defs>
       <path id="m4c3c37f256" d="M 0 0 
L -3.5 0 
" style="stroke: #000000; stroke-width: 0.8"/>
      </defs>
      <g>
       <use xlink:href="#m4c3c37f256" x="51.466484" y="173.254313" style="stroke: #000000; stroke-width: 0.8"/>
      </g>
     </g>
     <g id="text_8">
      <!-- 0.02 -->
      <g transform="translate(22.200859 177.053141) scale(0.1 -0.1)">
       <use xlink:href="#DejaVuSans-13"/>
       <use xlink:href="#DejaVuSans-11" transform="translate(63.625 0)"/>
       <use xlink:href="#DejaVuSans-13" transform="translate(95.40625 0)"/>
       <use xlink:href="#DejaVuSans-15" transform="translate(159.03125 0)"/>
      </g>
     </g>
    </g>
    <g id="ytick_2">
     <g id="line2d_8">
      <g>
       <use xlink:href="#m4c3c37f256" x="51.466484" y="132.690442" style="stroke: #000000; stroke-width: 0.8"/>
      </g>
     </g>
     <g id="text_9">
      <!-- 0.04 -->
      <g transform="translate(22.200859 136.48927) scale(0.1 -0.1)">
       <use xlink:href="#DejaVuSans-13"/>
       <use xlink:href="#DejaVuSans-11" transform="translate(63.625 0)"/>
       <use xlink:href="#DejaVuSans-13" transform="translate(95.40625 0)"/>
       <use xlink:href="#DejaVuSans-17" transform="translate(159.03125 0)"/>
      </g>
     </g>
    </g>
    <g id="ytick_3">
     <g id="line2d_9">
      <g>
       <use xlink:href="#m4c3c37f256" x="51.466484" y="92.126571" style="stroke: #000000; stroke-width: 0.8"/>
      </g>
     </g>
     <g id="text_10">
      <!-- 0.06 -->
      <g transform="translate(22.200859 95.925399) scale(0.1 -0.1)">
       <use xlink:href="#DejaVuSans-13"/>
       <use xlink:href="#DejaVuSans-11" transform="translate(63.625 0)"/>
       <use xlink:href="#DejaVuSans-13" transform="translate(95.40625 0)"/>
       <use xlink:href="#DejaVuSans-19" transform="translate(159.03125 0)"/>
      </g>
     </g>
    </g>
    <g id="ytick_4">
     <g id="line2d_10">
      <g>
       <use xlink:href="#m4c3c37f256" x="51.466484" y="51.562699" style="stroke: #000000; stroke-width: 0.8"/>
      </g>
     </g>
     <g id="text_11">
      <!-- 0.08 -->
      <g transform="translate(22.200859 55.361528) scale(0.1 -0.1)">
       <use xlink:href="#DejaVuSans-13"/>
       <use xlink:href="#DejaVuSans-11" transform="translate(63.625 0)"/>
       <use xlink:href="#DejaVuSans-13" transform="translate(95.40625 0)"/>
       <use xlink:href="#DejaVuSans-1b" transform="translate(159.03125 0)"/>
      </g>
     </g>
    </g>
    <g id="ytick_5">
     <g id="line2d_11">
      <g>
       <use xlink:href="#m4c3c37f256" x="51.466484" y="10.998828" style="stroke: #000000; stroke-width: 0.8"/>
      </g>
     </g>
     <g id="text_12">
      <!-- 0.10 -->
      <g transform="translate(22.200859 14.797656) scale(0.1 -0.1)">
       <use xlink:href="#DejaVuSans-13"/>
       <use xlink:href="#DejaVuSans-11" transform="translate(63.625 0)"/>
       <use xlink:href="#DejaVuSans-14" transform="translate(95.40625 0)"/>
       <use xlink:href="#DejaVuSans-13" transform="translate(159.03125 0)"/>
      </g>
     </g>
    </g>
    <g id="text_13">
     <!-- Local Cf -->
     <g transform="translate(15.558281 132.951247) rotate(-90) scale(0.11 -0.11)">
      <defs>
       <path id="DejaVuSans-2f" d="M 628 4666 
L 1259 4666 
L 1259 531 
L 3531 531 
L 3531 0 
L 628 0 
L 628 4666 
z
" transform="scale(0.015625)"/>
       <path id="DejaVuSans-52" d="M 1959 3097 
Q 1497 3097 1228 2736 
Q 959 2375 959 1747 
Q 959 1119 1226 758 
Q 1494 397 1959 397 
Q 2419 397 2687 759 
Q 2956 1122 2956 1747 
Q 2956 2369 2687 2733 
Q 2419 3097 1959 3097 
z
M 1959 3584 
Q 2709 3584 3137 3096 
Q 3566 2609 3566 1747 
Q 3566 888 3137 398 
Q 2709 -91 1959 -91 
Q 1206 -91 779 398 
Q 353 888 353 1747 
Q 353 2609 779 3096 
Q 1206 3584 1959 3584 
z
" transform="scale(0.015625)"/>
       <path id="DejaVuSans-46" d="M 3122 3366 
L 3122 2828 
Q 2878 2963 2633 3030 
Q 2388 3097 2138 3097 
Q 1578 3097 1268 2742 
Q 959 2388 959 1747 
Q 959 1106 1268 751 
Q 1578 397 2138 397 
Q 2388 397 2633 464 
Q 2878 531 3122 666 
L 3122 134 
Q 2881 22 2623 -34 
Q 2366 -91 2075 -91 
Q 1284 -91 818 406 
Q 353 903 353 1747 
Q 353 2603 823 3093 
Q 1294 3584 2113 3584 
Q 2378 3584 2631 3529 
Q 2884 3475 3122 3366 
z
" transform="scale(0.015625)"/>
       <path id="DejaVuSans-44" d="M 2194 1759 
Q 1497 1759 1228 1600 
Q 959 1441 959 1056 
Q 959 750 1161 570 
Q 1363 391 1709 391 
Q 2188 391 2477 730 
Q 2766 1069 2766 1631 
L 2766 1759 
L 2194 1759 
z
M 3341 1997 
L 3341 0 
L 2766 0 
L 2766 531 
Q 2569 213 2275 61 
Q 1981 -91 1556 -91 
Q 1019 -91 701 211 
Q 384 513 384 1019 
Q 384 1609 779 1909 
Q 1175 2209 1959 2209 
L 2766 2209 
L 2766 2266 
Q 2766 2663 2505 2880 
Q 2244 3097 1772 3097 
Q 1472 3097 1187 3025 
Q 903 2953 641 2809 
L 641 3341 
Q 956 3463 1253 3523 
Q 1550 3584 1831 3584 
Q 2591 3584 2966 3190 
Q 3341 2797 3341 1997 
z
" transform="scale(0.015625)"/>
       <path id="DejaVuSans-4f" d="M 603 4863 
L 1178 4863 
L 1178 0 
L 603 0 
L 603 4863 
z
" transform="scale(0.015625)"/>
       <path id="DejaVuSans-26" d="M 4122 4306 
L 4122 3641 
Q 3803 3938 3442 4084 
Q 3081 4231 2675 4231 
Q 1875 4231 1450 3742 
Q 1025 3253 1025 2328 
Q 1025 1406 1450 917 
Q 1875 428 2675 428 
Q 3081 428 3442 575 
Q 3803 722 4122 1019 
L 4122 359 
Q 3791 134 3420 21 
Q 3050 -91 2638 -91 
Q 1578 -91 968 557 
Q 359 1206 359 2328 
Q 359 3453 968 4101 
Q 1578 4750 2638 4750 
Q 3056 4750 3426 4639 
Q 3797 4528 4122 4306 
z
" transform="scale(0.015625)"/>
       <path id="DejaVuSans-49" d="M 2375 4863 
L 2375 4384 
L 1825 4384 
Q 1516 4384 1395 4259 
Q 1275 4134 1275 3809 
L 1275 3500 
L 2222 3500 
L 2222 3053 
L 1275 3053 
L 1275 0 
L 697 0 
L 697 3053 
L 147 3053 
L 147 3500 
L 697 3500 
L 697 3744 
Q 697 4328 969 4595 
Q 1241 4863 1831 4863 
L 2375 4863 
z
" transform="scale(0.015625)"/>
      </defs>
      <use xlink:href="#DejaVuSans-2f"/>
      <use xlink:href="#DejaVuSans-52" transform="translate(53.96875 0)"/>
      <use xlink:href="#DejaVuSans-46" transform="translate(115.15625 0)"/>
      <use xlink:href="#DejaVuSans-44" transform="translate(170.140625 0)"/>
      <use xlink:href="#DejaVuSans-4f" transform="translate(231.421875 0)"/>
      <use xlink:href="#DejaVuSans-3" transform="translate(259.203125 0)"/>
      <use xlink:href="#DejaVuSans-26" transform="translate(290.984375 0)"/>
      <use xlink:href="#DejaVuSans-49" transform="translate(360.8125 0)"/>
     </g>
    </g>
   </g>
   <g id="line2d_12">
    <path d="M 77.379639 120.954398 
L 84.653508 174.285917 
L 91.927376 187.170736 
L 99.201244 191.87121 
L 106.475112 194.442804 
L 113.74898 196.159493 
L 121.022848 197.386637 
L 128.296716 198.301648 
L 135.570584 199.006621 
L 142.844452 199.563277 
L 150.11832 200.011039 
L 157.392188 200.376481 
L 164.666057 200.678304 
L 171.939925 200.930071 
L 179.213793 201.141963 
L 186.487661 201.321797 
L 193.761529 201.475598 
L 201.035397 201.608046 
L 208.309265 201.722939 
L 215.583133 201.823359 
L 222.857001 201.911718 
L 230.130869 201.989925 
L 237.404737 202.059667 
L 244.678606 202.122337 
L 251.952474 202.178971 
L 259.226342 202.230443 
L 266.50021 202.277542 
L 273.774078 202.320902 
L 281.047946 202.360999 
L 288.321814 202.398288 
L 295.595682 202.433141 
L 302.86955 202.465832 
L 310.143418 202.496611 
L 317.417287 202.525781 
L 324.691155 202.553484 
L 331.965023 202.579798 
L 339.238891 202.604901 
L 346.512759 202.629061 
L 353.786627 202.65229 
L 361.060495 202.674567 
L 368.334363 202.696062 
L 375.608231 202.716979 
L 382.882099 202.737307 
L 390.155967 202.757003 
L 397.429836 202.776185 
L 404.703704 202.794961 
L 411.977572 202.813337 
L 419.25144 202.83128 
L 426.525308 202.848845 
L 433.799176 202.866098 
L 441.073044 202.88304 
L 448.346912 202.899639 
L 455.62078 202.915921 
L 462.894648 202.93193 
L 470.168516 202.947672 
L 477.442385 202.963121 
L 484.716253 202.978247 
L 491.990121 202.993094 
L 499.263989 203.007312 
L 506.537857 203.021416 
L 513.811725 203.032235 
L 521.085593 203.052174 
L 528.359461 203.032926 
L 535.633329 203.147739 
" clip-path="url(#p2c128be3be)" style="fill: none; stroke: #1f77b4; stroke-width: 1.5; stroke-linecap: square"/>
   </g>
   <g id="line2d_13">
    <path d="M 75.561172 79.408548 
L 79.198106 156.938834 
L 82.835041 175.882854 
L 86.471975 182.318496 
L 90.108909 186.257741 
L 93.745843 188.953794 
L 97.382777 190.918786 
L 101.019711 192.430231 
L 104.656645 193.634394 
L 108.293579 194.617914 
L 111.930513 195.436508 
L 119.204381 196.721525 
L 126.478249 197.686571 
L 133.752117 198.438005 
L 144.662919 199.289096 
L 155.573721 199.910479 
L 170.121458 200.516055 
L 188.306128 201.044328 
L 213.764666 201.529106 
L 250.134007 201.955935 
L 304.688017 202.341188 
L 395.611369 202.724687 
L 530.177928 203.09447 
L 533.814862 203.054755 
L 537.451796 203.167465 
L 537.451796 203.167465 
" clip-path="url(#p2c128be3be)" style="fill: none; stroke: #ff7f0e; stroke-width: 1.5; stroke-linecap: square"/>
   </g>
   <g id="line2d_14">
    <path d="M 74.651939 19.161517 
L 76.470406 129.250326 
L 78.288873 158.366472 
L 80.10734 167.086515 
L 81.925807 173.402267 
L 83.744274 177.456535 
L 85.562741 180.507869 
L 87.381208 182.851684 
L 89.199675 184.732099 
L 91.018142 186.283506 
L 92.836609 187.599897 
L 94.655076 188.746671 
L 98.29201 190.663481 
L 101.928944 192.177134 
L 105.565878 193.36506 
L 109.202812 194.303509 
L 114.658213 195.423394 
L 120.113614 196.356046 
L 127.387483 197.344859 
L 136.479818 198.279154 
L 145.572153 198.992089 
L 158.301422 199.739567 
L 172.849158 200.356535 
L 191.033828 200.90291 
L 214.6739 201.387573 
L 247.406306 201.825485 
L 296.504916 202.237355 
L 372.880531 202.6298 
L 496.536288 203.021853 
L 538.36103 203.179257 
L 538.36103 203.179257 
" clip-path="url(#p2c128be3be)" style="fill: none; stroke: #2ca02c; stroke-width: 1.5; stroke-linecap: square"/>
   </g>
   <g id="patch_3">
    <path d="M 51.466484 212.380144 
L 51.466484 9.96063 
" style="fill: none; stroke: #000000; stroke-width: 0.8; stroke-linejoin: miter; stroke-linecap: square"/>
   </g>
   <g id="patch_4">
    <path d="M 561.546484 212.380144 
L 561.546484 9.96063 
" style="fill: none; stroke: #000000; stroke-width: 0.8; stroke-linejoin: miter; stroke-linecap: square"/>
   </g>
   <g id="patch_5">
    <path d="M 51.466484 212.380144 
L 561.546484 212.380144 
" style="fill: none; stroke: #000000; stroke-width: 0.8; stroke-linejoin: miter; stroke-linecap: square"/>
   </g>
   <g id="patch_6">
    <path d="M 51.466484 9.96063 
L 561.546484 9.96063 
" style="fill: none; stroke: #000000; stroke-width: 0.8; stroke-linejoin: miter; stroke-linecap: square"/>
   </g>
   <g id="legend_1">
    <g id="patch_7">
     <path d="M 463.507422 62.962974 
L 554.546484 62.962974 
Q 556.546484 62.962974 556.546484 60.962974 
L 556.546484 16.96063 
Q 556.546484 14.96063 554.546484 14.96063 
L 463.507422 14.96063 
Q 461.507422 14.96063 461.507422 16.96063 
L 461.507422 60.962974 
Q 461.507422 62.962974 463.507422 62.962974 
z
" style="fill: #ffffff; opacity: 0.8; stroke: #cccccc; stroke-linejoin: miter"/>
    </g>
    <g id="line2d_15">
     <path d="M 465.507422 23.059068 
L 475.507422 23.059068 
L 485.507422 23.059068 
" style="fill: none; stroke: #1f77b4; stroke-width: 1.5; stroke-linecap: square"/>
    </g>
    <g id="text_14">
     <!-- sa-64x56 -->
     <g transform="translate(493.507422 26.559068) scale(0.1 -0.1)">
      <defs>
       <path id="DejaVuSans-56" d="M 2834 3397 
L 2834 2853 
Q 2591 2978 2328 3040 
Q 2066 3103 1784 3103 
Q 1356 3103 1142 2972 
Q 928 2841 928 2578 
Q 928 2378 1081 2264 
Q 1234 2150 1697 2047 
L 1894 2003 
Q 2506 1872 2764 1633 
Q 3022 1394 3022 966 
Q 3022 478 2636 193 
Q 2250 -91 1575 -91 
Q 1294 -91 989 -36 
Q 684 19 347 128 
L 347 722 
Q 666 556 975 473 
Q 1284 391 1588 391 
Q 1994 391 2212 530 
Q 2431 669 2431 922 
Q 2431 1156 2273 1281 
Q 2116 1406 1581 1522 
L 1381 1569 
Q 847 1681 609 1914 
Q 372 2147 372 2553 
Q 372 3047 722 3315 
Q 1072 3584 1716 3584 
Q 2034 3584 2315 3537 
Q 2597 3491 2834 3397 
z
" transform="scale(0.015625)"/>
       <path id="DejaVuSans-10" d="M 313 2009 
L 1997 2009 
L 1997 1497 
L 313 1497 
L 313 2009 
z
" transform="scale(0.015625)"/>
       <path id="DejaVuSans-18" d="M 691 4666 
L 3169 4666 
L 3169 4134 
L 1269 4134 
L 1269 2991 
Q 1406 3038 1543 3061 
Q 1681 3084 1819 3084 
Q 2600 3084 3056 2656 
Q 3513 2228 3513 1497 
Q 3513 744 3044 326 
Q 2575 -91 1722 -91 
Q 1428 -91 1123 -41 
Q 819 9 494 109 
L 494 744 
Q 775 591 1075 516 
Q 1375 441 1709 441 
Q 2250 441 2565 725 
Q 2881 1009 2881 1497 
Q 2881 1984 2565 2268 
Q 2250 2553 1709 2553 
Q 1456 2553 1204 2497 
Q 953 2441 691 2322 
L 691 4666 
z
" transform="scale(0.015625)"/>
      </defs>
      <use xlink:href="#DejaVuSans-56"/>
      <use xlink:href="#DejaVuSans-44" transform="translate(52.09375 0)"/>
      <use xlink:href="#DejaVuSans-10" transform="translate(113.375 0)"/>
      <use xlink:href="#DejaVuSans-19" transform="translate(149.453125 0)"/>
      <use xlink:href="#DejaVuSans-17" transform="translate(213.078125 0)"/>
      <use xlink:href="#DejaVuSans-5b" transform="translate(276.703125 0)"/>
      <use xlink:href="#DejaVuSans-18" transform="translate(335.890625 0)"/>
      <use xlink:href="#DejaVuSans-19" transform="translate(399.515625 0)"/>
     </g>
    </g>
    <g id="line2d_16">
     <path d="M 465.507422 38.059849 
L 475.507422 38.059849 
L 485.507422 38.059849 
" style="fill: none; stroke: #ff7f0e; stroke-width: 1.5; stroke-linecap: square"/>
    </g>
    <g id="text_15">
     <!-- sa-128x112 -->
     <g transform="translate(493.507422 41.559849) scale(0.1 -0.1)">
      <use xlink:href="#DejaVuSans-56"/>
      <use xlink:href="#DejaVuSans-44" transform="translate(52.09375 0)"/>
      <use xlink:href="#DejaVuSans-10" transform="translate(113.375 0)"/>
      <use xlink:href="#DejaVuSans-14" transform="translate(149.453125 0)"/>
      <use xlink:href="#DejaVuSans-15" transform="translate(213.078125 0)"/>
      <use xlink:href="#DejaVuSans-1b" transform="translate(276.703125 0)"/>
      <use xlink:href="#DejaVuSans-5b" transform="translate(340.328125 0)"/>
      <use xlink:href="#DejaVuSans-14" transform="translate(399.515625 0)"/>
      <use xlink:href="#DejaVuSans-14" transform="translate(463.140625 0)"/>
      <use xlink:href="#DejaVuSans-15" transform="translate(526.765625 0)"/>
     </g>
    </g>
    <g id="line2d_17">
     <path d="M 465.507422 53.06063 
L 475.507422 53.06063 
L 485.507422 53.06063 
" style="fill: none; stroke: #2ca02c; stroke-width: 1.5; stroke-linecap: square"/>
    </g>
    <g id="text_16">
     <!-- sa-256x224 -->
     <g transform="translate(493.507422 56.56063) scale(0.1 -0.1)">
      <use xlink:href="#DejaVuSans-56"/>
      <use xlink:href="#DejaVuSans-44" transform="translate(52.09375 0)"/>
      <use xlink:href="#DejaVuSans-10" transform="translate(113.375 0)"/>
      <use xlink:href="#DejaVuSans-15" transform="translate(149.453125 0)"/>
      <use xlink:href="#DejaVuSans-18" transform="translate(213.078125 0)"/>
      <use xlink:href="#DejaVuSans-19" transform="translate(276.703125 0)"/>
      <use xlink:href="#DejaVuSans-5b" transform="translate(340.328125 0)"/>
      <use xlink:href="#DejaVuSans-15" transform="translate(399.515625 0)"/>
      <use xlink:href="#DejaVuSans-15" transform="translate(463.140625 0)"/>
      <use xlink:href="#DejaVuSans-17" transform="translate(526.765625 0)"/>
     </g>
    </g>
   </g>
  </g>
  <g id="axes_2">
   <g id="patch_8">
    <path d="M 51.466484 457.599659 
L 561.546484 457.599659 
L 561.546484 255.180144 
L 51.466484 255.180144 
z
" style="fill: #ffffff"/>
   </g>
   <g id="matplotlib.axis_3">
    <g id="xtick_7">
     <g id="line2d_18">
      <g>
       <use xlink:href="#m9eb91bde09" x="73.742705" y="457.599659" style="stroke: #000000; stroke-width: 0.8"/>
      </g>
     </g>
     <g id="text_17">
      <!-- 0.0 -->
      <g transform="translate(65.791143 472.197315) scale(0.1 -0.1)">
       <use xlink:href="#DejaVuSans-13"/>
       <use xlink:href="#DejaVuSans-11" transform="translate(63.625 0)"/>
       <use xlink:href="#DejaVuSans-13" transform="translate(95.40625 0)"/>
      </g>
     </g>
    </g>
    <g id="xtick_8">
     <g id="line2d_19">
      <g>
       <use xlink:href="#m9eb91bde09" x="166.848217" y="457.599659" style="stroke: #000000; stroke-width: 0.8"/>
      </g>
     </g>
     <g id="text_18">
      <!-- 0.2 -->
      <g transform="translate(158.896654 472.197315) scale(0.1 -0.1)">
       <use xlink:href="#DejaVuSans-13"/>
       <use xlink:href="#DejaVuSans-11" transform="translate(63.625 0)"/>
       <use xlink:href="#DejaVuSans-15" transform="translate(95.40625 0)"/>
      </g>
     </g>
    </g>
    <g id="xtick_9">
     <g id="line2d_20">
      <g>
       <use xlink:href="#m9eb91bde09" x="259.953729" y="457.599659" style="stroke: #000000; stroke-width: 0.8"/>
      </g>
     </g>
     <g id="text_19">
      <!-- 0.4 -->
      <g transform="translate(252.002166 472.197315) scale(0.1 -0.1)">
       <use xlink:href="#DejaVuSans-13"/>
       <use xlink:href="#DejaVuSans-11" transform="translate(63.625 0)"/>
       <use xlink:href="#DejaVuSans-17" transform="translate(95.40625 0)"/>
      </g>
     </g>
    </g>
    <g id="xtick_10">
     <g id="line2d_21">
      <g>
       <use xlink:href="#m9eb91bde09" x="353.05924" y="457.599659" style="stroke: #000000; stroke-width: 0.8"/>
      </g>
     </g>
     <g id="text_20">
      <!-- 0.6 -->
      <g transform="translate(345.107678 472.197315) scale(0.1 -0.1)">
       <use xlink:href="#DejaVuSans-13"/>
       <use xlink:href="#DejaVuSans-11" transform="translate(63.625 0)"/>
       <use xlink:href="#DejaVuSans-19" transform="translate(95.40625 0)"/>
      </g>
     </g>
    </g>
    <g id="xtick_11">
     <g id="line2d_22">
      <g>
       <use xlink:href="#m9eb91bde09" x="446.164752" y="457.599659" style="stroke: #000000; stroke-width: 0.8"/>
      </g>
     </g>
     <g id="text_21">
      <!-- 0.8 -->
      <g transform="translate(438.213189 472.197315) scale(0.1 -0.1)">
       <use xlink:href="#DejaVuSans-13"/>
       <use xlink:href="#DejaVuSans-11" transform="translate(63.625 0)"/>
       <use xlink:href="#DejaVuSans-1b" transform="translate(95.40625 0)"/>
      </g>
     </g>
    </g>
    <g id="xtick_12">
     <g id="line2d_23">
      <g>
       <use xlink:href="#m9eb91bde09" x="539.270263" y="457.599659" style="stroke: #000000; stroke-width: 0.8"/>
      </g>
     </g>
     <g id="text_22">
      <!-- 1.0 -->
      <g transform="translate(531.318701 472.197315) scale(0.1 -0.1)">
       <use xlink:href="#DejaVuSans-14"/>
       <use xlink:href="#DejaVuSans-11" transform="translate(63.625 0)"/>
       <use xlink:href="#DejaVuSans-13" transform="translate(95.40625 0)"/>
      </g>
     </g>
    </g>
    <g id="text_23">
     <!-- x (m) -->
     <g transform="translate(291.854141 486.957081) scale(0.11 -0.11)">
      <use xlink:href="#DejaVuSans-5b"/>
      <use xlink:href="#DejaVuSans-3" transform="translate(59.1875 0)"/>
      <use xlink:href="#DejaVuSans-b" transform="translate(90.96875 0)"/>
      <use xlink:href="#DejaVuSans-50" transform="translate(129.984375 0)"/>
      <use xlink:href="#DejaVuSans-c" transform="translate(227.390625 0)"/>
     </g>
    </g>
   </g>
   <g id="matplotlib.axis_4">
    <g id="ytick_6">
     <g id="line2d_24">
      <g>
       <use xlink:href="#m4c3c37f256" x="51.466484" y="440.930315" style="stroke: #000000; stroke-width: 0.8"/>
      </g>
     </g>
     <g id="text_24">
      <!-- 0.25 -->
      <g transform="translate(22.200859 444.729143) scale(0.1 -0.1)">
       <use xlink:href="#DejaVuSans-13"/>
       <use xlink:href="#DejaVuSans-11" transform="translate(63.625 0)"/>
       <use xlink:href="#DejaVuSans-15" transform="translate(95.40625 0)"/>
       <use xlink:href="#DejaVuSans-18" transform="translate(159.03125 0)"/>
      </g>
     </g>
    </g>
    <g id="ytick_7">
     <g id="line2d_25">
      <g>
       <use xlink:href="#m4c3c37f256" x="51.466484" y="416.944661" style="stroke: #000000; stroke-width: 0.8"/>
      </g>
     </g>
     <g id="text_25">
      <!-- 0.50 -->
      <g transform="translate(22.200859 420.743489) scale(0.1 -0.1)">
       <use xlink:href="#DejaVuSans-13"/>
       <use xlink:href="#DejaVuSans-11" transform="translate(63.625 0)"/>
       <use xlink:href="#DejaVuSans-18" transform="translate(95.40625 0)"/>
       <use xlink:href="#DejaVuSans-13" transform="translate(159.03125 0)"/>
      </g>
     </g>
    </g>
    <g id="ytick_8">
     <g id="line2d_26">
      <g>
       <use xlink:href="#m4c3c37f256" x="51.466484" y="392.959008" style="stroke: #000000; stroke-width: 0.8"/>
      </g>
     </g>
     <g id="text_26">
      <!-- 0.75 -->
      <g transform="translate(22.200859 396.757836) scale(0.1 -0.1)">
       <defs>
        <path id="DejaVuSans-1a" d="M 525 4666 
L 3525 4666 
L 3525 4397 
L 1831 0 
L 1172 0 
L 2766 4134 
L 525 4134 
L 525 4666 
z
" transform="scale(0.015625)"/>
       </defs>
       <use xlink:href="#DejaVuSans-13"/>
       <use xlink:href="#DejaVuSans-11" transform="translate(63.625 0)"/>
       <use xlink:href="#DejaVuSans-1a" transform="translate(95.40625 0)"/>
       <use xlink:href="#DejaVuSans-18" transform="translate(159.03125 0)"/>
      </g>
     </g>
    </g>
    <g id="ytick_9">
     <g id="line2d_27">
      <g>
       <use xlink:href="#m4c3c37f256" x="51.466484" y="368.973354" style="stroke: #000000; stroke-width: 0.8"/>
      </g>
     </g>
     <g id="text_27">
      <!-- 1.00 -->
      <g transform="translate(22.200859 372.772182) scale(0.1 -0.1)">
       <use xlink:href="#DejaVuSans-14"/>
       <use xlink:href="#DejaVuSans-11" transform="translate(63.625 0)"/>
       <use xlink:href="#DejaVuSans-13" transform="translate(95.40625 0)"/>
       <use xlink:href="#DejaVuSans-13" transform="translate(159.03125 0)"/>
      </g>
     </g>
    </g>
    <g id="ytick_10">
     <g id="line2d_28">
      <g>
       <use xlink:href="#m4c3c37f256" x="51.466484" y="344.987701" style="stroke: #000000; stroke-width: 0.8"/>
      </g>
     </g>
     <g id="text_28">
      <!-- 1.25 -->
      <g transform="translate(22.200859 348.786529) scale(0.1 -0.1)">
       <use xlink:href="#DejaVuSans-14"/>
       <use xlink:href="#DejaVuSans-11" transform="translate(63.625 0)"/>
       <use xlink:href="#DejaVuSans-15" transform="translate(95.40625 0)"/>
       <use xlink:href="#DejaVuSans-18" transform="translate(159.03125 0)"/>
      </g>
     </g>
    </g>
    <g id="ytick_11">
     <g id="line2d_29">
      <g>
       <use xlink:href="#m4c3c37f256" x="51.466484" y="321.002047" style="stroke: #000000; stroke-width: 0.8"/>
      </g>
     </g>
     <g id="text_29">
      <!-- 1.50 -->
      <g transform="translate(22.200859 324.800875) scale(0.1 -0.1)">
       <use xlink:href="#DejaVuSans-14"/>
       <use xlink:href="#DejaVuSans-11" transform="translate(63.625 0)"/>
       <use xlink:href="#DejaVuSans-18" transform="translate(95.40625 0)"/>
       <use xlink:href="#DejaVuSans-13" transform="translate(159.03125 0)"/>
      </g>
     </g>
    </g>
    <g id="ytick_12">
     <g id="line2d_30">
      <g>
       <use xlink:href="#m4c3c37f256" x="51.466484" y="297.016393" style="stroke: #000000; stroke-width: 0.8"/>
      </g>
     </g>
     <g id="text_30">
      <!-- 1.75 -->
      <g transform="translate(22.200859 300.815222) scale(0.1 -0.1)">
       <use xlink:href="#DejaVuSans-14"/>
       <use xlink:href="#DejaVuSans-11" transform="translate(63.625 0)"/>
       <use xlink:href="#DejaVuSans-1a" transform="translate(95.40625 0)"/>
       <use xlink:href="#DejaVuSans-18" transform="translate(159.03125 0)"/>
      </g>
     </g>
    </g>
    <g id="ytick_13">
     <g id="line2d_31">
      <g>
       <use xlink:href="#m4c3c37f256" x="51.466484" y="273.03074" style="stroke: #000000; stroke-width: 0.8"/>
      </g>
     </g>
     <g id="text_31">
      <!-- 2.00 -->
      <g transform="translate(22.200859 276.829568) scale(0.1 -0.1)">
       <use xlink:href="#DejaVuSans-15"/>
       <use xlink:href="#DejaVuSans-11" transform="translate(63.625 0)"/>
       <use xlink:href="#DejaVuSans-13" transform="translate(95.40625 0)"/>
       <use xlink:href="#DejaVuSans-13" transform="translate(159.03125 0)"/>
      </g>
     </g>
    </g>
    <g id="text_32">
     <!-- First-cell y+ -->
     <g transform="translate(15.558281 389.023808) rotate(-90) scale(0.11 -0.11)">
      <defs>
       <path id="DejaVuSans-29" d="M 628 4666 
L 3309 4666 
L 3309 4134 
L 1259 4134 
L 1259 2759 
L 3109 2759 
L 3109 2228 
L 1259 2228 
L 1259 0 
L 628 0 
L 628 4666 
z
" transform="scale(0.015625)"/>
       <path id="DejaVuSans-4c" d="M 603 3500 
L 1178 3500 
L 1178 0 
L 603 0 
L 603 3500 
z
M 603 4863 
L 1178 4863 
L 1178 4134 
L 603 4134 
L 603 4863 
z
" transform="scale(0.015625)"/>
       <path id="DejaVuSans-55" d="M 2631 2963 
Q 2534 3019 2420 3045 
Q 2306 3072 2169 3072 
Q 1681 3072 1420 2755 
Q 1159 2438 1159 1844 
L 1159 0 
L 581 0 
L 581 3500 
L 1159 3500 
L 1159 2956 
Q 1341 3275 1631 3429 
Q 1922 3584 2338 3584 
Q 2397 3584 2469 3576 
Q 2541 3569 2628 3553 
L 2631 2963 
z
" transform="scale(0.015625)"/>
       <path id="DejaVuSans-57" d="M 1172 4494 
L 1172 3500 
L 2356 3500 
L 2356 3053 
L 1172 3053 
L 1172 1153 
Q 1172 725 1289 603 
Q 1406 481 1766 481 
L 2356 481 
L 2356 0 
L 1766 0 
Q 1100 0 847 248 
Q 594 497 594 1153 
L 594 3053 
L 172 3053 
L 172 3500 
L 594 3500 
L 594 4494 
L 1172 4494 
z
" transform="scale(0.015625)"/>
       <path id="DejaVuSans-48" d="M 3597 1894 
L 3597 1613 
L 953 1613 
Q 991 1019 1311 708 
Q 1631 397 2203 397 
Q 2534 397 2845 478 
Q 3156 559 3463 722 
L 3463 178 
Q 3153 47 2828 -22 
Q 2503 -91 2169 -91 
Q 1331 -91 842 396 
Q 353 884 353 1716 
Q 353 2575 817 3079 
Q 1281 3584 2069 3584 
Q 2775 3584 3186 3129 
Q 3597 2675 3597 1894 
z
M 3022 2063 
Q 3016 2534 2758 2815 
Q 2500 3097 2075 3097 
Q 1594 3097 1305 2825 
Q 1016 2553 972 2059 
L 3022 2063 
z
" transform="scale(0.015625)"/>
       <path id="DejaVuSans-5c" d="M 2059 -325 
Q 1816 -950 1584 -1140 
Q 1353 -1331 966 -1331 
L 506 -1331 
L 506 -850 
L 844 -850 
Q 1081 -850 1212 -737 
Q 1344 -625 1503 -206 
L 1606 56 
L 191 3500 
L 800 3500 
L 1894 763 
L 2988 3500 
L 3597 3500 
L 2059 -325 
z
" transform="scale(0.015625)"/>
       <path id="DejaVuSans-e" d="M 2944 4013 
L 2944 2272 
L 4684 2272 
L 4684 1741 
L 2944 1741 
L 2944 0 
L 2419 0 
L 2419 1741 
L 678 1741 
L 678 2272 
L 2419 2272 
L 2419 4013 
L 2944 4013 
z
" transform="scale(0.015625)"/>
      </defs>
      <use xlink:href="#DejaVuSans-29"/>
      <use xlink:href="#DejaVuSans-4c" transform="translate(50.234375 0)"/>
      <use xlink:href="#DejaVuSans-55" transform="translate(78.015625 0)"/>
      <use xlink:href="#DejaVuSans-56" transform="translate(119.125 0)"/>
      <use xlink:href="#DejaVuSans-57" transform="translate(171.21875 0)"/>
      <use xlink:href="#DejaVuSans-10" transform="translate(210.421875 0)"/>
      <use xlink:href="#DejaVuSans-46" transform="translate(246.5 0)"/>
      <use xlink:href="#DejaVuSans-48" transform="translate(301.484375 0)"/>
      <use xlink:href="#DejaVuSans-4f" transform="translate(363.015625 0)"/>
      <use xlink:href="#DejaVuSans-4f" transform="translate(390.796875 0)"/>
      <use xlink:href="#DejaVuSans-3" transform="translate(418.578125 0)"/>
      <use xlink:href="#DejaVuSans-5c" transform="translate(450.359375 0)"/>
      <use xlink:href="#DejaVuSans-e" transform="translate(509.546875 0)"/>
     </g>
    </g>
   </g>
   <g id="line2d_32">
    <path d="M 77.379639 264.381031 
L 84.653508 334.075311 
L 91.927376 357.493614 
L 99.201244 367.427289 
L 106.475112 373.316706 
L 113.74898 377.468726 
L 121.022848 380.561888 
L 128.296716 382.94421 
L 135.570584 384.827996 
L 142.844452 386.347361 
L 150.11832 387.591167 
L 157.392188 388.621332 
L 164.666057 389.482762 
L 171.939925 390.208927 
L 179.213793 390.825599 
L 186.487661 391.353026 
L 193.761529 391.80712 
L 201.035397 392.200443 
L 208.309265 392.543365 
L 215.583133 392.844426 
L 222.857001 393.110372 
L 230.130869 393.346585 
L 237.404737 393.557891 
L 244.678606 393.748305 
L 251.952474 393.92082 
L 259.226342 394.077973 
L 266.50021 394.222083 
L 273.774078 394.355014 
L 281.047946 394.478161 
L 288.321814 394.592879 
L 295.595682 394.700272 
L 302.86955 394.801155 
L 310.143418 394.896269 
L 317.417287 394.986529 
L 324.691155 395.072358 
L 331.965023 395.153981 
L 339.238891 395.231939 
L 346.512759 395.307048 
L 353.786627 395.379344 
L 361.060495 395.448742 
L 368.334363 395.515773 
L 375.608231 395.581062 
L 382.882099 395.644574 
L 390.155967 395.706164 
L 397.429836 395.766201 
L 404.703704 395.82502 
L 411.977572 395.882632 
L 419.25144 395.938933 
L 426.525308 395.994093 
L 433.799176 396.048315 
L 441.073044 396.101602 
L 448.346912 396.15385 
L 455.62078 396.205138 
L 462.894648 396.255605 
L 470.168516 396.305266 
L 477.442385 396.354039 
L 484.716253 396.401823 
L 491.990121 396.448759 
L 499.263989 396.493738 
L 506.537857 396.538385 
L 513.811725 396.572652 
L 521.085593 396.635852 
L 528.359461 396.574843 
L 535.633329 396.939574 
" clip-path="url(#p405a76d551)" style="fill: none; stroke: #1f77b4; stroke-width: 1.5; stroke-linecap: square"/>
   </g>
   <g id="line2d_33">
    <path d="M 75.561172 346.440738 
L 79.198106 387.845203 
L 82.835041 401.974873 
L 86.471975 407.561733 
L 90.108909 411.26773 
L 93.745843 413.959271 
L 97.382777 416.014218 
L 101.019711 417.655613 
L 104.656645 419.005289 
L 108.293579 420.137831 
L 111.930513 421.102774 
L 119.204381 422.661952 
L 126.478249 423.871819 
L 133.752117 424.839165 
L 141.025985 425.625636 
L 151.936787 426.550098 
L 162.84759 427.25816 
L 177.395326 427.977321 
L 195.579996 428.624528 
L 217.4016 429.170177 
L 246.497073 429.669277 
L 290.140281 430.168417 
L 351.96816 430.632287 
L 450.165379 431.133135 
L 537.451796 431.565507 
L 537.451796 431.565507 
" clip-path="url(#p405a76d551)" style="fill: none; stroke: #ff7f0e; stroke-width: 1.5; stroke-linecap: square"/>
   </g>
   <g id="line2d_34">
    <path d="M 74.651939 394.264358 
L 76.470406 418.3477 
L 78.288873 427.206978 
L 80.10734 430.298678 
L 81.925807 432.722806 
L 83.744274 434.380175 
L 85.562741 435.689469 
L 87.381208 436.736455 
L 89.199675 437.605443 
L 92.836609 438.986741 
L 96.473543 440.078709 
L 100.110477 440.9746 
L 105.565878 442.014293 
L 111.021279 442.776475 
L 120.113614 443.754971 
L 129.20595 444.493305 
L 140.116752 445.152856 
L 154.664488 445.787973 
L 172.849158 446.33636 
L 196.489229 446.809197 
L 229.221636 447.220092 
L 278.320246 447.586214 
L 356.514328 447.925137 
L 494.717821 448.273526 
L 538.36103 448.398772 
L 538.36103 448.398772 
" clip-path="url(#p405a76d551)" style="fill: none; stroke: #2ca02c; stroke-width: 1.5; stroke-linecap: square"/>
   </g>
   <g id="line2d_35">
    <path d="M 51.466484 368.973354 
L 561.546484 368.973354 
" clip-path="url(#p405a76d551)" style="fill: none; stroke-dasharray: 5.55,2.4; stroke-dashoffset: 0; stroke: #000000; stroke-width: 1.5"/>
   </g>
   <g id="patch_9">
    <path d="M 51.466484 457.599659 
L 51.466484 255.180144 
" style="fill: none; stroke: #000000; stroke-width: 0.8; stroke-linejoin: miter; stroke-linecap: square"/>
   </g>
   <g id="patch_10">
    <path d="M 561.546484 457.599659 
L 561.546484 255.180144 
" style="fill: none; stroke: #000000; stroke-width: 0.8; stroke-linejoin: miter; stroke-linecap: square"/>
   </g>
   <g id="patch_11">
    <path d="M 51.466484 457.599659 
L 561.546484 457.599659 
" style="fill: none; stroke: #000000; stroke-width: 0.8; stroke-linejoin: miter; stroke-linecap: square"/>
   </g>
   <g id="patch_12">
    <path d="M 51.466484 255.180144 
L 561.546484 255.180144 
" style="fill: none; stroke: #000000; stroke-width: 0.8; stroke-linejoin: miter; stroke-linecap: square"/>
   </g>
   <g id="legend_2">
    <g id="patch_13">
     <path d="M 463.507422 308.182488 
L 554.546484 308.182488 
Q 556.546484 308.182488 556.546484 306.182488 
L 556.546484 262.180144 
Q 556.546484 260.180144 554.546484 260.180144 
L 463.507422 260.180144 
Q 461.507422 260.180144 461.507422 262.180144 
L 461.507422 306.182488 
Q 461.507422 308.182488 463.507422 308.182488 
z
" style="fill: #ffffff; opacity: 0.8; stroke: #cccccc; stroke-linejoin: miter"/>
    </g>
    <g id="line2d_36">
     <path d="M 465.507422 268.278582 
L 475.507422 268.278582 
L 485.507422 268.278582 
" style="fill: none; stroke: #1f77b4; stroke-width: 1.5; stroke-linecap: square"/>
    </g>
    <g id="text_33">
     <!-- sa-64x56 -->
     <g transform="translate(493.507422 271.778582) scale(0.1 -0.1)">
      <use xlink:href="#DejaVuSans-56"/>
      <use xlink:href="#DejaVuSans-44" transform="translate(52.09375 0)"/>
      <use xlink:href="#DejaVuSans-10" transform="translate(113.375 0)"/>
      <use xlink:href="#DejaVuSans-19" transform="translate(149.453125 0)"/>
      <use xlink:href="#DejaVuSans-17" transform="translate(213.078125 0)"/>
      <use xlink:href="#DejaVuSans-5b" transform="translate(276.703125 0)"/>
      <use xlink:href="#DejaVuSans-18" transform="translate(335.890625 0)"/>
      <use xlink:href="#DejaVuSans-19" transform="translate(399.515625 0)"/>
     </g>
    </g>
    <g id="line2d_37">
     <path d="M 465.507422 283.279363 
L 475.507422 283.279363 
L 485.507422 283.279363 
" style="fill: none; stroke: #ff7f0e; stroke-width: 1.5; stroke-linecap: square"/>
    </g>
    <g id="text_34">
     <!-- sa-128x112 -->
     <g transform="translate(493.507422 286.779363) scale(0.1 -0.1)">
      <use xlink:href="#DejaVuSans-56"/>
      <use xlink:href="#DejaVuSans-44" transform="translate(52.09375 0)"/>
      <use xlink:href="#DejaVuSans-10" transform="translate(113.375 0)"/>
      <use xlink:href="#DejaVuSans-14" transform="translate(149.453125 0)"/>
      <use xlink:href="#DejaVuSans-15" transform="translate(213.078125 0)"/>
      <use xlink:href="#DejaVuSans-1b" transform="translate(276.703125 0)"/>
      <use xlink:href="#DejaVuSans-5b" transform="translate(340.328125 0)"/>
      <use xlink:href="#DejaVuSans-14" transform="translate(399.515625 0)"/>
      <use xlink:href="#DejaVuSans-14" transform="translate(463.140625 0)"/>
      <use xlink:href="#DejaVuSans-15" transform="translate(526.765625 0)"/>
     </g>
    </g>
    <g id="line2d_38">
     <path d="M 465.507422 298.280144 
L 475.507422 298.280144 
L 485.507422 298.280144 
" style="fill: none; stroke: #2ca02c; stroke-width: 1.5; stroke-linecap: square"/>
    </g>
    <g id="text_35">
     <!-- sa-256x224 -->
     <g transform="translate(493.507422 301.780144) scale(0.1 -0.1)">
      <use xlink:href="#DejaVuSans-56"/>
      <use xlink:href="#DejaVuSans-44" transform="translate(52.09375 0)"/>
      <use xlink:href="#DejaVuSans-10" transform="translate(113.375 0)"/>
      <use xlink:href="#DejaVuSans-15" transform="translate(149.453125 0)"/>
      <use xlink:href="#DejaVuSans-18" transform="translate(213.078125 0)"/>
      <use xlink:href="#DejaVuSans-19" transform="translate(276.703125 0)"/>
      <use xlink:href="#DejaVuSans-5b" transform="translate(340.328125 0)"/>
      <use xlink:href="#DejaVuSans-15" transform="translate(399.515625 0)"/>
      <use xlink:href="#DejaVuSans-15" transform="translate(463.140625 0)"/>
      <use xlink:href="#DejaVuSans-17" transform="translate(526.765625 0)"/>
     </g>
    </g>
   </g>
  </g>
 </g>
 <defs>
  <clipPath id="p2c128be3be">
   <rect x="51.466484" y="9.96063" width="510.08" height="202.419514"/>
  </clipPath>
  <clipPath id="p405a76d551">
   <rect x="51.466484" y="255.180144" width="510.08" height="202.419514"/>
  </clipPath>
 </defs>
</svg>
