$MeshFormat
2.2 0 8
$EndMeshFormat
$PhysicalNames
5
1 1 "inlet"
1 2 "outlet"
1 3 "far-field"
1 4 "airfoil"
2 5 "fluid"
$EndPhysicalNames
$Nodes
1051
1 0 0 0
2 4 0 0
3 4 3 0
4 0 3 0
5 1.250608987435044 1.517439118436031 0
6 2.248173037694868 1.447682644691906 0
7 1.346173554366975 0 0
8 2.647068161197463 0 0
9 4 0.8190668117617937 0
10 4 1.356932198650857 0
11 4 1.456630050715841 0
12 4 1.557564176328645 0
13 4 2.129333516761518 0
14 2.65542713097102 3 0
15 1.333815674603531 3 0
16 0 1.958322039743613 0
17 0 1.045513190636444 0
18 2.244277359387472 1.448528420114892 0
19 2.240381066943921 1.44937137545453 0
20 2.236484169318024 1.450211532214325 0
21 2.232586677644195 1.451048919089297 0
22 2.22868859080311 1.451883537942713 0
23 2.224789924579774 1.452715435009546 0
24 2.220507059579846 1.453626026355832 0
25 2.206177748140201 1.45664814501992 0
26 2.194400791501159 1.459104285414836 0
27 2.177836544537391 1.462517703082087 0
28 2.154535522673398 1.467240495516883 0
29 2.123977250130024 1.473299729769999 0
30 2.092666156512437 1.479356144266396 0
31 2.061327628261381 1.485268944912292 0
32 2.029962852401136 1.491040948470831 0
33 1.998572685377289 1.496673196181802 0
34 1.967157619707924 1.502164870750784 0
35 1.935717842627088 1.507513249059071 0
36 1.904253227614801 1.512713498110577 0
37 1.872763389678543 1.51775873914551 0
38 1.841247678884298 1.522639729262199 0
39 1.809705231703313 1.527344804057807 0
40 1.778135009238418 1.531859696386906 0
41 1.746535829987634 1.536167180111597 0
42 1.714906437600404 1.540246790505619 0
43 1.683245580749676 1.544074416996006 0
44 1.651552120752685 1.547621770000801 0
45 1.619825158319908 1.550855514235137 0
46 1.588064240014494 1.553736276941252 0
47 1.556269649360131 1.556217259954946 0
48 1.524442810921112 1.558241841394542 0
49 1.492586981684296 1.559740471580158 0
50 1.460708353750543 1.5606251845201 0
51 1.42881808317487 1.560780664074719 0
52 1.396936297226692 1.560047828516113 0
53 1.365101072116731 1.558190936743398 0
54 1.333392254777124 1.554822306602172 0
55 1.302012974107743 1.549192070532067 0
56 1.271731031694612 1.539364650893472 0
57 1.268475594146649 1.492786328346484 0
58 1.297097034667988 1.478839792127603 0
59 1.327389235297223 1.468897022171807 0
60 1.358322537949374 1.461148061474191 0
61 1.389591407609091 1.454878596088968 0
62 1.421062822880228 1.449715815453501 0
63 1.452666262010285 1.445431563667143 0
64 1.484359661073265 1.441871100166675 0
65 1.51611592162018 1.438921778491405 0
66 1.547916668349129 1.436497345702469 0
67 1.579748998061552 1.434529378314778 0
68 1.611603619221701 1.432962000670474 0
69 1.643473737719826 1.431748907064058 0
70 1.675354324333987 1.430851042181542 0
71 1.707241629287514 1.43023526877834 0
72 1.739132843752123 1.429873413303038 0
73 1.771025851190361 1.429741424341674 0
74 1.802919047948891 1.429818861146101 0
75 1.8348112064773 1.430088501198509 0
76 1.866701370336961 1.430536072404685 0
77 1.898588772515499 1.43114990375012 0
78 1.930472767926201 1.431920753535541 0
79 1.962352781785457 1.432841757928902 0
80 1.994228265836822 1.433908115228069 0
81 2.02609865803638 1.435117156957814 0
82 2.057963348394412 1.436468145015671 0
83 2.089821649179199 1.437962233410846 0
84 2.121672768380744 1.439602378734458 0
85 2.152766138064576 1.441349369452981 0
86 2.176475248621617 1.442782081748696 0
87 2.193340624599287 1.443856206394566 0
88 2.205338502305138 1.44464899828441 0
89 2.219947078262082 1.445647319800277 0
90 2.224315665140662 1.445953035465395 0
91 2.228292399349961 1.446234262593508 0
92 2.232268939130116 1.446518266025662 0
93 2.236245275187548 1.44680509372013 0
94 2.240221407485762 1.447094747273876 0
95 2.244197330522072 1.447387256761991 0
96 1.24800641065596 1.517610191313905 0
97 1.24493537005664 1.517812057309796 0
98 1.241311542149443 1.518050259184948 0
99 1.237035425218951 1.518331337397626 0
100 1.23198960724097 1.518663009688587 0
101 1.226035542026952 1.519054382991921 0
102 1.219009745074411 1.519516203489855 0
103 2.248597364650879 1.44963711306832 0
104 2.249098070458972 1.451943385752489 0
105 2.249688903312521 1.454664787519808 0
106 2.25038608607971 1.457876041605244 0
107 2.251208761744992 1.461665321426059 0
108 2.252179519030025 1.46613667161462 0
109 2.253325012626364 1.471412864837123 0
110 2.248885030325826 1.449551619409087 0
111 2.249725181630357 1.45175700957536 0
112 2.250716560169702 1.454359369971563 0
113 2.251886386846131 1.457430155239082 0
114 2.253266782324316 1.461053681854755 0
115 2.254895648988575 1.465329443261249 0
116 2.2568177116524 1.470374841720911 0
117 2.249156665360965 1.449424045454077 0
118 2.250317346006959 1.451478898353438 0
119 2.251686949169233 1.453903624774685 0
120 2.253303080900715 1.456764801951755 0
121 2.255210116343865 1.460140991020699 0
122 2.257460418166781 1.464124894122052 0
123 2.260115774317823 1.468825899781649 0
124 2.249406153845515 1.449257263553413 0
125 2.250861230903278 1.451115313809992 0
126 2.252578221831438 1.453307813112754 0
127 2.254604271126668 1.455894962290014 0
128 2.256995009295039 1.458947798319181 0
129 2.259816080333716 1.462550144833597 0
130 2.263144944159356 1.466800913720609 0
131 2.249627878502192 1.44905502883104 0
132 2.251344590654833 1.450674442115218 0
133 2.253370310994951 1.452585349790548 0
134 2.255760660996289 1.454840220847437 0
135 2.258581273997869 1.457500968694566 0
136 2.261909597339733 1.460640651154179 0
137 2.265837018883131 1.464345476456522 0
138 2.249816847161199 1.448821894637441 0
139 2.251756542331469 1.450166209573172 0
140 2.254045382632388 1.451752501197336 0
141 2.256746214187472 1.453624325313848 0
142 2.259933195422471 1.455833077771332 0
143 2.26369383327977 1.458439405671164 0
144 2.268131385951384 1.461514872592966 0
145 2.249968805159811 1.448563110030152 0
146 2.252087810768443 1.449602059129283 0
147 2.25458823738663 1.450828019066257 0
148 2.25753874079609 1.452274651791886 0
149 2.261020334819252 1.453981678408128 0
150 2.265128615766584 1.455995969815294 0
151 2.269976387284436 1.458372833675751 0
152 2.250080331136857 1.448284501590302 0
153 2.252330937398404 1.448994692730409 0
154 2.254986652787029 1.449832718275735 0
155 2.258120396945607 1.45082158841922 0
156 2.261818215052728 1.451988455188533 0
157 2.266181640419132 1.453365357976321 0
158 2.271330482351488 1.454990103265912 0
159 2.25014891406527 1.447992342236109 0
160 2.252480448182345 1.44835778533827 0
161 2.255231658440493 1.448789008198818 0
162 2.258478086545108 1.449297851174266 0
163 2.262308871708554 1.449898285885294 0
164 2.26682919820142 1.450606798844308 0
165 2.272163183463001 1.451442844135944 0
166 2.250173009788308 1.447693209987024 0
167 2.252532976858567 1.447705677035262 0
168 2.255317738001474 1.447720388152184 0
169 2.258603756150102 1.447737747270152 0
170 2.262481257565485 1.447758231029354 0
171 2.267056709235636 1.447782401865212 0
172 2.272455742206414 1.447810923451524 0
173 2.250152075786511 1.447393839858452 0
174 2.25248734073465 1.447053050154977 0
175 2.255242953373453 1.446650918304877 0
176 2.258494576287242 1.446176402721758 0
177 2.262331491325512 1.445616474333678 0
178 2.266859051070671 1.444955758835744 0
179 2.272201571569958 1.444176114548181 0
180 2.250086583392626 1.447100972221703 0
181 2.252344567315981 1.446414598706864 0
182 2.255008988345539 1.445604677959354 0
183 2.258153005160418 1.444648971477292 0
184 2.261862945001975 1.443521237828459 0
185 2.266240674015012 1.442190512122835 0
186 2.271406394250396 1.4406202557902 0
187 2.249978007179466 1.446821201043331 0
188 2.252107871171292 1.445804697538013 0
189 2.254621110681646 1.444605223401737 0
190 2.257586733303864 1.443189843920932 0
191 2.261086167998081 1.441519696133582 0
192 2.265215500937258 1.439548921744509 0
193 2.270088113805486 1.437223407965403 0
194 2.249828791759643 1.446560825420819 0
195 2.251782581556077 1.445237078680936 0
196 2.254088053515868 1.443675057527874 0
197 2.256808510428423 1.441831872567261 0
198 2.260018649585237 1.439656914313737 0
199 2.263806613790278 1.43709046357458 0
200 2.268276411552227 1.434062051702373 0
201 2.249642296744681 1.446325707757283 0
202 2.25137602242346 1.444724522174428 0
203 2.253421818724419 1.44283512318666 0
204 2.255835858359551 1.440605632381093 0
205 2.258684425129007 1.437974833230524 0
206 2.262045733916965 1.434870490232853 0
207 2.266012078286755 1.4312073654956 0
208 2.249422721102774 1.446121141768436 0
209 2.250897347524103 1.444278568318742 0
210 2.252637406701271 1.442104331648102 0
211 2.254690676530329 1.439538732376748 0
212 2.257113534928618 1.43651132523655 0
213 2.259972507838599 1.432938984811116 0
214 2.263346095872376 1.428723623109103 0
215 2.249175008618272 1.445951733293638 0
216 2.250357334307887 1.443909257843682 0
217 2.251752478621634 1.441499136812733 0
218 2.253398748911855 1.438655193996214 0
219 2.255341347854316 1.435299341472721 0
220 2.25763361460642 1.431339435495 0
221 2.260338489373903 1.426666746441289 0
222 2.248904736581502 1.445821296594612 0
223 2.249768141267731 1.443624905839806 0
224 2.250786958797481 1.441033164749135 0
225 2.251989163482585 1.437974910262142 0
226 2.253407765011008 1.434366169967492 0
227 2.255081714814549 1.430107856419804 0
228 2.257056975582725 1.425083046433532 0
229 2.248617990215099 1.445732768476671 0
230 2.249143034188971 1.443431914542693 0
231 2.249762586078141 1.4407169069006 0
232 2.250493657307361 1.437513197882929 0
233 2.251356321357841 1.433732821242078 0
234 2.252374264937407 1.429271976805874 0
235 2.253575438361294 1.424008180371153 0
236 2.248321225664134 1.44568814216602 0
237 2.248496087467867 1.443334629185475 0
238 2.248702424396273 1.440557483868431 0
239 2.248945901971791 1.43728045239432 0
240 2.249233205510903 1.433413555254869 0
241 2.249572223687055 1.428850616630317 0
242 2.249972265134915 1.423466349053345 0
243 2.240803280235799 1.451326301655707 0
244 2.241301491920215 1.453633114573096 0
245 2.241889381707826 1.456355153815615 0
246 2.242583091657206 1.459567160121787 0
247 2.243401669397476 1.46335732756307 0
248 2.244367591130993 1.467829725143784 0
249 2.245507378776545 1.473107154289026 0
250 2.244700982346157 1.450483041334733 0
251 2.245200857437405 1.452789494374145 0
252 2.245790710045078 1.455511108960651 0
253 2.246486736122132 1.458722614172728 0
254 2.247308046893056 1.462512190322979 0
255 2.248277193602746 1.466983890180275 0
256 2.24942078672018 1.472260496011885 0
257 2.236904985787612 1.452166759567835 0
258 2.237401549221726 1.454473927844977 0
259 2.23798749407398 1.457196386412005 0
260 2.238678908999641 1.460408887521098 0
261 2.239494778611919 1.464199638829827 0
262 2.240457504754408 1.468672725374128 0
263 2.241593521602546 1.473950967496402 0
264 2.233006104956782 1.453004444909603 0
265 2.233501029185633 1.455311965377564 0
266 2.234085039775677 1.458034839529758 0
267 2.23477417227193 1.461247831029346 0
268 2.235587348617508 1.465039160998861 0
269 2.236546896705291 1.469512930362888 0
270 2.237679163448874 1.474791978212441 0
271 2.229106640979042 1.453839358624087 0
272 2.22959994018664 1.456147227028108 0
273 2.230182033251607 1.458870511744854 0
274 2.230868903068268 1.462083987710613 0
275 2.231679409451927 1.46587588935021 0
276 2.232635806984645 1.470350333284933 0
277 2.233764356073253 1.475630177127907 0
278 2.225206574447866 1.454671554491097 0
279 2.225698221292214 1.456979775479327 0
280 2.226278364568545 1.459703476245439 0
281 2.226962933634616 1.46291744314945 0
282 2.227770725132579 1.466709924096185 0
283 2.228723919100175 1.471185051613331 0
284 2.229848687981939 1.476465702083563 0
285 2.22092139697262 1.455582637507078 0
286 2.221410315096093 1.457891438665548 0
287 2.221987238481791 1.460615824032544 0
288 2.222668008076915 1.463830598765598 0
289 2.223471316199161 1.467624032950602 0
290 2.224419219783412 1.472100285288907 0
291 2.225537746012827 1.477382263048106 0
292 1.267147795166886 1.491209223496044 0
293 1.265580992370766 1.489348239772525 0
294 1.263732165071344 1.487152278978772 0
295 1.261550548858027 1.484561045242144 0
296 1.258976241726312 1.481503389432923 0
297 1.255938559310889 1.477895355578041 0
298 1.252354094060689 1.473637875629282 0
299 2.206588286581607 1.458605557407401 0
300 2.207072721942466 1.460915304024627 0
301 2.207644355668279 1.463640805032955 0
302 2.208318883464738 1.466856896222781 0
303 2.209114826264561 1.470651883826776 0
304 2.210054038768351 1.47512996919949 0
305 2.211162309522824 1.480414109939292 0
306 2.194806796224435 1.4610626433581 0
307 2.1952858817979 1.463373505731153 0
308 2.195851202774589 1.466100323331355 0
309 2.196518281527083 1.469317968099593 0
310 2.197305434455025 1.473114788926114 0
311 2.198234274909997 1.477595037501408 0
312 2.199330306646864 1.482881730820256 0
313 2.178237038750404 1.46447719662514 0
314 2.178709621921759 1.466789399005943 0
315 2.179267270063958 1.46951779781529 0
316 2.179925294871753 1.472737308410319 0
317 2.18070176414495 1.476536330912454 0
318 2.181617997887324 1.481019177464973 0
319 2.182699153703324 1.486308936396945 0
320 2.154928689765444 1.469201474237454 0
321 2.155392626934059 1.471515429127728 0
322 2.155940072793025 1.474245895898252 0
323 2.156586058906605 1.47746784668747 0
324 2.157348322520629 1.481269748618747 0
325 2.158247793585178 1.485755992897654 0
326 2.159309169441345 1.491049761146764 0
327 2.124361680137849 1.475262441020529 0
328 2.124815307547082 1.477578440296155 0
329 2.125350587889978 1.480311319441393 0
330 2.125982218694594 1.483536116832774 0
331 2.126727543044042 1.487341377754604 0
332 2.12760702577639 1.491831585642363 0
333 2.128644815400561 1.497130030949918 0
334 2.093041491974502 1.481320614757379 0
335 2.093484387819739 1.48363868993674 0
336 2.094007004917118 1.486374018648384 0
337 2.094623693092025 1.489601706528126 0
338 2.095351385138416 1.49341037822622 0
339 2.096210061753157 1.497904610829971 0
340 2.097223300158552 1.503207805302398 0
341 2.061694045026643 1.487235098243754 0
342 2.062126416809651 1.489555159174879 0
343 2.062636615513602 1.492292831073607 0
344 2.063238649984263 1.495523283914105 0
345 2.063949050659643 1.499335218265894 0
346 2.064787323456591 1.503833300801005 0
347 2.065776485356991 1.509141038192435 0
348 2.030320471788348 1.49300872086922 0
349 2.030742462665258 1.49533069229932 0
350 2.031240411900011 1.498070618586837 0
351 2.03182799199702 1.501303731606108 0
352 2.032521336511491 1.505118804968848 0
353 2.033339483038567 1.50962059153688 0
354 2.034304895940516 1.514932699687158 0
355 1.99892151479972 1.498642545839161 0
356 1.999333133518189 1.500966378434844 0
357 1.999818843605983 1.503708500897751 0
358 2.000391981509579 1.50694420540398 0
359 2.001068284235823 1.510762336721331 0
360 2.001866321452789 1.515267731675805 0
361 2.002808005368811 1.520584097722084 0
362 1.967497548467694 1.504135776438048 0
363 1.967898664404224 1.506461445149019 0
364 1.968371981209328 1.509205734227965 0
365 1.968930495039351 1.512443995341122 0
366 1.969589541358779 1.516265143454647 0
367 1.970367216015703 1.520774098228606 0
368 1.971284872110874 1.526094664861878 0
369 1.936048634184357 1.509485709230141 0
370 1.936438968221935 1.511813212232003 0
371 1.936899562386278 1.5145596657742 0
372 1.937443063500201 1.517800480953993 0
373 1.938084394814632 1.521624642866148 0
374 1.938841165765659 1.526137153922492 0
375 1.939734155487871 1.531461916968977 0
376 1.904574515105633 1.514687529163588 0
377 1.904953634344815 1.517016885806141 0
378 1.905400995047049 1.519765526644353 0
379 1.905928880675686 1.523008922833444 0
380 1.906551785717477 1.526836130336571 0
381 1.907286813666791 1.531352235190261 0
382 1.908154146646981 1.536681238917615 0
383 1.873074668016097 1.519734373975293 0
384 1.873441976454409 1.522065623074437 0
385 1.873875400411618 1.524816497011427 0
386 1.874386840681125 1.528062528257075 0
387 1.874990340199143 1.53189284512694 0
388 1.875702469630404 1.53641261903338 0
389 1.876542782359292 1.54174595224298 0
390 1.841548292933955 1.524617015868442 0
391 1.84190301751255 1.52695021406381 0
392 1.842321592515293 1.529703387934343 0
393 1.842815511018529 1.532952133101572 0
394 1.843398334852348 1.536785652398902 0
395 1.844086066976254 1.541309205169752 0
396 1.844897590882463 1.546646997439355 0
397 1.809994368827416 1.529323802805878 0
398 1.810335550633857 1.531659021328603 0
399 1.810738145165458 1.534414579185418 0
400 1.811213206712748 1.53766613745646 0
401 1.811773779338549 1.541502976216289 0
402 1.812435255036994 1.546030445952888 0
403 1.81321579636116 1.551372860242074 0
404 1.778411682467028 1.533840477810005 0
405 1.778738156876787 1.536177799889261 0
406 1.779123396680304 1.538935839942782 0
407 1.779577979648453 1.542190327205938 0
408 1.78011438755087 1.546030622176462 0
409 1.780747348875721 1.55056217024168 0
410 1.781494243239046 1.555909396958638 0
411 1.746798858068431 1.538149821829622 0
412 1.747109231203772 1.540489339056892 0
413 1.747475471503474 1.54324996938507 0
414 1.747907635057123 1.54650751317232 0
415 1.748417588050428 1.550351414841274 0
416 1.749019332582528 1.554887218810641 0
417 1.749729391130406 1.560239467494494 0
418 1.715154423478472 1.542231372680646 0
419 1.715447046814593 1.544573179647179 0
420 1.715792342351215 1.547336511867687 0
421 1.716199791084429 1.550597243887887 0
422 1.716680580589621 1.554444907671723 0
423 1.717247912205748 1.558985150936649 0
424 1.717917363512778 1.564342637989262 0
425 1.683476882095243 1.546061016595775 0
426 1.683749817683012 1.548405204123503 0
427 1.68407188167658 1.551171345406222 0
428 1.68445191718899 1.554435392119831 0
429 1.684900359093634 1.558286967241889 0
430 1.685429520541113 1.562831825885918 0
431 1.686053931049139 1.568194759085871 0
432 1.651764806112155 1.549610453672169 0
433 1.65201577483633 1.551957100404383 0
434 1.652311917930856 1.554726143548395 0
435 1.652661366782396 1.55799361445833 0
436 1.653073716427214 1.561849230132053 0
437 1.6535602890081 1.566398856627046 0
438 1.654134444653544 1.571767415891137 0
439 1.620016948838609 1.552846328149322 0
440 1.620243261650675 1.55519548856806 0
441 1.620510310768914 1.557967497862171 0
442 1.620825428728436 1.561238468829222 0
443 1.621197267920672 1.565098214570343 0
444 1.62163603816751 1.569652714544865 0
445 1.622153787058779 1.575027024514801 0
446 1.588232434846665 1.555729231723361 0
447 1.588430904748626 1.55808091836625 0
448 1.588665099232941 1.560855908604858 0
449 1.588941448724432 1.564130397086417 0
450 1.589267541124392 1.567994293494656 0
451 1.589652330156344 1.572553691256377 0
452 1.590106381214047 1.577933780615209 0
453 1.556411007035477 1.55821230979174 0
454 1.556577809092386 1.560566468599157 0
455 1.556774635519537 1.563344375991909 0
456 1.557006890703576 1.566622306715356 0
457 1.557280951820742 1.570490264969024 0
458 1.557604343938998 1.575054455708352 0
459 1.55798594663854 1.580440200780759 0
460 1.524553376762677 1.560238851166382 0
461 1.524683844455723 1.562595322697154 0
462 1.524837796333517 1.565375959103463 0
463 1.525019459549314 1.568657110062909 0
464 1.525233822143955 1.572528868195056 0
465 1.525486770005631 1.577097542790988 0
466 1.525785248482409 1.582488578814188 0
467 1.492661818431046 1.5617391637997 0
468 1.492750125792211 1.564097620618759 0
469 1.492854328478386 1.566880599665249 0
470 1.492977287648073 1.570164514940107 0
471 1.493122379468303 1.57403953496444 0
472 1.493293587816174 1.578612058593152 0
473 1.493495613666663 1.584007636475033 0
474 1.460741089050504 1.562625047386103 0
475 1.460779716704457 1.564984885567987 0
476 1.460825297336122 1.567769494622609 0
477 1.460879082481487 1.571055333307064 0
478 1.460942548953018 1.57493262295472 0
479 1.461017439389424 1.579507824738955 0
480 1.461105810104383 1.584906562844352 0
481 1.428800113713118 1.562780777379824 0
482 1.42877890974825 1.565140911079848 0
483 1.428753889069706 1.567925868845876 0
484 1.428724364669023 1.571212119009789 0
485 1.428689525876218 1.575089894203206 0
486 1.428648416100708 1.579665668931439 0
487 1.428599906565606 1.585065083110753 0
488 1.396855238176527 1.562046496668308 0
489 1.396759588497333 1.564404925087898 0
490 1.396646721875885 1.567187870623015 0
491 1.396513539262575 1.570471746354453 0
492 1.39635638377887 1.57434671971755 0
493 1.396170940308097 1.578919188286004 0
494 1.395952117012586 1.58431470119678 0
495 1.364937344210903 1.560184791707381 0
496 1.364744145282025 1.56253754056488 0
497 1.364516170545949 1.565313784216729 0
498 1.364247160357379 1.568589751725911 0
499 1.363929728334867 1.572455393386746 0
500 1.363555158548303 1.577016850546531 0
501 1.363113166200157 1.582399369995077 0
502 1.333109998312711 1.556803588037358 0
503 1.332776935684703 1.559141500130877 0
504 1.332383921783654 1.56190023640123 0
505 1.331920165380416 1.565155545200247 0
506 1.331372932824595 1.568996809583086 0
507 1.330727198408726 1.573529501554837 0
508 1.329965231798001 1.578878078081502 0
509 1.301526087048573 1.551136696061105 0
510 1.300951560318752 1.55343135418537 0
511 1.300273618777564 1.556139050772003 0
512 1.299473647758961 1.55933413274423 0
513 1.298529681957011 1.563104329471458 0
514 1.297415802310709 1.567553161609587 0
515 1.296101424328073 1.572802783532578 0
516 1.270639961125277 1.541113902183494 0
517 1.269352497853462 1.54317801870572 0
518 1.267833291192719 1.545613676201947 0
519 1.266040627333044 1.548487752047495 0
520 1.263925283978626 1.551879161545242 0
521 1.261429178820413 1.555881024752583 0
522 1.258483774733722 1.560603223337245 0
523 1.296343013260574 1.476982353547628 0
524 1.295453267999827 1.474790576023257 0
525 1.294403368592144 1.4722042785445 0
526 1.293164487291079 1.469152447519567 0
527 1.291702607355821 1.465551286910145 0
528 1.289977589032218 1.461301917391028 0
529 1.287942067410366 1.456287661358469 0
530 1.326833322212239 1.466974496429279 0
531 1.326177344771958 1.464705916053096 0
532 1.325403291392427 1.4620289912092 0
533 1.32448990840458 1.458870219893403 0
534 1.323412116478921 1.455142869740762 0
535 1.322140322006643 1.450744596560646 0
536 1.320639604529354 1.445554634208109 0
537 1.357882471822481 1.459196496419993 0
538 1.357363193792748 1.45689364965604 0
539 1.356750445717664 1.454176290474575 0
540 1.356027402989064 1.450969806640446 0
541 1.355174212569315 1.447186155716174 0
542 1.354167447874012 1.442721447625533 0
543 1.352979465533555 1.437453092078576 0
544 1.389232651219808 1.452910719374419 0
545 1.388809318680455 1.45058862485125 0
546 1.388309786284018 1.447848553313912 0
547 1.387720338056223 1.444615268899853 0
548 1.387024789147424 1.440799993291263 0
549 1.386204041435042 1.436297968073126 0
550 1.385235559134431 1.430985578315725 0
551 1.420766411332202 1.447737706178274 0
552 1.420416645705531 1.445403537233506 0
553 1.420003922266059 1.44264921787868 0
554 1.419516908607482 1.439399121039985 0
555 1.418942232490362 1.435564006770325 0
556 1.418264114672159 1.431038571932127 0
557 1.41746393564668 1.425698558823053 0
558 1.4524201442153 1.443446633165276 0
559 1.452129725217216 1.441104415173073 0
560 1.451787030799478 1.438340597942273 0
561 1.451382651386547 1.435079293609929 0
562 1.450905483679288 1.431230954497763 0
563 1.450342425784722 1.426689914345407 0
564 1.449678017469135 1.421331486965627 0
565 1.484155432454382 1.439881461559743 0
566 1.483914442684101 1.437533688003563 0
567 1.483630074755169 1.434763315207271 0
568 1.483294520599029 1.431494275307646 0
569 1.482898566694784 1.427636808226089 0
570 1.482431341087775 1.423084997069852 0
571 1.481880014871504 1.417713859905492 0
572 1.515947334865577 1.436928828083028 0
573 1.515748402495146 1.434577146601143 0
574 1.515513662298037 1.431802162452518 0
575 1.515236668865448 1.428527681157141 0
576 1.514909816614994 1.424663793228597 0
577 1.514524130959457 1.420104405472914 0
578 1.514069021885925 1.414724327921209 0
579 1.547778867308748 1.434502047051024 0
580 1.5476162620811 1.432147594642318 0
581 1.547424387912475 1.429369340800045 0
582 1.547197976393497 1.426091001266163 0
583 1.546930810801103 1.422222560616182 0
584 1.546615555402078 1.417657800649205 0
585 1.546243554031229 1.412271383888172 0
586 1.579638081442318 1.432532416682343 0
587 1.579507199831622 1.43017600195607 0
588 1.579352759531 1.427395432579068 0
589 1.579170519976266 1.424114360714205 0
590 1.578955477301681 1.420242695913667 0
591 1.57870172694567 1.415674131449032 0
592 1.578402301525577 1.410283225380763 0
593 1.61151638050013 1.430963873286338 0
594 1.611413438808675 1.428606082973056 0
595 1.611291967612759 1.425823890403385 0
596 1.611148631601578 1.422540903171172 0
597 1.610979495108384 1.418666978237161 0
598 1.610779914046416 1.414095746815028 0
599 1.610544408393293 1.408701693736912 0
600 1.643407498591598 1.429749979806972 0
601 1.643329336420288 1.427391245643611 0
602 1.643237105058143 1.424607939330844 0
603 1.643128272050812 1.42132363788178 0
604 1.642999849102161 1.417448162171885 0
605 1.642848310022753 1.412875100834208 0
606 1.642669493909051 1.407478888455749 0
607 1.675306819861746 1.428851586855033 0
608 1.6752507645845 1.426492229569751 0
609 1.675184619357351 1.423708187973119 0
610 1.675106567989314 1.420423018889093 0
611 1.675014467375031 1.416546519369943 0
612 1.674905788650177 1.411972249937345 0
613 1.674777547754849 1.40657461200688 0
614 1.707210936038239 1.428235488458946 0
615 1.707174718004094 1.425875747682061 0
616 1.707131980723804 1.423091253565336 0
617 1.707081550733061 1.419805550507601 0
618 1.707022043343984 1.415928420899474 0
619 1.706951824624873 1.411353407961883 0
620 1.706868966536323 1.405954892695527 0
621 1.739117323409838 1.42787346053636 0
622 1.739099009405941 1.425513516271681 0
623 1.739077398881343 1.422728782039358 0
624 1.739051898462317 1.419442795645218 0
625 1.739021807967867 1.415565331700133 0
626 1.738986301184415 1.410989924244932 0
627 1.738944403179942 1.405590943447796 0
628 1.771024108042615 1.427741414321638 0
629 1.771022051128274 1.425381402497996 0
630 1.771019623969352 1.422596588546098 0
631 1.771016759921824 1.419310508082859 0
632 1.771013380345741 1.415432933136237 0
633 1.771009392445963 1.410857394699223 0
634 1.771004686724225 1.405458259343546 0
635 1.80292990050415 1.42781888151083 0
636 1.802942706519356 1.425458905541211 0
637 1.802957817617299 1.42267413389706 0
638 1.802975648712871 1.419388103356963 0
639 1.802996689405646 1.415510587319647 0
640 1.803021517423121 1.410935118395615 0
641 1.803050814483742 1.405536065065257 0
642 1.834833666729286 1.428088619535528 0
643 1.834860169826629 1.425728759173212 0
644 1.834891443481494 1.422944123945678 0
645 1.834928346394235 1.419658254377189 0
646 1.834971891831269 1.415780928286371 0
647 1.835023275446969 1.411205683499206 0
648 1.835083908113495 1.405806894650351 0
649 1.866734624416789 1.428536342085533 0
650 1.866773864230986 1.426176660308935 0
651 1.866820167211739 1.423392235812548 0
652 1.866874804729027 1.420106614906812 0
653 1.866939276999427 1.416229582238043 0
654 1.867015354278499 1.411654683688895 0
655 1.867105125467803 1.406256303400902 0
656 1.898632164320322 1.429150368453825 0
657 1.898683366650013 1.426790916804197 0
658 1.898743785399048 1.424006763857637 0
659 1.89881507952291 1.420721463380695 0
660 1.898899206589066 1.416844808817904 0
661 1.898998476527131 1.412270356433811 0
662 1.899115615054047 1.40687250262058 0
663 1.930525792097156 1.429921451002524 0
664 1.930588360618883 1.427562274013564 0
665 1.930662191474521 1.424778445166591 0
666 1.930749311884173 1.421493527127163 0
667 1.930852113967564 1.417617323840638 0
668 1.930973420425964 1.413043403962538 0
669 1.931116562046877 1.407646178506381 0
670 1.962415072232295 1.43084272298897 0
671 1.962488574959564 1.428483861759851 0
672 1.962575308177742 1.42570040550949 0
673 1.962677653375192 1.422415927134064 0
674 1.962798420708182 1.418540242651061 0
675 1.962940926161111 1.413966934961118 0
676 1.963109082595567 1.408570431886985 0
677 1.99429958800696 1.431909382332319 0
678 1.994383748167724 1.429550877515334 0
679 1.994483057157425 1.426767841831292 0
680 1.994600241765272 1.423483859724122 0
681 1.994738519602531 1.419608760837661 0
682 1.994901687450497 1.415036144151637 0
683 1.995094225511097 1.409640456462129 0
684 2.026178904825395 1.433118762528956 0
685 2.026273596036433 1.430760657102903 0
686 2.026385331665459 1.42797809270016 0
687 2.026517179707708 1.424694666704924 0
688 2.026672760397562 1.420820224030546 0
689 2.02685634561159 1.416248381674779 0
690 2.027072976164144 1.410853607694974 0
691 2.058052532560812 1.43447012941101 0
692 2.058157769877163 1.432112470997509 0
693 2.058281949910458 1.429330434069578 0
694 2.058428482349747 1.426047630494619 0
695 2.058601390628107 1.422173922276168 0
696 2.058805422396571 1.417602946578396 0
697 2.05904617988336 1.412209195255025 0
698 2.089919899336245 1.435964642879807 0
699 2.090035834521559 1.43360748605318 0
700 2.09017263804023 1.43082604099776 0
701 2.090334066192263 1.427543935832365 0
702 2.09052455141166 1.423671051737199 0
703 2.09074932397055 1.419101048504903 0
704 2.091014555590039 1.413708444690793 0
705 2.12178026855329 1.437605264417957 0
706 2.121907118756895 1.435248669524485 0
707 2.122056801997149 1.432467887550189 0
708 2.122233428220648 1.42918656482052 0
709 2.122441847164377 1.425314603999509 0
710 2.122687781517977 1.420745690230718 0
711 2.122977984055225 1.415354371983543 0
712 2.152882533156107 1.43935275480119 0
713 2.153019879364112 1.436996749512078 0
714 2.153181947889559 1.434216663270925 0
715 2.153373188749586 1.430936161506364 0
716 2.153598852964418 1.427065169424182 0
717 2.15386513673792 1.422497398767208 0
718 2.154179351590652 1.417107429391979 0
719 2.176599110940153 1.440785918261331 0
720 2.176745268476025 1.438430445346239 0
721 2.176917734368354 1.435650987306431 0
722 2.177121244121302 1.432371226819457 0
723 2.177361385629782 1.428501109444829 0
724 2.177644752609787 1.423934370942767 0
725 2.177979125646194 1.418545619510333 0
726 2.193470106240085 1.441860400751035 0
727 2.193622894576227 1.439505350091669 0
728 2.193803184812874 1.436726390313616 0
729 2.194015927292118 1.433447217775515 0
730 2.194266963417626 1.429577794180555 0
731 2.194563186045725 1.425011874338502 0
732 2.194912728746882 1.419624088924879 0
733 2.205472604225803 1.442653497911499 0
734 2.205630844492188 1.440298807471463 0
735 2.205817568006522 1.437520272752221 0
736 2.206037901753437 1.434241601783516 0
737 2.206297895574796 1.430372770040443 0
738 2.206604688283999 1.425807548583618 0
739 2.206966703680859 1.420420587264563 0
740 2.220085058988489 1.443652084478064 0
741 2.220247876245649 1.441297706797852 0
742 2.220440000609099 1.438519541135203 0
743 2.220666707357969 1.435241305653276 0
744 2.220934221321636 1.431372987784603 0
745 2.221249887798764 1.426808372699568 0
746 2.221622374241774 1.421422126899227 0
747 2.224456013173052 1.443957965800295 0
748 2.224621623851274 1.441603783595476 0
749 2.224817044451574 1.438825848593791 0
750 2.225047640759929 1.435547885291801 0
751 2.225319744403788 1.431679888595454 0
752 2.225640826703541 1.427115652493764 0
753 2.22601970381725 1.42172985389377 0
754 2.22843417612556 1.444239293963868 0
755 2.228601472720766 1.441885230980892 0
756 2.22879888270311 1.439107436660982 0
757 2.229031826482275 1.435829639363487 0
758 2.229306700141691 1.431961838552443 0
759 2.229631051059801 1.427397833595411 0
760 2.230013785143171 1.422012307746114 0
761 2.23241212063725 1.444523397719107 0
762 2.232581074815668 1.442169453117373 0
763 2.232780440746203 1.439391798487327 0
764 2.233015692544233 1.436114166023873 0
765 2.233293289665908 1.432246559716997 0
766 2.233620854269485 1.427682784274883 0
767 2.234007380501705 1.422297529253189 0
768 2.236389873945455 1.444810327642551 0
769 2.236560500479785 1.442456503671008 0
770 2.236761839790296 1.439678991384586 0
771 2.236999420176697 1.436401526886609 0
772 2.237279765032651 1.432534118778997 0
773 2.237610571962677 1.427970577212014 0
774 2.238000924140108 1.422585598162974 0
775 2.240367431388669 1.44510008501281 0
776 2.240539739594098 1.442746383544751 0
777 2.240743063276506 1.439969015812442 0
778 2.240982985221746 1.436691721888318 0
779 2.24126609311713 1.43282451505785 0
780 2.241600160433683 1.428261210997899 0
781 2.241994359867215 1.422876512207157 0
782 2.24434479284492 1.445392700323185 0
783 2.244518798385881 1.443039123725395 0
784 2.244724124924215 1.440261903340002 0
785 2.244966410239449 1.436984783285239 0
786 2.245252306911426 1.433117781620618 0
787 2.245589664984358 1.428554719656366 0
788 2.245987747510418 1.423170306538548 0
789 3.793164562852355 1.374906967895819 0
790 3.57424141422143 1.830484466996374 0
791 3.134295959631591 1.245107399701707 0
792 3.360553041173992 0.6995710300230984 0
793 2.887971335706433 2.096779971938522 0
794 2.092011834149288 1.533150392525056 0
795 2.599277742972132 0.7527945486620831 0
796 2.041669301748469 1.384924853406335 0
797 0.4942699941501739 1.472512415689895 0
798 1.86383728264831 0.627876099125074 0
799 1.460713556246329 1.392530101398116 0
800 1.627184556524095 1.377946985406753 0
801 1.883773513877643 1.37751000331086 0
802 1.175707210665484 0.7636267475227355 0
803 2.824285912608643 1.612338384523266 0
804 2.345256063082271 2.000463507322985 0
805 1.802004244574948 1.581932239189362 0
806 1.929987104125631 1.564658475529934 0
807 2.654253083960995 1.200549000109605 0
808 2.27545664016568 1.020459186062641 0
809 2.169134574164981 1.398421108724956 0
810 3.418079204421019 2.414560011181274 0
811 0.890898702791542 1.223819810883475 0
812 1.881047571509693 1.015833097750011 0
813 1.756603668828979 1.378276522462599 0
814 1.528630599656831 0.9729033164080777 0
815 1.327716382837131 1.412994358718774 0
816 1.208771862935091 1.136696180128406 0
817 0.7434116624745938 2.185571996653796 0
818 1.329339722964674 2.273656546320163 0
819 1.64097476454695 1.601801716234835 0
820 1.648380277878191 1.137013277597481 0
821 2.510538288934212 1.722833461607232 0
822 2.200280699795707 1.498865321345343 0
823 2.532024739587184 1.447026401061507 0
824 2.408853817452608 1.241454147106283 0
825 2.402766421045034 1.383825242455116 0
826 2.414264406642845 1.540578676219867 0
827 2.264181188613684 1.749041422477542 0
828 2.306438931091371 1.614186810915579 0
829 2.322470560673072 1.530110034888454 0
830 2.233169983960434 1.481467196726687 0
831 2.217022007968849 1.214870664272123 0
832 2.048856591542512 1.173600389279589 0
833 1.84712635157457 1.238271099208183 0
834 2.299692100285796 1.306964321900448 0
835 2.326190822637062 1.382264002855066 0
836 2.158286530131076 1.63207285505443 0
837 2.018604683750123 1.770523117267752 0
838 2.141638996253422 1.51802815672532 0
839 2.052266634800995 1.63114625512793 0
840 1.991167253966308 1.553959854370198 0
841 1.959727340340816 1.557604267521177 0
842 1.948771059881955 1.586150748150595 0
843 1.865729496851935 1.574650938023092 0
844 1.977486057197709 1.583301251713666 0
845 1.898610439518347 1.571003729377107 0
846 1.8872170225492 1.602994408696874 0
847 2.025307669952194 1.549001705084847 0
848 2.012542483387934 1.587497004300237 0
849 2.053760248929391 1.576282197491446 0
850 2.057371741313535 1.540742265974207 0
851 2.079857388863845 1.560102226409346 0
852 2.133627005079548 1.570913692365028 0
853 2.193800309369635 1.310012627100897 0
854 2.221629493238188 1.409556741647187 0
855 2.090028538982502 1.276507413633481 0
856 2.112512868895278 1.388504776075395 0
857 2.239471584280412 1.355621339467058 0
858 2.236871407121149 1.418256678957542 0
859 2.280823461382064 1.380558943943026 0
860 2.251776029751756 1.41933975726474 0
861 2.270391204414543 1.425865304390378 0
862 2.315989086458433 1.419904786186687 0
863 2.276622698082028 1.446320253293665 0
864 2.245823321238769 1.396590623458623 0
865 2.216176699777229 1.3835048635793 0
866 2.167083679077041 1.354234648708649 0
867 2.128371726115017 1.334387377153393 0
868 1.981307505238673 1.27813259162322 0
869 1.947913213811618 1.38040319560132 0
870 1.915728935818657 1.380579572806742 0
871 1.902440502927657 1.353308363657174 0
872 1.816275414545389 1.371525919035721 0
873 1.866577137772984 1.335518097712083 0
874 1.93024317173097 1.354870397590881 0
875 1.980485337499163 1.381108612946279 0
876 1.968728583369179 1.342914744717004 0
877 2.001979945399652 1.360074503695961 0
878 2.012046155634351 1.385033118853967 0
879 2.026057258571754 1.363670164491998 0
880 2.078708378359175 1.339415713632497 0
881 1.852446385689806 1.37636600782561 0
882 1.916404622727741 1.317146111172162 0
883 2.369973507254611 1.471963890455726 0
884 2.321055618463599 1.482719882751712 0
885 2.259808166053491 1.472456576802813 0
886 2.271520283923791 1.461654807472377 0
887 2.279179461526433 1.517116292486952 0
888 2.222720504817732 1.570701504032445 0
889 2.288812307580579 1.483743236057608 0
890 2.23370273517427 1.530200616897131 0
891 2.076926293410862 1.379822253917246 0
892 2.287245059005863 1.411633679040742 0
893 2.025470062168643 1.330097003734758 0
894 2.20022412172279 1.356432451398917 0
895 2.17329288608759 1.560854483097571 0
896 2.202397033824752 1.531373667183026 0
897 2.122791279304049 1.541305857337301 0
898 2.095215575257845 1.589203728052109 0
899 2.351389108871681 1.418962450317049 0
900 2.444140412316621 1.457351458390706 0
901 2.33268502052367 1.449732683000667 0
902 2.305017781570033 1.455112405292159 0
903 2.279632850788691 1.457896213853439 0
904 2.268854999855124 1.473390690533831 0
905 1.440118723583588 1.191104754039005 0
906 1.691192060072175 1.254555206136915 0
907 1.691933662134486 1.381293985827321 0
908 1.574583767520716 1.252936040809952 0
909 1.528029393900394 1.384547659479062 0
910 2.135664324330052 1.366964377100959 0
911 2.142134497341171 1.393487791686917 0
912 2.106436718222076 1.361818899575898 0
913 2.15974382015235 1.378461048761442 0
914 2.184704509739178 1.379235152583558 0
915 2.195864163540681 1.404356794328089 0
916 1.092336484472509 1.312120508341975 0
917 1.258372915056114 1.443866757395912 0
918 0.8991273535511624 1.652367776873956 0
919 1.169246708077444 1.959347961068831 0
920 1.477982880727151 1.612320730622949 0
921 1.380975361644093 1.61258041326274 0
922 1.263315186201013 1.595724256939485 0
923 1.041754111129053 1.45053451157639 0
924 1.126203457697419 1.725715358488511 0
925 1.513726487277699 1.999397669500057 0
926 1.850524007552548 2.275275983164132 0
927 1.757498290218517 1.882891041737964 0
928 1.106883012546002 1.593577124508267 0
929 1.199883712180376 1.556644191516628 0
930 1.85902142192832 1.737534205044603 0
931 1.892349900269497 1.654905105772519 0
932 1.975326917687163 1.631283987450123 0
933 1.830854448983694 1.641708574609968 0
934 1.925267604521928 1.605464429818164 0
935 1.135716538107604 1.502982793550543 0
936 1.201948026766804 1.472059260759253 0
937 1.579267699272205 1.785848581725596 0
938 1.396570480492856 1.81939017016361 0
939 1.258492536804369 1.75596677454639 0
940 1.197323906877939 1.667186585295481 0
941 1.715812453817513 1.733987985358801 0
942 1.738302724438233 1.591131193293859 0
943 1.765958656128197 1.663277011690731 0
944 1.706058445999054 1.594584074158907 0
945 1.770315951089779 1.586896033608555 0
946 1.791690111318639 1.615854485510707 0
947 1.758677593043578 1.616314987068196 0
948 1.699636237988245 1.65858087180095 0
949 1.633492657679496 1.675796714050893 0
950 1.574720557151772 1.605870773050474 0
951 1.54301731777872 1.607004803667454 0
952 1.558144605681046 1.630061689433889 0
953 1.487476805739322 1.720885572985556 0
954 1.510639869707997 1.611133782367441 0
955 1.531215280859278 1.633236315798168 0
956 1.493876702862889 1.649178224126065 0
957 1.457980111439156 1.633720463754425 0
958 1.607629022284218 1.604512869986374 0
959 1.591473047996766 1.635605413611084 0
960 1.6269820341528 1.629821701880337 0
961 1.661340678256572 1.6313917955185 0
962 1.445022261539611 1.610239603976709 0
963 1.431564796582098 1.632879032993643 0
964 1.371252330785514 1.694830154947999 0
965 1.412900063461921 1.6125457489767 0
966 1.400467631925532 1.643904625303438 0
967 1.550296824618696 1.668591141042266 0
968 1.673608620875788 1.598289489617861 0
969 1.366223501303834 1.641179143742529 0
970 1.290358336895044 1.669330417313909 0
971 1.348347439514919 1.61064123817234 0
972 1.291518535091786 1.606769539620431 0
973 1.275736451497951 1.626440132320557 0
974 1.230431461207623 1.62560876638998 0
975 1.227612374075565 1.582067980844859 0
976 1.187155122052 1.597883658091948 0
977 1.441453914544271 1.663984722956945 0
978 2.302562107370855 1.39859035300638 0
979 2.116362470702146 1.51861811096744 0
980 2.303057228090764 1.504955902476873 0
981 2.264882414234982 1.495014668917875 0
982 2.24372605529636 1.478108072586987 0
983 2.254405766234805 1.480057793983547 0
984 1.628640825840201 1.306587128177509 0
985 2.282741066658633 1.436515373057227 0
986 2.264779220107089 1.412248300138904 0
987 2.148631448234681 1.542360150915165 0
988 2.104700616530915 1.558935179337768 0
989 1.854127671584292 1.608947840493488 0
990 1.832981512138613 1.576566705353623 0
991 1.33007474264923 1.64393928702608 0
992 1.300165852386608 1.258456827016208 0
993 1.206001722517031 1.325334460463087 0
994 2.240978587586038 1.497847458794121 0
995 2.221261109079458 1.490443283458747 0
996 1.160900598406835 1.558369187681045 0
997 1.178334971492922 1.526929675824315 0
998 1.176164263695386 1.497136002883501 0
999 2.219724033092045 1.509746069535673 0
1000 2.174094794437753 1.517705029035331 0
1001 1.761821476104135 1.307325346484121 0
1002 1.559373001006276 1.323434134040534 0
1003 1.479797716743868 1.304921744868272 0
1004 1.380137722311652 1.319202758647192 0
1005 1.396278057797179 1.402680158243772 0
1006 1.362685874507183 1.409189865876979 0
1007 1.338112951230593 1.373481744266341 0
1008 1.300965749781927 1.388988445312067 0
1009 1.376255338646153 1.378550020792438 0
1010 1.293606121411052 1.425408488631805 0
1011 1.266575908806793 1.404973267678807 0
1012 1.428450936728756 1.397325090527361 0
1013 1.409418398084842 1.369236549566831 0
1014 1.440665008769638 1.372640438851799 0
1015 1.235411201837533 1.386424186665959 0
1016 1.125613829668798 1.418219128275765 0
1017 1.470018826855468 1.359089622562735 0
1018 1.493588536774678 1.387080109255699 0
1019 1.51062481550846 1.352344510891329 0
1020 1.434723327089836 1.345020830111195 0
1021 1.28635993915924 1.348751473462711 0
1022 1.546976899499655 1.359959967996006 0
1023 1.561156285370651 1.384326292228262 0
1024 1.593654272361156 1.380502846819393 0
1025 1.60555365750525 1.346777369129596 0
1026 1.6494997561006 1.347063770714909 0
1027 1.661070909273048 1.379756419045864 0
1028 1.693558524587062 1.325733163782153 0
1029 1.680320422766394 1.358348404488646 0
1030 1.705539261736776 1.35789468307298 0
1031 1.737855853040336 1.348525740025065 0
1032 1.722957635909474 1.379589461255214 0
1033 1.780685929267376 1.351924134219124 0
1034 1.785546222946475 1.382537319535837 0
1035 1.818498524217665 1.326156990579213 0
1036 0.5295653921041094 0.7484389659374403 0
1037 1.193381505172471 1.416640741065752 0
1038 1.224752538570031 1.436394533489497 0
1039 1.166564832682213 1.461407585306963 0
1040 1.727121019566992 1.624417275160382 0
1041 1.694092459804648 1.622615512949652 0
1042 1.573631290905898 1.358392669806175 0
1043 1.227314182488422 1.467639987919805 0
1044 2.257188974530673 1.51795526854688 0
1045 2.270283527968925 1.546711754627907 0
1046 1.302706979937693 1.634009388383422 0
1047 1.226284366491575 1.555040553108342 0
1048 1.3197326334942 1.604871136926111 0
1049 2.049120827907652 1.358221342768966 0
1050 1.838449365556461 1.352391753788156 0
1051 1.822331597720037 1.605001969031429 0
$EndNodes
$Elements
1428
1 1 2 3 1 1 7
2 1 2 3 1 7 8
3 1 2 3 1 8 2
4 1 2 2 2 2 9
5 1 2 2 2 9 10
6 1 2 2 2 10 11
7 1 2 2 2 11 12
8 1 2 2 2 12 13
9 1 2 2 2 13 3
10 1 2 3 3 3 14
11 1 2 3 3 14 15
12 1 2 3 3 15 4
13 1 2 1 4 4 16
14 1 2 1 4 16 17
15 1 2 1 4 17 1
16 1 2 4 5 6 18
17 1 2 4 5 18 19
18 1 2 4 5 19 20
19 1 2 4 5 20 21
20 1 2 4 5 21 22
21 1 2 4 5 22 23
22 1 2 4 5 23 24
23 1 2 4 5 24 25
24 1 2 4 5 25 26
25 1 2 4 5 26 27
26 1 2 4 5 27 28
27 1 2 4 5 28 29
28 1 2 4 5 29 30
29 1 2 4 5 30 31
30 1 2 4 5 31 32
31 1 2 4 5 32 33
32 1 2 4 5 33 34
33 1 2 4 5 34 35
34 1 2 4 5 35 36
35 1 2 4 5 36 37
36 1 2 4 5 37 38
37 1 2 4 5 38 39
38 1 2 4 5 39 40
39 1 2 4 5 40 41
40 1 2 4 5 41 42
41 1 2 4 5 42 43
42 1 2 4 5 43 44
43 1 2 4 5 44 45
44 1 2 4 5 45 46
45 1 2 4 5 46 47
46 1 2 4 5 47 48
47 1 2 4 5 48 49
48 1 2 4 5 49 50
49 1 2 4 5 50 51
50 1 2 4 5 51 52
51 1 2 4 5 52 53
52 1 2 4 5 53 54
53 1 2 4 5 54 55
54 1 2 4 5 55 56
55 1 2 4 5 56 5
56 1 2 4 6 5 57
57 1 2 4 6 57 58
58 1 2 4 6 58 59
59 1 2 4 6 59 60
60 1 2 4 6 60 61
61 1 2 4 6 61 62
62 1 2 4 6 62 63
63 1 2 4 6 63 64
64 1 2 4 6 64 65
65 1 2 4 6 65 66
66 1 2 4 6 66 67
67 1 2 4 6 67 68
68 1 2 4 6 68 69
69 1 2 4 6 69 70
70 1 2 4 6 70 71
71 1 2 4 6 71 72
72 1 2 4 6 72 73
73 1 2 4 6 73 74
74 1 2 4 6 74 75
75 1 2 4 6 75 76
76 1 2 4 6 76 77
77 1 2 4 6 77 78
78 1 2 4 6 78 79
79 1 2 4 6 79 80
80 1 2 4 6 80 81
81 1 2 4 6 81 82
82 1 2 4 6 82 83
83 1 2 4 6 83 84
84 1 2 4 6 84 85
85 1 2 4 6 85 86
86 1 2 4 6 86 87
87 1 2 4 6 87 88
88 1 2 4 6 88 89
89 1 2 4 6 89 90
90 1 2 4 6 90 91
91 1 2 4 6 91 92
92 1 2 4 6 92 93
93 1 2 4 6 93 94
94 1 2 4 6 94 95
95 1 2 4 6 95 6
96 2 2 5 1 6 110 103
97 2 2 5 1 6 117 110
98 2 2 5 1 6 124 117
99 2 2 5 1 6 131 124
100 2 2 5 1 6 138 131
101 2 2 5 1 6 145 138
102 2 2 5 1 6 152 145
103 2 2 5 1 6 159 152
104 2 2 5 1 6 166 159
105 2 2 5 1 6 173 166
106 2 2 5 1 6 180 173
107 2 2 5 1 6 187 180
108 2 2 5 1 6 194 187
109 2 2 5 1 6 201 194
110 2 2 5 1 6 208 201
111 2 2 5 1 6 215 208
112 2 2 5 1 6 222 215
113 2 2 5 1 6 229 222
114 2 2 5 1 6 236 229
115 2 2 5 1 873 833 882
116 2 2 5 1 815 536 1010
117 2 2 5 1 936 998 1039
118 2 2 5 1 827 804 837
119 2 2 5 1 811 916 923
120 2 2 5 1 935 923 1016
121 2 2 5 1 1007 1004 1009
122 2 2 5 1 826 828 829
123 2 2 5 1 997 935 998
124 2 2 5 1 326 319 1000
125 2 2 5 1 1008 815 1010
126 2 2 5 1 1008 1011 1021
127 2 2 5 1 918 811 923
128 2 2 5 1 1031 813 1032
129 2 2 5 1 1030 1031 1032
130 2 2 5 1 933 943 946
131 2 2 5 1 845 806 934
132 2 2 5 1 1001 833 1035
133 2 2 5 1 1033 872 1034
134 2 2 5 1 1015 1011 1038
135 2 2 5 1 807 803 823
136 2 2 5 1 922 973 974
137 2 2 5 1 863 186 985
138 2 2 5 1 846 845 934
139 2 2 5 1 1003 1002 1019
140 2 2 5 1 1038 917 1043
141 2 2 5 1 102 522 1047
142 2 2 5 1 813 1033 1034
143 2 2 5 1 857 834 859
144 2 2 5 1 908 906 984
145 2 2 5 1 298 102 1043
146 2 2 5 1 867 866 910
147 2 2 5 1 102 936 1043
148 2 2 5 1 948 949 961
149 2 2 5 1 936 1037 1038
150 2 2 5 1 102 929 997
151 2 2 5 1 859 835 978
152 2 2 5 1 922 974 975
153 2 2 5 1 996 935 997
154 2 2 5 1 857 859 864
155 2 2 5 1 813 1031 1033
156 2 2 5 1 158 165 903
157 2 2 5 1 804 14 926
158 2 2 5 1 795 791 807
159 2 2 5 1 884 829 980
160 2 2 5 1 933 946 1051
161 2 2 5 1 949 959 960
162 2 2 5 1 883 829 884
163 2 2 5 1 929 102 1047
164 2 2 5 1 1009 1004 1013
165 2 2 5 1 800 1024 1025
166 2 2 5 1 855 853 867
167 2 2 5 1 536 529 1010
168 2 2 5 1 8 2 792
169 2 2 5 1 872 1033 1035
170 2 2 5 1 508 501 971
171 2 2 5 1 1026 984 1028
172 2 2 5 1 1004 1007 1021
173 2 2 5 1 834 835 859
174 2 2 5 1 839 848 849
175 2 2 5 1 857 864 865
176 2 2 5 1 966 964 969
177 2 2 5 1 753 854 858
178 2 2 5 1 929 996 997
179 2 2 5 1 865 854 915
180 2 2 5 1 704 697 891
181 2 2 5 1 825 883 899
182 2 2 5 1 501 921 971
183 2 2 5 1 522 922 975
184 2 2 5 1 936 102 998
185 2 2 5 1 856 910 911
186 2 2 5 1 529 298 917
187 2 2 5 1 529 917 1010
188 2 2 5 1 522 515 922
189 2 2 5 1 922 515 972
190 2 2 5 1 868 855 893
191 2 2 5 1 800 1025 1026
192 2 2 5 1 917 298 1043
193 2 2 5 1 914 865 915
194 2 2 5 1 862 902 985
195 2 2 5 1 970 940 974
196 2 2 5 1 971 991 1048
197 2 2 5 1 998 935 1039
198 2 2 5 1 718 711 911
199 2 2 5 1 1033 1001 1035
200 2 2 5 1 864 854 865
201 2 2 5 1 910 856 912
202 2 2 5 1 1005 550 1006
203 2 2 5 1 800 1026 1027
204 2 2 5 1 814 812 820
205 2 2 5 1 592 585 1023
206 2 2 5 1 835 862 978
207 2 2 5 1 837 931 932
208 2 2 5 1 836 837 839
209 2 2 5 1 856 891 912
210 2 2 5 1 697 796 891
211 2 2 5 1 856 704 891
212 2 2 5 1 585 909 1023
213 2 2 5 1 947 943 1040
214 2 2 5 1 15 4 817
215 2 2 5 1 962 963 965
216 2 2 5 1 862 901 902
217 2 2 5 1 972 515 1048
218 2 2 5 1 8 792 795
219 2 2 5 1 522 975 1047
220 2 2 5 1 487 962 965
221 2 2 5 1 933 930 943
222 2 2 5 1 508 971 1048
223 2 2 5 1 953 956 967
224 2 2 5 1 884 889 902
225 2 2 5 1 991 1046 1048
226 2 2 5 1 1023 1022 1042
227 2 2 5 1 1005 1009 1013
228 2 2 5 1 806 842 934
229 2 2 5 1 921 965 966
230 2 2 5 1 438 431 968
231 2 2 5 1 14 15 926
232 2 2 5 1 799 564 1012
233 2 2 5 1 836 839 898
234 2 2 5 1 613 606 1027
235 2 2 5 1 897 794 979
236 2 2 5 1 515 508 1048
237 2 2 5 1 921 969 971
238 2 2 5 1 799 1012 1014
239 2 2 5 1 909 578 1018
240 2 2 5 1 1012 1013 1014
241 2 2 5 1 855 880 893
242 2 2 5 1 592 1023 1024
243 2 2 5 1 909 1018 1019
244 2 2 5 1 987 838 1000
245 2 2 5 1 846 931 989
246 2 2 5 1 788 858 860
247 2 2 5 1 793 14 804
248 2 2 5 1 578 571 1018
249 2 2 5 1 838 897 979
250 2 2 5 1 1025 1024 1042
251 2 2 5 1 961 968 1041
252 2 2 5 1 808 831 832
253 2 2 5 1 431 944 968
254 2 2 5 1 819 438 968
255 2 2 5 1 550 543 1006
256 2 2 5 1 466 951 954
257 2 2 5 1 921 966 969
258 2 2 5 1 954 955 956
259 2 2 5 1 907 613 1027
260 2 2 5 1 606 800 1027
261 2 2 5 1 954 951 955
262 2 2 5 1 958 819 960
263 2 2 5 1 897 838 987
264 2 2 5 1 909 1022 1023
265 2 2 5 1 920 957 962
266 2 2 5 1 909 1019 1022
267 2 2 5 1 794 897 988
268 2 2 5 1 1046 972 1048
269 2 2 5 1 905 1003 1004
270 2 2 5 1 951 952 955
271 2 2 5 1 494 487 965
272 2 2 5 1 333 326 838
273 2 2 5 1 571 799 1018
274 2 2 5 1 480 920 962
275 2 2 5 1 543 815 1006
276 2 2 5 1 445 819 958
277 2 2 5 1 1 7 1036
278 2 2 5 1 543 536 815
279 2 2 5 1 849 850 851
280 2 2 5 1 564 557 1012
281 2 2 5 1 817 797 918
282 2 2 5 1 901 884 902
283 2 2 5 1 620 907 1032
284 2 2 5 1 921 494 965
285 2 2 5 1 960 819 961
286 2 2 5 1 848 839 932
287 2 2 5 1 951 950 952
288 2 2 5 1 976 928 996
289 2 2 5 1 501 494 921
290 2 2 5 1 459 950 951
291 2 2 5 1 473 466 954
292 2 2 5 1 796 878 879
293 2 2 5 1 557 1005 1012
294 2 2 5 1 945 946 947
295 2 2 5 1 410 805 945
296 2 2 5 1 945 805 946
297 2 2 5 1 557 550 1005
298 2 2 5 1 4 16 817
299 2 2 5 1 841 840 844
300 2 2 5 1 902 889 903
301 2 2 5 1 853 834 857
302 2 2 5 1 347 794 850
303 2 2 5 1 396 843 990
304 2 2 5 1 840 847 848
305 2 2 5 1 848 847 849
306 2 2 5 1 950 958 959
307 2 2 5 1 808 807 824
308 2 2 5 1 487 480 962
309 2 2 5 1 844 840 848
310 2 2 5 1 849 847 850
311 2 2 5 1 452 445 958
312 2 2 5 1 850 794 851
313 2 2 5 1 801 655 881
314 2 2 5 1 3 14 810
315 2 2 5 1 796 690 878
316 2 2 5 1 822 305 995
317 2 2 5 1 873 801 881
318 2 2 5 1 870 871 874
319 2 2 5 1 920 473 954
320 2 2 5 1 382 806 845
321 2 2 5 1 854 739 915
322 2 2 5 1 869 669 870
323 2 2 5 1 869 870 874
324 2 2 5 1 571 564 799
325 2 2 5 1 480 473 920
326 2 2 5 1 599 592 1024
327 2 2 5 1 853 866 867
328 2 2 5 1 368 840 841
329 2 2 5 1 837 926 927
330 2 2 5 1 424 942 944
331 2 2 5 1 690 683 878
332 2 2 5 1 319 822 1000
333 2 2 5 1 869 874 876
334 2 2 5 1 1006 815 1007
335 2 2 5 1 1012 1005 1013
336 2 2 5 1 920 954 956
337 2 2 5 1 354 347 850
338 2 2 5 1 585 578 909
339 2 2 5 1 466 459 951
340 2 2 5 1 417 410 945
341 2 2 5 1 950 452 958
342 2 2 5 1 459 452 950
343 2 2 5 1 961 819 968
344 2 2 5 1 403 396 990
345 2 2 5 1 711 704 856
346 2 2 5 1 875 869 876
347 2 2 5 1 847 354 850
348 2 2 5 1 655 648 881
349 2 2 5 1 929 976 996
350 2 2 5 1 800 599 1024
351 2 2 5 1 389 382 845
352 2 2 5 1 606 599 800
353 2 2 5 1 843 989 990
354 2 2 5 1 445 438 819
355 2 2 5 1 669 662 870
356 2 2 5 1 375 368 841
357 2 2 5 1 676 869 875
358 2 2 5 1 798 795 808
359 2 2 5 1 683 875 878
360 2 2 5 1 361 354 847
361 2 2 5 1 942 947 1040
362 2 2 5 1 620 613 907
363 2 2 5 1 431 424 944
364 2 2 5 1 942 417 945
365 2 2 5 1 424 417 942
366 2 2 5 1 799 1017 1018
367 2 2 5 1 7 802 1036
368 2 2 5 1 965 963 966
369 2 2 5 1 799 1014 1017
370 2 2 5 1 634 627 813
371 2 2 5 1 959 958 960
372 2 2 5 1 942 945 947
373 2 2 5 1 1037 1015 1038
374 2 2 5 1 805 403 990
375 2 2 5 1 875 876 877
376 2 2 5 1 410 403 805
377 2 2 5 1 962 957 963
378 2 2 5 1 648 872 881
379 2 2 5 1 952 950 959
380 2 2 5 1 648 641 872
381 2 2 5 1 843 389 845
382 2 2 5 1 396 389 843
383 2 2 5 1 662 801 870
384 2 2 5 1 662 655 801
385 2 2 5 1 843 845 846
386 2 2 5 1 875 877 878
387 2 2 5 1 922 972 973
388 2 2 5 1 1010 917 1011
389 2 2 5 1 870 801 871
390 2 2 5 1 382 375 806
391 2 2 5 1 806 375 841
392 2 2 5 1 676 669 869
393 2 2 5 1 806 841 842
394 2 2 5 1 683 676 875
395 2 2 5 1 871 801 873
396 2 2 5 1 347 340 794
397 2 2 5 1 697 690 796
398 2 2 5 1 368 361 840
399 2 2 5 1 842 841 844
400 2 2 5 1 840 361 847
401 2 2 5 1 920 956 957
402 2 2 5 1 944 942 1040
403 2 2 5 1 627 620 1032
404 2 2 5 1 878 877 879
405 2 2 5 1 853 857 894
406 2 2 5 1 907 1030 1032
407 2 2 5 1 946 943 947
408 2 2 5 1 930 941 943
409 2 2 5 1 937 938 953
410 2 2 5 1 956 953 977
411 2 2 5 1 813 627 1032
412 2 2 5 1 864 859 986
413 2 2 5 1 858 854 864
414 2 2 5 1 802 798 814
415 2 2 5 1 895 987 1000
416 2 2 5 1 843 846 989
417 2 2 5 1 1011 1015 1021
418 2 2 5 1 928 935 996
419 2 2 5 1 1024 1023 1042
420 2 2 5 1 1007 815 1008
421 2 2 5 1 990 989 1051
422 2 2 5 1 832 831 855
423 2 2 5 1 634 813 1034
424 2 2 5 1 872 641 1034
425 2 2 5 1 809 718 911
426 2 2 5 1 883 825 900
427 2 2 5 1 7 8 798
428 2 2 5 1 968 944 1041
429 2 2 5 1 798 808 812
430 2 2 5 1 838 326 1000
431 2 2 5 1 890 888 896
432 2 2 5 1 849 851 898
433 2 2 5 1 946 805 1051
434 2 2 5 1 1018 1017 1019
435 2 2 5 1 949 960 961
436 2 2 5 1 944 1040 1041
437 2 2 5 1 969 964 991
438 2 2 5 1 861 892 985
439 2 2 5 1 10 11 789
440 2 2 5 1 1006 1007 1009
441 2 2 5 1 940 928 976
442 2 2 5 1 1005 1006 1009
443 2 2 5 1 641 634 1034
444 2 2 5 1 1029 1028 1030
445 2 2 5 1 1037 936 1039
446 2 2 5 1 890 1044 1045
447 2 2 5 1 881 872 1050
448 2 2 5 1 711 856 911
449 2 2 5 1 931 930 933
450 2 2 5 1 817 918 919
451 2 2 5 1 949 937 967
452 2 2 5 1 918 923 928
453 2 2 5 1 891 880 912
454 2 2 5 1 794 340 979
455 2 2 5 1 936 1038 1043
456 2 2 5 1 15 818 926
457 2 2 5 1 857 865 894
458 2 2 5 1 836 852 895
459 2 2 5 1 828 836 888
460 2 2 5 1 888 890 1045
461 2 2 5 1 102 997 998
462 2 2 5 1 1003 1017 1020
463 2 2 5 1 923 916 1016
464 2 2 5 1 910 866 913
465 2 2 5 1 888 836 895
466 2 2 5 1 831 824 834
467 2 2 5 1 907 1029 1030
468 2 2 5 1 896 895 1000
469 2 2 5 1 833 832 868
470 2 2 5 1 821 827 828
471 2 2 5 1 929 975 976
472 2 2 5 1 1017 1003 1019
473 2 2 5 1 837 804 926
474 2 2 5 1 805 990 1051
475 2 2 5 1 789 791 792
476 2 2 5 1 842 844 932
477 2 2 5 1 931 846 934
478 2 2 5 1 807 823 824
479 2 2 5 1 924 918 928
480 2 2 5 1 891 796 1049
481 2 2 5 1 907 1027 1029
482 2 2 5 1 812 808 832
483 2 2 5 1 16 17 797
484 2 2 5 1 898 851 988
485 2 2 5 1 835 825 899
486 2 2 5 1 975 929 1047
487 2 2 5 1 872 1035 1050
488 2 2 5 1 822 896 1000
489 2 2 5 1 971 969 991
490 2 2 5 1 228 860 986
491 2 2 5 1 861 221 986
492 2 2 5 1 829 887 980
493 2 2 5 1 868 876 882
494 2 2 5 1 993 1015 1037
495 2 2 5 1 803 821 823
496 2 2 5 1 1028 1001 1031
497 2 2 5 1 897 852 988
498 2 2 5 1 789 790 791
499 2 2 5 1 725 718 809
500 2 2 5 1 932 931 934
501 2 2 5 1 883 884 901
502 2 2 5 1 333 838 979
503 2 2 5 1 8 795 798
504 2 2 5 1 876 868 893
505 2 2 5 1 862 899 901
506 2 2 5 1 852 898 988
507 2 2 5 1 824 825 834
508 2 2 5 1 791 790 803
509 2 2 5 1 1002 1025 1042
510 2 2 5 1 1031 1001 1033
511 2 2 5 1 890 896 999
512 2 2 5 1 896 822 999
513 2 2 5 1 895 852 987
514 2 2 5 1 796 879 1049
515 2 2 5 1 792 791 795
516 2 2 5 1 866 894 914
517 2 2 5 1 888 895 896
518 2 2 5 1 829 828 1045
519 2 2 5 1 340 333 979
520 2 2 5 1 931 933 989
521 2 2 5 1 926 925 927
522 2 2 5 1 925 919 938
523 2 2 5 1 791 803 807
524 2 2 5 1 809 913 914
525 2 2 5 1 851 794 988
526 2 2 5 1 809 911 913
527 2 2 5 1 16 797 817
528 2 2 5 1 873 881 1050
529 2 2 5 1 938 919 939
530 2 2 5 1 1027 1026 1029
531 2 2 5 1 943 948 1040
532 2 2 5 1 17 1 1036
533 2 2 5 1 831 853 855
534 2 2 5 1 899 883 901
535 2 2 5 1 818 817 919
536 2 2 5 1 905 820 908
537 2 2 5 1 911 910 913
538 2 2 5 1 992 905 1004
539 2 2 5 1 803 793 821
540 2 2 5 1 937 953 967
541 2 2 5 1 1002 984 1025
542 2 2 5 1 793 804 821
543 2 2 5 1 928 923 935
544 2 2 5 1 839 849 898
545 2 2 5 1 820 906 908
546 2 2 5 1 973 972 1046
547 2 2 5 1 916 816 993
548 2 2 5 1 887 829 1045
549 2 2 5 1 880 867 912
550 2 2 5 1 889 887 981
551 2 2 5 1 906 833 1001
552 2 2 5 1 894 865 914
553 2 2 5 1 974 940 976
554 2 2 5 1 889 884 980
555 2 2 5 1 887 889 980
556 2 2 5 1 862 835 899
557 2 2 5 1 964 970 991
558 2 2 5 1 880 891 1049
559 2 2 5 1 941 937 949
560 2 2 5 1 1030 1028 1031
561 2 2 5 1 855 867 880
562 2 2 5 1 837 930 931
563 2 2 5 1 903 889 904
564 2 2 5 1 839 837 932
565 2 2 5 1 866 853 894
566 2 2 5 1 913 866 914
567 2 2 5 1 816 905 992
568 2 2 5 1 1013 1004 1020
569 2 2 5 1 852 897 987
570 2 2 5 1 826 829 883
571 2 2 5 1 826 821 828
572 2 2 5 1 953 938 964
573 2 2 5 1 797 811 918
574 2 2 5 1 1025 984 1026
575 2 2 5 1 828 888 1045
576 2 2 5 1 905 908 1003
577 2 2 5 1 811 797 1036
578 2 2 5 1 822 995 999
579 2 2 5 1 908 1002 1003
580 2 2 5 1 790 793 803
581 2 2 5 1 15 817 818
582 2 2 5 1 9 789 792
583 2 2 5 1 831 834 853
584 2 2 5 1 809 914 915
585 2 2 5 1 836 827 837
586 2 2 5 1 927 925 937
587 2 2 5 1 970 973 1046
588 2 2 5 1 948 941 949
589 2 2 5 1 1016 993 1037
590 2 2 5 1 862 892 978
591 2 2 5 1 892 859 978
592 2 2 5 1 939 940 970
593 2 2 5 1 860 864 986
594 2 2 5 1 165 863 903
595 2 2 5 1 852 836 898
596 2 2 5 1 886 158 903
597 2 2 5 1 975 974 976
598 2 2 5 1 885 904 983
599 2 2 5 1 993 992 1021
600 2 2 5 1 892 861 986
601 2 2 5 1 1022 1002 1042
602 2 2 5 1 938 939 964
603 2 2 5 1 1014 1013 1020
604 2 2 5 1 995 994 999
605 2 2 5 1 927 937 941
606 2 2 5 1 906 1001 1028
607 2 2 5 1 305 291 995
608 2 2 5 1 746 739 854
609 2 2 5 1 7 798 802
610 2 2 5 1 860 858 864
611 2 2 5 1 924 928 940
612 2 2 5 1 832 855 868
613 2 2 5 1 939 924 940
614 2 2 5 1 984 906 1028
615 2 2 5 1 964 939 970
616 2 2 5 1 319 312 822
617 2 2 5 1 994 890 999
618 2 2 5 1 919 924 939
619 2 2 5 1 732 725 915
620 2 2 5 1 13 3 810
621 2 2 5 1 989 933 1051
622 2 2 5 1 867 910 912
623 2 2 5 1 123 130 885
624 2 2 5 1 151 158 886
625 2 2 5 1 165 172 863
626 2 2 5 1 228 235 860
627 2 2 5 1 214 221 861
628 2 2 5 1 200 207 861
629 2 2 5 1 179 186 863
630 2 2 5 1 137 144 886
631 2 2 5 1 109 116 885
632 2 2 5 1 820 812 833
633 2 2 5 1 892 862 985
634 2 2 5 1 828 827 836
635 2 2 5 1 826 883 900
636 2 2 5 1 955 952 967
637 2 2 5 1 130 137 904
638 2 2 5 1 904 889 981
639 2 2 5 1 820 833 906
640 2 2 5 1 811 816 916
641 2 2 5 1 808 824 831
642 2 2 5 1 874 871 882
643 2 2 5 1 890 994 1044
644 2 2 5 1 816 992 993
645 2 2 5 1 811 802 816
646 2 2 5 1 798 812 814
647 2 2 5 1 981 887 1044
648 2 2 5 1 879 877 893
649 2 2 5 1 816 814 905
650 2 2 5 1 842 932 934
651 2 2 5 1 994 981 1044
652 2 2 5 1 859 892 986
653 2 2 5 1 908 984 1002
654 2 2 5 1 963 957 977
655 2 2 5 1 1040 948 1041
656 2 2 5 1 795 807 808
657 2 2 5 1 242 788 860
658 2 2 5 1 818 919 925
659 2 2 5 1 983 981 994
660 2 2 5 1 982 983 994
661 2 2 5 1 903 863 985
662 2 2 5 1 830 982 994
663 2 2 5 1 812 832 833
664 2 2 5 1 904 981 983
665 2 2 5 1 821 804 827
666 2 2 5 1 797 17 1036
667 2 2 5 1 802 814 816
668 2 2 5 1 943 941 948
669 2 2 5 1 937 925 938
670 2 2 5 1 725 809 915
671 2 2 5 1 930 927 941
672 2 2 5 1 992 1004 1021
673 2 2 5 1 830 994 995
674 2 2 5 1 991 970 1046
675 2 2 5 1 818 925 926
676 2 2 5 1 1044 887 1045
677 2 2 5 1 1015 993 1021
678 2 2 5 1 256 109 983
679 2 2 5 1 814 820 905
680 2 2 5 1 916 993 1016
681 2 2 5 1 789 12 790
682 2 2 5 1 802 811 1036
683 2 2 5 1 886 903 904
684 2 2 5 1 1016 1037 1039
685 2 2 5 1 902 903 985
686 2 2 5 1 14 793 810
687 2 2 5 1 12 13 790
688 2 2 5 1 885 130 904
689 2 2 5 1 793 790 810
690 2 2 5 1 291 830 995
691 2 2 5 1 790 13 810
692 2 2 5 1 291 284 830
693 2 2 5 1 137 886 904
694 2 2 5 1 109 885 983
695 2 2 5 1 830 270 982
696 2 2 5 1 249 256 982
697 2 2 5 1 781 774 858
698 2 2 5 1 767 760 858
699 2 2 5 1 270 263 982
700 2 2 5 1 277 270 830
701 2 2 5 1 982 256 983
702 2 2 5 1 207 214 861
703 2 2 5 1 235 242 860
704 2 2 5 1 172 179 863
705 2 2 5 1 144 151 886
706 2 2 5 1 116 123 885
707 2 2 5 1 774 767 858
708 2 2 5 1 263 249 982
709 2 2 5 1 284 277 830
710 2 2 5 1 2 9 792
711 2 2 5 1 9 10 789
712 2 2 5 1 739 732 915
713 2 2 5 1 753 746 854
714 2 2 5 1 788 781 858
715 2 2 5 1 11 12 789
716 2 2 5 1 186 193 985
717 2 2 5 1 193 200 985
718 2 2 5 1 200 861 985
719 2 2 5 1 221 228 986
720 2 2 5 1 312 305 822
721 2 2 5 1 760 753 858
722 2 2 5 1 823 821 826
723 2 2 5 1 824 823 825
724 2 2 5 1 825 823 900
725 2 2 5 1 823 826 900
726 2 2 5 1 834 825 835
727 2 2 5 1 833 868 882
728 2 2 5 1 833 873 1035
729 2 2 5 1 837 927 930
730 2 2 5 1 844 848 932
731 2 2 5 1 871 873 882
732 2 2 5 1 1035 873 1050
733 2 2 5 1 876 874 882
734 2 2 5 1 877 876 893
735 2 2 5 1 879 893 1049
736 2 2 5 1 893 880 1049
737 2 2 5 1 1011 917 1038
738 2 2 5 1 919 918 924
739 2 2 5 1 935 1016 1039
740 2 2 5 1 948 961 1041
741 2 2 5 1 959 949 967
742 2 2 5 1 952 959 967
743 2 2 5 1 953 964 977
744 2 2 5 1 956 955 967
745 2 2 5 1 957 956 977
746 2 2 5 1 966 963 977
747 2 2 5 1 964 966 977
748 2 2 5 1 973 970 974
749 2 2 5 1 1019 1002 1022
750 2 2 5 1 1004 1003 1020
751 2 2 5 1 1007 1008 1021
752 2 2 5 1 1008 1010 1011
753 2 2 5 1 1017 1014 1020
754 2 2 5 1 1026 1028 1029
755 3 2 5 1 73 628 635 74
756 3 2 5 1 628 629 636 635
757 3 2 5 1 629 630 637 636
758 3 2 5 1 630 631 638 637
759 3 2 5 1 631 632 639 638
760 3 2 5 1 632 633 640 639
761 3 2 5 1 633 634 641 640
762 3 2 5 1 80 677 684 81
763 3 2 5 1 677 678 685 684
764 3 2 5 1 678 679 686 685
765 3 2 5 1 679 680 687 686
766 3 2 5 1 680 681 688 687
767 3 2 5 1 681 682 689 688
768 3 2 5 1 682 683 690 689
769 3 2 5 1 86 719 726 87
770 3 2 5 1 719 720 727 726
771 3 2 5 1 720 721 728 727
772 3 2 5 1 721 722 729 728
773 3 2 5 1 722 723 730 729
774 3 2 5 1 723 724 731 730
775 3 2 5 1 724 725 732 731
776 3 2 5 1 85 712 719 86
777 3 2 5 1 712 713 720 719
778 3 2 5 1 713 714 721 720
779 3 2 5 1 714 715 722 721
780 3 2 5 1 715 716 723 722
781 3 2 5 1 716 717 724 723
782 3 2 5 1 717 718 725 724
783 3 2 5 1 84 705 712 85
784 3 2 5 1 705 706 713 712
785 3 2 5 1 706 707 714 713
786 3 2 5 1 707 708 715 714
787 3 2 5 1 708 709 716 715
788 3 2 5 1 709 710 717 716
789 3 2 5 1 710 711 718 717
790 3 2 5 1 83 698 705 84
791 3 2 5 1 698 699 706 705
792 3 2 5 1 699 700 707 706
793 3 2 5 1 700 701 708 707
794 3 2 5 1 701 702 709 708
795 3 2 5 1 702 703 710 709
796 3 2 5 1 703 704 711 710
797 3 2 5 1 82 691 698 83
798 3 2 5 1 691 692 699 698
799 3 2 5 1 692 693 700 699
800 3 2 5 1 693 694 701 700
801 3 2 5 1 694 695 702 701
802 3 2 5 1 695 696 703 702
803 3 2 5 1 696 697 704 703
804 3 2 5 1 81 684 691 82
805 3 2 5 1 684 685 692 691
806 3 2 5 1 685 686 693 692
807 3 2 5 1 686 687 694 693
808 3 2 5 1 687 688 695 694
809 3 2 5 1 688 689 696 695
810 3 2 5 1 689 690 697 696
811 3 2 5 1 74 635 642 75
812 3 2 5 1 635 636 643 642
813 3 2 5 1 636 637 644 643
814 3 2 5 1 637 638 645 644
815 3 2 5 1 638 639 646 645
816 3 2 5 1 639 640 647 646
817 3 2 5 1 640 641 648 647
818 3 2 5 1 79 670 677 80
819 3 2 5 1 670 671 678 677
820 3 2 5 1 671 672 679 678
821 3 2 5 1 672 673 680 679
822 3 2 5 1 673 674 681 680
823 3 2 5 1 674 675 682 681
824 3 2 5 1 675 676 683 682
825 3 2 5 1 65 572 579 66
826 3 2 5 1 572 573 580 579
827 3 2 5 1 573 574 581 580
828 3 2 5 1 574 575 582 581
829 3 2 5 1 575 576 583 582
830 3 2 5 1 576 577 584 583
831 3 2 5 1 577 578 585 584
832 3 2 5 1 64 565 572 65
833 3 2 5 1 565 566 573 572
834 3 2 5 1 566 567 574 573
835 3 2 5 1 567 568 575 574
836 3 2 5 1 568 569 576 575
837 3 2 5 1 569 570 577 576
838 3 2 5 1 570 571 578 577
839 3 2 5 1 72 621 628 73
840 3 2 5 1 621 622 629 628
841 3 2 5 1 622 623 630 629
842 3 2 5 1 623 624 631 630
843 3 2 5 1 624 625 632 631
844 3 2 5 1 625 626 633 632
845 3 2 5 1 626 627 634 633
846 3 2 5 1 71 614 621 72
847 3 2 5 1 614 615 622 621
848 3 2 5 1 615 616 623 622
849 3 2 5 1 616 617 624 623
850 3 2 5 1 617 618 625 624
851 3 2 5 1 618 619 626 625
852 3 2 5 1 619 620 627 626
853 3 2 5 1 70 607 614 71
854 3 2 5 1 607 608 615 614
855 3 2 5 1 608 609 616 615
856 3 2 5 1 609 610 617 616
857 3 2 5 1 610 611 618 617
858 3 2 5 1 611 612 619 618
859 3 2 5 1 612 613 620 619
860 3 2 5 1 78 663 670 79
861 3 2 5 1 663 664 671 670
862 3 2 5 1 664 665 672 671
863 3 2 5 1 665 666 673 672
864 3 2 5 1 666 667 674 673
865 3 2 5 1 667 668 675 674
866 3 2 5 1 668 669 676 675
867 3 2 5 1 69 600 607 70
868 3 2 5 1 600 601 608 607
869 3 2 5 1 601 602 609 608
870 3 2 5 1 602 603 610 609
871 3 2 5 1 603 604 611 610
872 3 2 5 1 604 605 612 611
873 3 2 5 1 605 606 613 612
874 3 2 5 1 68 593 600 69
875 3 2 5 1 593 594 601 600
876 3 2 5 1 594 595 602 601
877 3 2 5 1 595 596 603 602
878 3 2 5 1 596 597 604 603
879 3 2 5 1 597 598 605 604
880 3 2 5 1 598 599 606 605
881 3 2 5 1 67 586 593 68
882 3 2 5 1 586 587 594 593
883 3 2 5 1 587 588 595 594
884 3 2 5 1 588 589 596 595
885 3 2 5 1 589 590 597 596
886 3 2 5 1 590 591 598 597
887 3 2 5 1 591 592 599 598
888 3 2 5 1 66 579 586 67
889 3 2 5 1 579 580 587 586
890 3 2 5 1 580 581 588 587
891 3 2 5 1 581 582 589 588
892 3 2 5 1 582 583 590 589
893 3 2 5 1 583 584 591 590
894 3 2 5 1 584 585 592 591
895 3 2 5 1 5 96 292 57
896 3 2 5 1 96 97 293 292
897 3 2 5 1 97 98 294 293
898 3 2 5 1 98 99 295 294
899 3 2 5 1 99 100 296 295
900 3 2 5 1 100 101 297 296
901 3 2 5 1 101 102 298 297
902 3 2 5 1 77 656 663 78
903 3 2 5 1 656 657 664 663
904 3 2 5 1 657 658 665 664
905 3 2 5 1 658 659 666 665
906 3 2 5 1 659 660 667 666
907 3 2 5 1 660 661 668 667
908 3 2 5 1 661 662 669 668
909 3 2 5 1 63 558 565 64
910 3 2 5 1 558 559 566 565
911 3 2 5 1 559 560 567 566
912 3 2 5 1 560 561 568 567
913 3 2 5 1 561 562 569 568
914 3 2 5 1 562 563 570 569
915 3 2 5 1 563 564 571 570
916 3 2 5 1 62 551 558 63
917 3 2 5 1 551 552 559 558
918 3 2 5 1 552 553 560 559
919 3 2 5 1 553 554 561 560
920 3 2 5 1 554 555 562 561
921 3 2 5 1 555 556 563 562
922 3 2 5 1 556 557 564 563
923 3 2 5 1 61 544 551 62
924 3 2 5 1 544 545 552 551
925 3 2 5 1 545 546 553 552
926 3 2 5 1 546 547 554 553
927 3 2 5 1 547 548 555 554
928 3 2 5 1 548 549 556 555
929 3 2 5 1 549 550 557 556
930 3 2 5 1 87 726 733 88
931 3 2 5 1 726 727 734 733
932 3 2 5 1 727 728 735 734
933 3 2 5 1 728 729 736 735
934 3 2 5 1 729 730 737 736
935 3 2 5 1 730 731 738 737
936 3 2 5 1 731 732 739 738
937 3 2 5 1 76 649 656 77
938 3 2 5 1 649 650 657 656
939 3 2 5 1 650 651 658 657
940 3 2 5 1 651 652 659 658
941 3 2 5 1 652 653 660 659
942 3 2 5 1 653 654 661 660
943 3 2 5 1 654 655 662 661
944 3 2 5 1 57 292 523 58
945 3 2 5 1 292 293 524 523
946 3 2 5 1 293 294 525 524
947 3 2 5 1 294 295 526 525
948 3 2 5 1 295 296 527 526
949 3 2 5 1 296 297 528 527
950 3 2 5 1 297 298 529 528
951 3 2 5 1 75 642 649 76
952 3 2 5 1 642 643 650 649
953 3 2 5 1 643 644 651 650
954 3 2 5 1 644 645 652 651
955 3 2 5 1 645 646 653 652
956 3 2 5 1 646 647 654 653
957 3 2 5 1 647 648 655 654
958 3 2 5 1 88 733 740 89
959 3 2 5 1 733 734 741 740
960 3 2 5 1 734 735 742 741
961 3 2 5 1 735 736 743 742
962 3 2 5 1 736 737 744 743
963 3 2 5 1 737 738 745 744
964 3 2 5 1 738 739 746 745
965 3 2 5 1 60 537 544 61
966 3 2 5 1 537 538 545 544
967 3 2 5 1 538 539 546 545
968 3 2 5 1 539 540 547 546
969 3 2 5 1 540 541 548 547
970 3 2 5 1 541 542 549 548
971 3 2 5 1 542 543 550 549
972 3 2 5 1 58 523 530 59
973 3 2 5 1 523 524 531 530
974 3 2 5 1 524 525 532 531
975 3 2 5 1 525 526 533 532
976 3 2 5 1 526 527 534 533
977 3 2 5 1 527 528 535 534
978 3 2 5 1 528 529 536 535
979 3 2 5 1 59 530 537 60
980 3 2 5 1 530 531 538 537
981 3 2 5 1 531 532 539 538
982 3 2 5 1 532 533 540 539
983 3 2 5 1 533 534 541 540
984 3 2 5 1 534 535 542 541
985 3 2 5 1 535 536 543 542
986 3 2 5 1 93 768 775 94
987 3 2 5 1 768 769 776 775
988 3 2 5 1 769 770 777 776
989 3 2 5 1 770 771 778 777
990 3 2 5 1 771 772 779 778
991 3 2 5 1 772 773 780 779
992 3 2 5 1 773 774 781 780
993 3 2 5 1 94 775 782 95
994 3 2 5 1 775 776 783 782
995 3 2 5 1 776 777 784 783
996 3 2 5 1 777 778 785 784
997 3 2 5 1 778 779 786 785
998 3 2 5 1 779 780 787 786
999 3 2 5 1 780 781 788 787
1000 3 2 5 1 89 740 747 90
1001 3 2 5 1 740 741 748 747
1002 3 2 5 1 741 742 749 748
1003 3 2 5 1 742 743 750 749
1004 3 2 5 1 743 744 751 750
1005 3 2 5 1 744 745 752 751
1006 3 2 5 1 745 746 753 752
1007 3 2 5 1 90 747 754 91
1008 3 2 5 1 747 748 755 754
1009 3 2 5 1 748 749 756 755
1010 3 2 5 1 749 750 757 756
1011 3 2 5 1 750 751 758 757
1012 3 2 5 1 751 752 759 758
1013 3 2 5 1 752 753 760 759
1014 3 2 5 1 91 754 761 92
1015 3 2 5 1 754 755 762 761
1016 3 2 5 1 755 756 763 762
1017 3 2 5 1 756 757 764 763
1018 3 2 5 1 757 758 765 764
1019 3 2 5 1 758 759 766 765
1020 3 2 5 1 759 760 767 766
1021 3 2 5 1 92 761 768 93
1022 3 2 5 1 761 762 769 768
1023 3 2 5 1 762 763 770 769
1024 3 2 5 1 763 764 771 770
1025 3 2 5 1 764 765 772 771
1026 3 2 5 1 765 766 773 772
1027 3 2 5 1 766 767 774 773
1028 3 2 5 1 51 481 488 52
1029 3 2 5 1 481 482 489 488
1030 3 2 5 1 482 483 490 489
1031 3 2 5 1 483 484 491 490
1032 3 2 5 1 484 485 492 491
1033 3 2 5 1 485 486 493 492
1034 3 2 5 1 486 487 494 493
1035 3 2 5 1 52 488 495 53
1036 3 2 5 1 488 489 496 495
1037 3 2 5 1 489 490 497 496
1038 3 2 5 1 490 491 498 497
1039 3 2 5 1 491 492 499 498
1040 3 2 5 1 492 493 500 499
1041 3 2 5 1 493 494 501 500
1042 3 2 5 1 53 495 502 54
1043 3 2 5 1 495 496 503 502
1044 3 2 5 1 496 497 504 503
1045 3 2 5 1 497 498 505 504
1046 3 2 5 1 498 499 506 505
1047 3 2 5 1 499 500 507 506
1048 3 2 5 1 500 501 508 507
1049 3 2 5 1 95 782 236 6
1050 3 2 5 1 782 783 237 236
1051 3 2 5 1 783 784 238 237
1052 3 2 5 1 784 785 239 238
1053 3 2 5 1 785 786 240 239
1054 3 2 5 1 786 787 241 240
1055 3 2 5 1 787 788 242 241
1056 3 2 5 1 6 103 250 18
1057 3 2 5 1 103 104 251 250
1058 3 2 5 1 104 105 252 251
1059 3 2 5 1 105 106 253 252
1060 3 2 5 1 106 107 254 253
1061 3 2 5 1 107 108 255 254
1062 3 2 5 1 108 109 256 255
1063 3 2 5 1 18 250 243 19
1064 3 2 5 1 250 251 244 243
1065 3 2 5 1 251 252 245 244
1066 3 2 5 1 252 253 246 245
1067 3 2 5 1 253 254 247 246
1068 3 2 5 1 254 255 248 247
1069 3 2 5 1 255 256 249 248
1070 3 2 5 1 19 243 257 20
1071 3 2 5 1 243 244 258 257
1072 3 2 5 1 244 245 259 258
1073 3 2 5 1 245 246 260 259
1074 3 2 5 1 246 247 261 260
1075 3 2 5 1 247 248 262 261
1076 3 2 5 1 248 249 263 262
1077 3 2 5 1 20 257 264 21
1078 3 2 5 1 257 258 265 264
1079 3 2 5 1 258 259 266 265
1080 3 2 5 1 259 260 267 266
1081 3 2 5 1 260 261 268 267
1082 3 2 5 1 261 262 269 268
1083 3 2 5 1 262 263 270 269
1084 3 2 5 1 21 264 271 22
1085 3 2 5 1 264 265 272 271
1086 3 2 5 1 265 266 273 272
1087 3 2 5 1 266 267 274 273
1088 3 2 5 1 267 268 275 274
1089 3 2 5 1 268 269 276 275
1090 3 2 5 1 269 270 277 276
1091 3 2 5 1 22 271 278 23
1092 3 2 5 1 271 272 279 278
1093 3 2 5 1 272 273 280 279
1094 3 2 5 1 273 274 281 280
1095 3 2 5 1 274 275 282 281
1096 3 2 5 1 275 276 283 282
1097 3 2 5 1 276 277 284 283
1098 3 2 5 1 23 278 285 24
1099 3 2 5 1 278 279 286 285
1100 3 2 5 1 279 280 287 286
1101 3 2 5 1 280 281 288 287
1102 3 2 5 1 281 282 289 288
1103 3 2 5 1 282 283 290 289
1104 3 2 5 1 283 284 291 290
1105 3 2 5 1 24 285 299 25
1106 3 2 5 1 285 286 300 299
1107 3 2 5 1 286 287 301 300
1108 3 2 5 1 287 288 302 301
1109 3 2 5 1 288 289 303 302
1110 3 2 5 1 289 290 304 303
1111 3 2 5 1 290 291 305 304
1112 3 2 5 1 25 299 306 26
1113 3 2 5 1 299 300 307 306
1114 3 2 5 1 300 301 308 307
1115 3 2 5 1 301 302 309 308
1116 3 2 5 1 302 303 310 309
1117 3 2 5 1 303 304 311 310
1118 3 2 5 1 304 305 312 311
1119 3 2 5 1 26 306 313 27
1120 3 2 5 1 306 307 314 313
1121 3 2 5 1 307 308 315 314
1122 3 2 5 1 308 309 316 315
1123 3 2 5 1 309 310 317 316
1124 3 2 5 1 310 311 318 317
1125 3 2 5 1 311 312 319 318
1126 3 2 5 1 27 313 320 28
1127 3 2 5 1 313 314 321 320
1128 3 2 5 1 314 315 322 321
1129 3 2 5 1 315 316 323 322
1130 3 2 5 1 316 317 324 323
1131 3 2 5 1 317 318 325 324
1132 3 2 5 1 318 319 326 325
1133 3 2 5 1 28 320 327 29
1134 3 2 5 1 320 321 328 327
1135 3 2 5 1 321 322 329 328
1136 3 2 5 1 322 323 330 329
1137 3 2 5 1 323 324 331 330
1138 3 2 5 1 324 325 332 331
1139 3 2 5 1 325 326 333 332
1140 3 2 5 1 29 327 334 30
1141 3 2 5 1 327 328 335 334
1142 3 2 5 1 328 329 336 335
1143 3 2 5 1 329 330 337 336
1144 3 2 5 1 330 331 338 337
1145 3 2 5 1 331 332 339 338
1146 3 2 5 1 332 333 340 339
1147 3 2 5 1 30 334 341 31
1148 3 2 5 1 334 335 342 341
1149 3 2 5 1 335 336 343 342
1150 3 2 5 1 336 337 344 343
1151 3 2 5 1 337 338 345 344
1152 3 2 5 1 338 339 346 345
1153 3 2 5 1 339 340 347 346
1154 3 2 5 1 31 341 348 32
1155 3 2 5 1 341 342 349 348
1156 3 2 5 1 342 343 350 349
1157 3 2 5 1 343 344 351 350
1158 3 2 5 1 344 345 352 351
1159 3 2 5 1 345 346 353 352
1160 3 2 5 1 346 347 354 353
1161 3 2 5 1 32 348 355 33
1162 3 2 5 1 348 349 356 355
1163 3 2 5 1 349 350 357 356
1164 3 2 5 1 350 351 358 357
1165 3 2 5 1 351 352 359 358
1166 3 2 5 1 352 353 360 359
1167 3 2 5 1 353 354 361 360
1168 3 2 5 1 33 355 362 34
1169 3 2 5 1 355 356 363 362
1170 3 2 5 1 356 357 364 363
1171 3 2 5 1 357 358 365 364
1172 3 2 5 1 358 359 366 365
1173 3 2 5 1 359 360 367 366
1174 3 2 5 1 360 361 368 367
1175 3 2 5 1 34 362 369 35
1176 3 2 5 1 362 363 370 369
1177 3 2 5 1 363 364 371 370
1178 3 2 5 1 364 365 372 371
1179 3 2 5 1 365 366 373 372
1180 3 2 5 1 366 367 374 373
1181 3 2 5 1 367 368 375 374
1182 3 2 5 1 35 369 376 36
1183 3 2 5 1 369 370 377 376
1184 3 2 5 1 370 371 378 377
1185 3 2 5 1 371 372 379 378
1186 3 2 5 1 372 373 380 379
1187 3 2 5 1 373 374 381 380
1188 3 2 5 1 374 375 382 381
1189 3 2 5 1 36 376 383 37
1190 3 2 5 1 376 377 384 383
1191 3 2 5 1 377 378 385 384
1192 3 2 5 1 378 379 386 385
1193 3 2 5 1 379 380 387 386
1194 3 2 5 1 380 381 388 387
1195 3 2 5 1 381 382 389 388
1196 3 2 5 1 37 383 390 38
1197 3 2 5 1 383 384 391 390
1198 3 2 5 1 384 385 392 391
1199 3 2 5 1 385 386 393 392
1200 3 2 5 1 386 387 394 393
1201 3 2 5 1 387 388 395 394
1202 3 2 5 1 388 389 396 395
1203 3 2 5 1 38 390 397 39
1204 3 2 5 1 390 391 398 397
1205 3 2 5 1 391 392 399 398
1206 3 2 5 1 392 393 400 399
1207 3 2 5 1 393 394 401 400
1208 3 2 5 1 394 395 402 401
1209 3 2 5 1 395 396 403 402
1210 3 2 5 1 39 397 404 40
1211 3 2 5 1 397 398 405 404
1212 3 2 5 1 398 399 406 405
1213 3 2 5 1 399 400 407 406
1214 3 2 5 1 400 401 408 407
1215 3 2 5 1 401 402 409 408
1216 3 2 5 1 402 403 410 409
1217 3 2 5 1 40 404 411 41
1218 3 2 5 1 404 405 412 411
1219 3 2 5 1 405 406 413 412
1220 3 2 5 1 406 407 414 413
1221 3 2 5 1 407 408 415 414
1222 3 2 5 1 408 409 416 415
1223 3 2 5 1 409 410 417 416
1224 3 2 5 1 41 411 418 42
1225 3 2 5 1 411 412 419 418
1226 3 2 5 1 412 413 420 419
1227 3 2 5 1 413 414 421 420
1228 3 2 5 1 414 415 422 421
1229 3 2 5 1 415 416 423 422
1230 3 2 5 1 416 417 424 423
1231 3 2 5 1 42 418 425 43
1232 3 2 5 1 418 419 426 425
1233 3 2 5 1 419 420 427 426
1234 3 2 5 1 420 421 428 427
1235 3 2 5 1 421 422 429 428
1236 3 2 5 1 422 423 430 429
1237 3 2 5 1 423 424 431 430
1238 3 2 5 1 43 425 432 44
1239 3 2 5 1 425 426 433 432
1240 3 2 5 1 426 427 434 433
1241 3 2 5 1 427 428 435 434
1242 3 2 5 1 428 429 436 435
1243 3 2 5 1 429 430 437 436
1244 3 2 5 1 430 431 438 437
1245 3 2 5 1 44 432 439 45
1246 3 2 5 1 432 433 440 439
1247 3 2 5 1 433 434 441 440
1248 3 2 5 1 434 435 442 441
1249 3 2 5 1 435 436 443 442
1250 3 2 5 1 436 437 444 443
1251 3 2 5 1 437 438 445 444
1252 3 2 5 1 45 439 446 46
1253 3 2 5 1 439 440 447 446
1254 3 2 5 1 440 441 448 447
1255 3 2 5 1 441 442 449 448
1256 3 2 5 1 442 443 450 449
1257 3 2 5 1 443 444 451 450
1258 3 2 5 1 444 445 452 451
1259 3 2 5 1 46 446 453 47
1260 3 2 5 1 446 447 454 453
1261 3 2 5 1 447 448 455 454
1262 3 2 5 1 448 449 456 455
1263 3 2 5 1 449 450 457 456
1264 3 2 5 1 450 451 458 457
1265 3 2 5 1 451 452 459 458
1266 3 2 5 1 47 453 460 48
1267 3 2 5 1 453 454 461 460
1268 3 2 5 1 454 455 462 461
1269 3 2 5 1 455 456 463 462
1270 3 2 5 1 456 457 464 463
1271 3 2 5 1 457 458 465 464
1272 3 2 5 1 458 459 466 465
1273 3 2 5 1 48 460 467 49
1274 3 2 5 1 460 461 468 467
1275 3 2 5 1 461 462 469 468
1276 3 2 5 1 462 463 470 469
1277 3 2 5 1 463 464 471 470
1278 3 2 5 1 464 465 472 471
1279 3 2 5 1 465 466 473 472
1280 3 2 5 1 49 467 474 50
1281 3 2 5 1 467 468 475 474
1282 3 2 5 1 468 469 476 475
1283 3 2 5 1 469 470 477 476
1284 3 2 5 1 470 471 478 477
1285 3 2 5 1 471 472 479 478
1286 3 2 5 1 472 473 480 479
1287 3 2 5 1 50 474 481 51
1288 3 2 5 1 474 475 482 481
1289 3 2 5 1 475 476 483 482
1290 3 2 5 1 476 477 484 483
1291 3 2 5 1 477 478 485 484
1292 3 2 5 1 478 479 486 485
1293 3 2 5 1 479 480 487 486
1294 3 2 5 1 54 502 509 55
1295 3 2 5 1 502 503 510 509
1296 3 2 5 1 503 504 511 510
1297 3 2 5 1 504 505 512 511
1298 3 2 5 1 505 506 513 512
1299 3 2 5 1 506 507 514 513
1300 3 2 5 1 507 508 515 514
1301 3 2 5 1 55 509 516 56
1302 3 2 5 1 509 510 517 516
1303 3 2 5 1 510 511 518 517
1304 3 2 5 1 511 512 519 518
1305 3 2 5 1 512 513 520 519
1306 3 2 5 1 513 514 521 520
1307 3 2 5 1 514 515 522 521
1308 3 2 5 1 56 516 96 5
1309 3 2 5 1 516 517 97 96
1310 3 2 5 1 517 518 98 97
1311 3 2 5 1 518 519 99 98
1312 3 2 5 1 519 520 100 99
1313 3 2 5 1 520 521 101 100
1314 3 2 5 1 521 522 102 101
1315 3 2 5 1 103 110 111 104
1316 3 2 5 1 104 111 112 105
1317 3 2 5 1 105 112 113 106
1318 3 2 5 1 106 113 114 107
1319 3 2 5 1 107 114 115 108
1320 3 2 5 1 108 115 116 109
1321 3 2 5 1 110 117 118 111
1322 3 2 5 1 111 118 119 112
1323 3 2 5 1 112 119 120 113
1324 3 2 5 1 113 120 121 114
1325 3 2 5 1 114 121 122 115
1326 3 2 5 1 115 122 123 116
1327 3 2 5 1 117 124 125 118
1328 3 2 5 1 118 125 126 119
1329 3 2 5 1 119 126 127 120
1330 3 2 5 1 120 127 128 121
1331 3 2 5 1 121 128 129 122
1332 3 2 5 1 122 129 130 123
1333 3 2 5 1 124 131 132 125
1334 3 2 5 1 125 132 133 126
1335 3 2 5 1 126 133 134 127
1336 3 2 5 1 127 134 135 128
1337 3 2 5 1 128 135 136 129
1338 3 2 5 1 129 136 137 130
1339 3 2 5 1 131 138 139 132
1340 3 2 5 1 132 139 140 133
1341 3 2 5 1 133 140 141 134
1342 3 2 5 1 134 141 142 135
1343 3 2 5 1 135 142 143 136
1344 3 2 5 1 136 143 144 137
1345 3 2 5 1 138 145 146 139
1346 3 2 5 1 139 146 147 140
1347 3 2 5 1 140 147 148 141
1348 3 2 5 1 141 148 149 142
1349 3 2 5 1 142 149 150 143
1350 3 2 5 1 143 150 151 144
1351 3 2 5 1 145 152 153 146
1352 3 2 5 1 146 153 154 147
1353 3 2 5 1 147 154 155 148
1354 3 2 5 1 148 155 156 149
1355 3 2 5 1 149 156 157 150
1356 3 2 5 1 150 157 158 151
1357 3 2 5 1 152 159 160 153
1358 3 2 5 1 153 160 161 154
1359 3 2 5 1 154 161 162 155
1360 3 2 5 1 155 162 163 156
1361 3 2 5 1 156 163 164 157
1362 3 2 5 1 157 164 165 158
1363 3 2 5 1 159 166 167 160
1364 3 2 5 1 160 167 168 161
1365 3 2 5 1 161 168 169 162
1366 3 2 5 1 162 169 170 163
1367 3 2 5 1 163 170 171 164
1368 3 2 5 1 164 171 172 165
1369 3 2 5 1 166 173 174 167
1370 3 2 5 1 167 174 175 168
1371 3 2 5 1 168 175 176 169
1372 3 2 5 1 169 176 177 170
1373 3 2 5 1 170 177 178 171
1374 3 2 5 1 171 178 179 172
1375 3 2 5 1 173 180 181 174
1376 3 2 5 1 174 181 182 175
1377 3 2 5 1 175 182 183 176
1378 3 2 5 1 176 183 184 177
1379 3 2 5 1 177 184 185 178
1380 3 2 5 1 178 185 186 179
1381 3 2 5 1 180 187 188 181
1382 3 2 5 1 181 188 189 182
1383 3 2 5 1 182 189 190 183
1384 3 2 5 1 183 190 191 184
1385 3 2 5 1 184 191 192 185
1386 3 2 5 1 185 192 193 186
1387 3 2 5 1 187 194 195 188
1388 3 2 5 1 188 195 196 189
1389 3 2 5 1 189 196 197 190
1390 3 2 5 1 190 197 198 191
1391 3 2 5 1 191 198 199 192
1392 3 2 5 1 192 199 200 193
1393 3 2 5 1 194 201 202 195
1394 3 2 5 1 195 202 203 196
1395 3 2 5 1 196 203 204 197
1396 3 2 5 1 197 204 205 198
1397 3 2 5 1 198 205 206 199
1398 3 2 5 1 199 206 207 200
1399 3 2 5 1 201 208 209 202
1400 3 2 5 1 202 209 210 203
1401 3 2 5 1 203 210 211 204
1402 3 2 5 1 204 211 212 205
1403 3 2 5 1 205 212 213 206
1404 3 2 5 1 206 213 214 207
1405 3 2 5 1 208 215 216 209
1406 3 2 5 1 209 216 217 210
1407 3 2 5 1 210 217 218 211
1408 3 2 5 1 211 218 219 212
1409 3 2 5 1 212 219 220 213
1410 3 2 5 1 213 220 221 214
1411 3 2 5 1 215 222 223 216
1412 3 2 5 1 216 223 224 217
1413 3 2 5 1 217 224 225 218
1414 3 2 5 1 218 225 226 219
1415 3 2 5 1 219 226 227 220
1416 3 2 5 1 220 227 228 221
1417 3 2 5 1 222 229 230 223
1418 3 2 5 1 223 230 231 224
1419 3 2 5 1 224 231 232 225
1420 3 2 5 1 225 232 233 226
1421 3 2 5 1 226 233 234 227
1422 3 2 5 1 227 234 235 228
1423 3 2 5 1 229 236 237 230
1424 3 2 5 1 230 237 238 231
1425 3 2 5 1 231 238 239 232
1426 3 2 5 1 232 239 240 233
1427 3 2 5 1 233 240 241 234
1428 3 2 5 1 234 241 242 235
$EndElements
