<?xml version="1.0" encoding="utf-8" standalone="no"?>
<!DOCTYPE svg PUBLIC "-//W3C//DTD SVG 1.1//EN"
  "http://www.w3.org/Graphics/SVG/1.1/DTD/svg11.dtd">
<svg xmlns:xlink="http://www.w3.org/1999/xlink" width="424.628984pt" height="280.8pt" viewBox="0 0 424.628984 280.8" xmlns="http://www.w3.org/2000/svg" version="1.1">
 <metadata>
  <rdf:RDF xmlns:dc="http://purl.org/dc/elements/1.1/" xmlns:cc="http://creativecommons.org/ns#" xmlns:rdf="http://www.w3.org/1999/02/22-rdf-syntax-ns#">
   <cc:Work>
    <dc:type rdf:resource="http://purl.org/dc/dcmitype/StillImage"/>
    <dc:date>2026-10-10T02:54:40.874142</dc:date>
    <dc:format>image/svg+xml</dc:format>
    <dc:creator>
     <cc:Agent>
      <dc:title>Matplotlib v3.11.2, https://matplotlib.org/</dc:title>
     </cc:Agent>
    </dc:creator>
   </cc:Work>
  </rdf:RDF>
 </metadata>
 <defs>
  <style type="text/css">*{stroke-linejoin: round; stroke-linecap: butt}</style>
 </defs>
 <g id="figure_1">
  <g id="patch_1">
   <path d="M -0 280.8 
L 424.628984 280.8 
L 424.628984 0 
L -0 0 
z
" style="fill: #ffffff"/>
  </g>
  <g id="axes_1">
   <g id="patch_2">
    <path d="M 57.828984 241.6 
L 417.428984 241.6 
L 417.428984 7.2 
L 57.828984 7.2 
z
" style="fill: #ffffff"/>
   </g>
   <g id="matplotlib.axis_1">
    <g id="xtick_1">
     <g id="line2d_1">
      <path d="M 71.579922 241.6 
L 71.579922 7.2 
" clip-path="url(#p2b1745998a)" style="fill: none; stroke: #b0b0b0; stroke-opacity: 0.3; stroke-width: 0.8; stroke-linecap: square"/>
     </g>
     <g id="line2d_2">
      <defs>
       <path id="mdeb7a8fea6" d="M 0 0 
L 0 3.5 
" style="stroke: #000000; stroke-width: 0.8"/>
      </defs>
      <g>
       <use xlink:href="#mdeb7a8fea6" x="71.579922" y="241.6" style="stroke: #000000; stroke-width: 0.8"/>
      </g>
     </g>
     <g id="text_1">
      <!-- 0.0 -->
      <g transform="translate(63.62836 256.197656) scale(0.1 -0.1)">
       <defs>
        <path id="DejaVuSans-13" d="M 2034 4250 
Q 1547 4250 1301 3770 
Q 1056 3291 1056 2328 
Q 1056 1369 1301 889 
Q 1547 409 2034 409 
Q 2525 409 2770 889 
Q 3016 1369 3016 2328 
Q 3016 3291 2770 3770 
Q 2525 4250 2034 4250 
z
M 2034 4750 
Q 2819 4750 3233 4129 
Q 3647 3509 3647 2328 
Q 3647 1150 3233 529 
Q 2819 -91 2034 -91 
Q 1250 -91 836 529 
Q 422 1150 422 2328 
Q 422 3509 836 4129 
Q 1250 4750 2034 4750 
z
" transform="scale(0.015625)"/>
        <path id="DejaVuSans-11" d="M 684 794 
L 1344 794 
L 1344 0 
L 684 0 
L 684 794 
z
" transform="scale(0.015625)"/>
       </defs>
       <use xlink:href="#DejaVuSans-13"/>
       <use xlink:href="#DejaVuSans-11" transform="translate(63.625 0)"/>
       <use xlink:href="#DejaVuSans-13" transform="translate(95.40625 0)"/>
      </g>
     </g>
    </g>
    <g id="xtick_2">
     <g id="line2d_3">
      <path d="M 137.999547 241.6 
L 137.999547 7.2 
" clip-path="url(#p2b1745998a)" style="fill: none; stroke: #b0b0b0; stroke-opacity: 0.3; stroke-width: 0.8; stroke-linecap: square"/>
     </g>
     <g id="line2d_4">
      <g>
       <use xlink:href="#mdeb7a8fea6" x="137.999547" y="241.6" style="stroke: #000000; stroke-width: 0.8"/>
      </g>
     </g>
     <g id="text_2">
      <!-- 0.2 -->
      <g transform="translate(130.047985 256.197656) scale(0.1 -0.1)">
       <defs>
        <path id="DejaVuSans-15" d="M 1228 531 
L 3431 531 
L 3431 0 
L 469 0 
L 469 531 
Q 828 903 1448 1529 
Q 2069 2156 2228 2338 
Q 2531 2678 2651 2914 
Q 2772 3150 2772 3378 
Q 2772 3750 2511 3984 
Q 2250 4219 1831 4219 
Q 1534 4219 1204 4116 
Q 875 4013 500 3803 
L 500 4441 
Q 881 4594 1212 4672 
Q 1544 4750 1819 4750 
Q 2544 4750 2975 4387 
Q 3406 4025 3406 3419 
Q 3406 3131 3298 2873 
Q 3191 2616 2906 2266 
Q 2828 2175 2409 1742 
Q 1991 1309 1228 531 
z
" transform="scale(0.015625)"/>
       </defs>
       <use xlink:href="#DejaVuSans-13"/>
       <use xlink:href="#DejaVuSans-11" transform="translate(63.625 0)"/>
       <use xlink:href="#DejaVuSans-15" transform="translate(95.40625 0)"/>
      </g>
     </g>
    </g>
    <g id="xtick_3">
     <g id="line2d_5">
      <path d="M 204.419172 241.6 
L 204.419172 7.2 
" clip-path="url(#p2b1745998a)" style="fill: none; stroke: #b0b0b0; stroke-opacity: 0.3; stroke-width: 0.8; stroke-linecap: square"/>
     </g>
     <g id="line2d_6">
      <g>
       <use xlink:href="#mdeb7a8fea6" x="204.419172" y="241.6" style="stroke: #000000; stroke-width: 0.8"/>
      </g>
     </g>
     <g id="text_3">
      <!-- 0.4 -->
      <g transform="translate(196.467609 256.197656) scale(0.1 -0.1)">
       <defs>
        <path id="DejaVuSans-17" d="M 2419 4116 
L 825 1625 
L 2419 1625 
L 2419 4116 
z
M 2253 4666 
L 3047 4666 
L 3047 1625 
L 3713 1625 
L 3713 1100 
L 3047 1100 
L 3047 0 
L 2419 0 
L 2419 1100 
L 313 1100 
L 313 1709 
L 2253 4666 
z
" transform="scale(0.015625)"/>
       </defs>
       <use xlink:href="#DejaVuSans-13"/>
       <use xlink:href="#DejaVuSans-11" transform="translate(63.625 0)"/>
       <use xlink:href="#DejaVuSans-17" transform="translate(95.40625 0)"/>
      </g>
     </g>
    </g>
    <g id="xtick_4">
     <g id="line2d_7">
      <path d="M 270.838797 241.6 
L 270.838797 7.2 
" clip-path="url(#p2b1745998a)" style="fill: none; stroke: #b0b0b0; stroke-opacity: 0.3; stroke-width: 0.8; stroke-linecap: square"/>
     </g>
     <g id="line2d_8">
      <g>
       <use xlink:href="#mdeb7a8fea6" x="270.838797" y="241.6" style="stroke: #000000; stroke-width: 0.8"/>
      </g>
     </g>
     <g id="text_4">
      <!-- 0.6 -->
      <g transform="translate(262.887234 256.197656) scale(0.1 -0.1)">
       <defs>
        <path id="DejaVuSans-19" d="M 2113 2584 
Q 1688 2584 1439 2293 
Q 1191 2003 1191 1497 
Q 1191 994 1439 701 
Q 1688 409 2113 409 
Q 2538 409 2786 701 
Q 3034 994 3034 1497 
Q 3034 2003 2786 2293 
Q 2538 2584 2113 2584 
z
M 3366 4563 
L 3366 3988 
Q 3128 4100 2886 4159 
Q 2644 4219 2406 4219 
Q 1781 4219 1451 3797 
Q 1122 3375 1075 2522 
Q 1259 2794 1537 2939 
Q 1816 3084 2150 3084 
Q 2853 3084 3261 2657 
Q 3669 2231 3669 1497 
Q 3669 778 3244 343 
Q 2819 -91 2113 -91 
Q 1303 -91 875 529 
Q 447 1150 447 2328 
Q 447 3434 972 4092 
Q 1497 4750 2381 4750 
Q 2619 4750 2861 4703 
Q 3103 4656 3366 4563 
z
" transform="scale(0.015625)"/>
       </defs>
       <use xlink:href="#DejaVuSans-13"/>
       <use xlink:href="#DejaVuSans-11" transform="translate(63.625 0)"/>
       <use xlink:href="#DejaVuSans-19" transform="translate(95.40625 0)"/>
      </g>
     </g>
    </g>
    <g id="xtick_5">
     <g id="line2d_9">
      <path d="M 337.258422 241.6 
L 337.258422 7.2 
" clip-path="url(#p2b1745998a)" style="fill: none; stroke: #b0b0b0; stroke-opacity: 0.3; stroke-width: 0.8; stroke-linecap: square"/>
     </g>
     <g id="line2d_10">
      <g>
       <use xlink:href="#mdeb7a8fea6" x="337.258422" y="241.6" style="stroke: #000000; stroke-width: 0.8"/>
      </g>
     </g>
     <g id="text_5">
      <!-- 0.8 -->
      <g transform="translate(329.306859 256.197656) scale(0.1 -0.1)">
       <defs>
        <path id="DejaVuSans-1b" d="M 2034 2216 
Q 1584 2216 1326 1975 
Q 1069 1734 1069 1313 
Q 1069 891 1326 650 
Q 1584 409 2034 409 
Q 2484 409 2743 651 
Q 3003 894 3003 1313 
Q 3003 1734 2745 1975 
Q 2488 2216 2034 2216 
z
M 1403 2484 
Q 997 2584 770 2862 
Q 544 3141 544 3541 
Q 544 4100 942 4425 
Q 1341 4750 2034 4750 
Q 2731 4750 3128 4425 
Q 3525 4100 3525 3541 
Q 3525 3141 3298 2862 
Q 3072 2584 2669 2484 
Q 3125 2378 3379 2068 
Q 3634 1759 3634 1313 
Q 3634 634 3220 271 
Q 2806 -91 2034 -91 
Q 1263 -91 848 271 
Q 434 634 434 1313 
Q 434 1759 690 2068 
Q 947 2378 1403 2484 
z
M 1172 3481 
Q 1172 3119 1398 2916 
Q 1625 2713 2034 2713 
Q 2441 2713 2670 2916 
Q 2900 3119 2900 3481 
Q 2900 3844 2670 4047 
Q 2441 4250 2034 4250 
Q 1625 4250 1398 4047 
Q 1172 3844 1172 3481 
z
" transform="scale(0.015625)"/>
       </defs>
       <use xlink:href="#DejaVuSans-13"/>
       <use xlink:href="#DejaVuSans-11" transform="translate(63.625 0)"/>
       <use xlink:href="#DejaVuSans-1b" transform="translate(95.40625 0)"/>
      </g>
     </g>
    </g>
    <g id="xtick_6">
     <g id="line2d_11">
      <path d="M 403.678046 241.6 
L 403.678046 7.2 
" clip-path="url(#p2b1745998a)" style="fill: none; stroke: #b0b0b0; stroke-opacity: 0.3; stroke-width: 0.8; stroke-linecap: square"/>
     </g>
     <g id="line2d_12">
      <g>
       <use xlink:href="#mdeb7a8fea6" x="403.678046" y="241.6" style="stroke: #000000; stroke-width: 0.8"/>
      </g>
     </g>
     <g id="text_6">
      <!-- 1.0 -->
      <g transform="translate(395.726484 256.197656) scale(0.1 -0.1)">
       <defs>
        <path id="DejaVuSans-14" d="M 794 531 
L 1825 531 
L 1825 4091 
L 703 3866 
L 703 4441 
L 1819 4666 
L 2450 4666 
L 2450 531 
L 3481 531 
L 3481 0 
L 794 0 
L 794 531 
z
" transform="scale(0.015625)"/>
       </defs>
       <use xlink:href="#DejaVuSans-14"/>
       <use xlink:href="#DejaVuSans-11" transform="translate(63.625 0)"/>
       <use xlink:href="#DejaVuSans-13" transform="translate(95.40625 0)"/>
      </g>
     </g>
    </g>
    <g id="text_7">
     <!-- x (m) -->
     <g transform="translate(222.976641 270.957422) scale(0.11 -0.11)">
      <defs>
       <path id="DejaVuSans-5b" d="M 3513 3500 
L 2247 1797 
L 3578 0 
L 2900 0 
L 1881 1375 
L 863 0 
L 184 0 
L 1544 1831 
L 300 3500 
L 978 3500 
L 1906 2253 
L 2834 3500 
L 3513 3500 
z
" transform="scale(0.015625)"/>
       <path id="DejaVuSans-3" transform="scale(0.015625)"/>
       <path id="DejaVuSans-b" d="M 1984 4856 
Q 1566 4138 1362 3434 
Q 1159 2731 1159 2009 
Q 1159 1288 1364 580 
Q 1569 -128 1984 -844 
L 1484 -844 
Q 1016 -109 783 600 
Q 550 1309 550 2009 
Q 550 2706 781 3412 
Q 1013 4119 1484 4856 
L 1984 4856 
z
" transform="scale(0.015625)"/>
       <path id="DejaVuSans-50" d="M 3328 2828 
Q 3544 3216 3844 3400 
Q 4144 3584 4550 3584 
Q 5097 3584 5394 3201 
Q 5691 2819 5691 2113 
L 5691 0 
L 5113 0 
L 5113 2094 
Q 5113 2597 4934 2840 
Q 4756 3084 4391 3084 
Q 3944 3084 3684 2787 
Q 3425 2491 3425 1978 
L 3425 0 
L 2847 0 
L 2847 2094 
Q 2847 2600 2669 2842 
Q 2491 3084 2119 3084 
Q 1678 3084 1418 2786 
Q 1159 2488 1159 1978 
L 1159 0 
L 581 0 
L 581 3500 
L 1159 3500 
L 1159 2956 
Q 1356 3278 1631 3431 
Q 1906 3584 2284 3584 
Q 2666 3584 2933 3390 
Q 3200 3197 3328 2828 
z
" transform="scale(0.015625)"/>
       <path id="DejaVuSans-c" d="M 513 4856 
L 1013 4856 
Q 1481 4119 1714 3412 
Q 1947 2706 1947 2009 
Q 1947 1309 1714 600 
Q 1481 -109 1013 -844 
L 513 -844 
Q 928 -128 1133 580 
Q 1338 1288 1338 2009 
Q 1338 2731 1133 3434 
Q 928 4138 513 4856 
z
" transform="scale(0.015625)"/>
      </defs>
      <use xlink:href="#DejaVuSans-5b"/>
      <use xlink:href="#DejaVuSans-3" transform="translate(59.1875 0)"/>
      <use xlink:href="#DejaVuSans-b" transform="translate(90.96875 0)"/>
      <use xlink:href="#DejaVuSans-50" transform="translate(129.984375 0)"/>
      <use xlink:href="#DejaVuSans-c" transform="translate(227.390625 0)"/>
     </g>
    </g>
   </g>
   <g id="matplotlib.axis_2">
    <g id="ytick_1">
     <g id="line2d_13">
      <path d="M 57.828984 231.227492 
L 417.428984 231.227492 
" clip-path="url(#p2b1745998a)" style="fill: none; stroke: #b0b0b0; stroke-opacity: 0.3; stroke-width: 0.8; stroke-linecap: square"/>
     </g>
     <g id="line2d_14">
      <defs>
       <path id="mfc609ef219" d="M 0 0 
L -3.5 0 
" style="stroke: #000000; stroke-width: 0.8"/>
      </defs>
      <g>
       <use xlink:href="#mfc609ef219" x="57.828984" y="231.227492" style="stroke: #000000; stroke-width: 0.8"/>
      </g>
     </g>
     <g id="text_8">
      <!-- 0.005 -->
      <g transform="translate(22.200859 235.02632) scale(0.1 -0.1)">
       <defs>
        <path id="DejaVuSans-18" d="M 691 4666 
L 3169 4666 
L 3169 4134 
L 1269 4134 
L 1269 2991 
Q 1406 3038 1543 3061 
Q 1681 3084 1819 3084 
Q 2600 3084 3056 2656 
Q 3513 2228 3513 1497 
Q 3513 744 3044 326 
Q 2575 -91 1722 -91 
Q 1428 -91 1123 -41 
Q 819 9 494 109 
L 494 744 
Q 775 591 1075 516 
Q 1375 441 1709 441 
Q 2250 441 2565 725 
Q 2881 1009 2881 1497 
Q 2881 1984 2565 2268 
Q 2250 2553 1709 2553 
Q 1456 2553 1204 2497 
Q 953 2441 691 2322 
L 691 4666 
z
" transform="scale(0.015625)"/>
       </defs>
       <use xlink:href="#DejaVuSans-13"/>
       <use xlink:href="#DejaVuSans-11" transform="translate(63.625 0)"/>
       <use xlink:href="#DejaVuSans-13" transform="translate(95.40625 0)"/>
       <use xlink:href="#DejaVuSans-13" transform="translate(159.03125 0)"/>
       <use xlink:href="#DejaVuSans-18" transform="translate(222.65625 0)"/>
      </g>
     </g>
    </g>
    <g id="ytick_2">
     <g id="line2d_15">
      <path d="M 57.828984 205.070164 
L 417.428984 205.070164 
" clip-path="url(#p2b1745998a)" style="fill: none; stroke: #b0b0b0; stroke-opacity: 0.3; stroke-width: 0.8; stroke-linecap: square"/>
     </g>
     <g id="line2d_16">
      <g>
       <use xlink:href="#mfc609ef219" x="57.828984" y="205.070164" style="stroke: #000000; stroke-width: 0.8"/>
      </g>
     </g>
     <g id="text_9">
      <!-- 0.010 -->
      <g transform="translate(22.200859 208.868992) scale(0.1 -0.1)">
       <use xlink:href="#DejaVuSans-13"/>
       <use xlink:href="#DejaVuSans-11" transform="translate(63.625 0)"/>
       <use xlink:href="#DejaVuSans-13" transform="translate(95.40625 0)"/>
       <use xlink:href="#DejaVuSans-14" transform="translate(159.03125 0)"/>
       <use xlink:href="#DejaVuSans-13" transform="translate(222.65625 0)"/>
      </g>
     </g>
    </g>
    <g id="ytick_3">
     <g id="line2d_17">
      <path d="M 57.828984 178.912835 
L 417.428984 178.912835 
" clip-path="url(#p2b1745998a)" style="fill: none; stroke: #b0b0b0; stroke-opacity: 0.3; stroke-width: 0.8; stroke-linecap: square"/>
     </g>
     <g id="line2d_18">
      <g>
       <use xlink:href="#mfc609ef219" x="57.828984" y="178.912835" style="stroke: #000000; stroke-width: 0.8"/>
      </g>
     </g>
     <g id="text_10">
      <!-- 0.015 -->
      <g transform="translate(22.200859 182.711663) scale(0.1 -0.1)">
       <use xlink:href="#DejaVuSans-13"/>
       <use xlink:href="#DejaVuSans-11" transform="translate(63.625 0)"/>
       <use xlink:href="#DejaVuSans-13" transform="translate(95.40625 0)"/>
       <use xlink:href="#DejaVuSans-14" transform="translate(159.03125 0)"/>
       <use xlink:href="#DejaVuSans-18" transform="translate(222.65625 0)"/>
      </g>
     </g>
    </g>
    <g id="ytick_4">
     <g id="line2d_19">
      <path d="M 57.828984 152.755506 
L 417.428984 152.755506 
" clip-path="url(#p2b1745998a)" style="fill: none; stroke: #b0b0b0; stroke-opacity: 0.3; stroke-width: 0.8; stroke-linecap: square"/>
     </g>
     <g id="line2d_20">
      <g>
       <use xlink:href="#mfc609ef219" x="57.828984" y="152.755506" style="stroke: #000000; stroke-width: 0.8"/>
      </g>
     </g>
     <g id="text_11">
      <!-- 0.020 -->
      <g transform="translate(22.200859 156.554334) scale(0.1 -0.1)">
       <use xlink:href="#DejaVuSans-13"/>
       <use xlink:href="#DejaVuSans-11" transform="translate(63.625 0)"/>
       <use xlink:href="#DejaVuSans-13" transform="translate(95.40625 0)"/>
       <use xlink:href="#DejaVuSans-15" transform="translate(159.03125 0)"/>
       <use xlink:href="#DejaVuSans-13" transform="translate(222.65625 0)"/>
      </g>
     </g>
    </g>
    <g id="ytick_5">
     <g id="line2d_21">
      <path d="M 57.828984 126.598178 
L 417.428984 126.598178 
" clip-path="url(#p2b1745998a)" style="fill: none; stroke: #b0b0b0; stroke-opacity: 0.3; stroke-width: 0.8; stroke-linecap: square"/>
     </g>
     <g id="line2d_22">
      <g>
       <use xlink:href="#mfc609ef219" x="57.828984" y="126.598178" style="stroke: #000000; stroke-width: 0.8"/>
      </g>
     </g>
     <g id="text_12">
      <!-- 0.025 -->
      <g transform="translate(22.200859 130.397006) scale(0.1 -0.1)">
       <use xlink:href="#DejaVuSans-13"/>
       <use xlink:href="#DejaVuSans-11" transform="translate(63.625 0)"/>
       <use xlink:href="#DejaVuSans-13" transform="translate(95.40625 0)"/>
       <use xlink:href="#DejaVuSans-15" transform="translate(159.03125 0)"/>
       <use xlink:href="#DejaVuSans-18" transform="translate(222.65625 0)"/>
      </g>
     </g>
    </g>
    <g id="ytick_6">
     <g id="line2d_23">
      <path d="M 57.828984 100.440849 
L 417.428984 100.440849 
" clip-path="url(#p2b1745998a)" style="fill: none; stroke: #b0b0b0; stroke-opacity: 0.3; stroke-width: 0.8; stroke-linecap: square"/>
     </g>
     <g id="line2d_24">
      <g>
       <use xlink:href="#mfc609ef219" x="57.828984" y="100.440849" style="stroke: #000000; stroke-width: 0.8"/>
      </g>
     </g>
     <g id="text_13">
      <!-- 0.030 -->
      <g transform="translate(22.200859 104.239677) scale(0.1 -0.1)">
       <defs>
        <path id="DejaVuSans-16" d="M 2597 2516 
Q 3050 2419 3304 2112 
Q 3559 1806 3559 1356 
Q 3559 666 3084 287 
Q 2609 -91 1734 -91 
Q 1441 -91 1130 -33 
Q 819 25 488 141 
L 488 750 
Q 750 597 1062 519 
Q 1375 441 1716 441 
Q 2309 441 2620 675 
Q 2931 909 2931 1356 
Q 2931 1769 2642 2001 
Q 2353 2234 1838 2234 
L 1294 2234 
L 1294 2753 
L 1863 2753 
Q 2328 2753 2575 2939 
Q 2822 3125 2822 3475 
Q 2822 3834 2567 4026 
Q 2313 4219 1838 4219 
Q 1578 4219 1281 4162 
Q 984 4106 628 3988 
L 628 4550 
Q 988 4650 1302 4700 
Q 1616 4750 1894 4750 
Q 2613 4750 3031 4423 
Q 3450 4097 3450 3541 
Q 3450 3153 3228 2886 
Q 3006 2619 2597 2516 
z
" transform="scale(0.015625)"/>
       </defs>
       <use xlink:href="#DejaVuSans-13"/>
       <use xlink:href="#DejaVuSans-11" transform="translate(63.625 0)"/>
       <use xlink:href="#DejaVuSans-13" transform="translate(95.40625 0)"/>
       <use xlink:href="#DejaVuSans-16" transform="translate(159.03125 0)"/>
       <use xlink:href="#DejaVuSans-13" transform="translate(222.65625 0)"/>
      </g>
     </g>
    </g>
    <g id="ytick_7">
     <g id="line2d_25">
      <path d="M 57.828984 74.28352 
L 417.428984 74.28352 
" clip-path="url(#p2b1745998a)" style="fill: none; stroke: #b0b0b0; stroke-opacity: 0.3; stroke-width: 0.8; stroke-linecap: square"/>
     </g>
     <g id="line2d_26">
      <g>
       <use xlink:href="#mfc609ef219" x="57.828984" y="74.28352" style="stroke: #000000; stroke-width: 0.8"/>
      </g>
     </g>
     <g id="text_14">
      <!-- 0.035 -->
      <g transform="translate(22.200859 78.082349) scale(0.1 -0.1)">
       <use xlink:href="#DejaVuSans-13"/>
       <use xlink:href="#DejaVuSans-11" transform="translate(63.625 0)"/>
       <use xlink:href="#DejaVuSans-13" transform="translate(95.40625 0)"/>
       <use xlink:href="#DejaVuSans-16" transform="translate(159.03125 0)"/>
       <use xlink:href="#DejaVuSans-18" transform="translate(222.65625 0)"/>
      </g>
     </g>
    </g>
    <g id="ytick_8">
     <g id="line2d_27">
      <path d="M 57.828984 48.126192 
L 417.428984 48.126192 
" clip-path="url(#p2b1745998a)" style="fill: none; stroke: #b0b0b0; stroke-opacity: 0.3; stroke-width: 0.8; stroke-linecap: square"/>
     </g>
     <g id="line2d_28">
      <g>
       <use xlink:href="#mfc609ef219" x="57.828984" y="48.126192" style="stroke: #000000; stroke-width: 0.8"/>
      </g>
     </g>
     <g id="text_15">
      <!-- 0.040 -->
      <g transform="translate(22.200859 51.92502) scale(0.1 -0.1)">
       <use xlink:href="#DejaVuSans-13"/>
       <use xlink:href="#DejaVuSans-11" transform="translate(63.625 0)"/>
       <use xlink:href="#DejaVuSans-13" transform="translate(95.40625 0)"/>
       <use xlink:href="#DejaVuSans-17" transform="translate(159.03125 0)"/>
       <use xlink:href="#DejaVuSans-13" transform="translate(222.65625 0)"/>
      </g>
     </g>
    </g>
    <g id="ytick_9">
     <g id="line2d_29">
      <path d="M 57.828984 21.968863 
L 417.428984 21.968863 
" clip-path="url(#p2b1745998a)" style="fill: none; stroke: #b0b0b0; stroke-opacity: 0.3; stroke-width: 0.8; stroke-linecap: square"/>
     </g>
     <g id="line2d_30">
      <g>
       <use xlink:href="#mfc609ef219" x="57.828984" y="21.968863" style="stroke: #000000; stroke-width: 0.8"/>
      </g>
     </g>
     <g id="text_16">
      <!-- 0.045 -->
      <g transform="translate(22.200859 25.767691) scale(0.1 -0.1)">
       <use xlink:href="#DejaVuSans-13"/>
       <use xlink:href="#DejaVuSans-11" transform="translate(63.625 0)"/>
       <use xlink:href="#DejaVuSans-13" transform="translate(95.40625 0)"/>
       <use xlink:href="#DejaVuSans-17" transform="translate(159.03125 0)"/>
       <use xlink:href="#DejaVuSans-18" transform="translate(222.65625 0)"/>
      </g>
     </g>
    </g>
    <g id="text_17">
     <!-- Local Cf -->
     <g transform="translate(15.558281 146.180859) rotate(-90) scale(0.11 -0.11)">
      <defs>
       <path id="DejaVuSans-2f" d="M 628 4666 
L 1259 4666 
L 1259 531 
L 3531 531 
L 3531 0 
L 628 0 
L 628 4666 
z
" transform="scale(0.015625)"/>
       <path id="DejaVuSans-52" d="M 1959 3097 
Q 1497 3097 1228 2736 
Q 959 2375 959 1747 
Q 959 1119 1226 758 
Q 1494 397 1959 397 
Q 2419 397 2687 759 
Q 2956 1122 2956 1747 
Q 2956 2369 2687 2733 
Q 2419 3097 1959 3097 
z
M 1959 3584 
Q 2709 3584 3137 3096 
Q 3566 2609 3566 1747 
Q 3566 888 3137 398 
Q 2709 -91 1959 -91 
Q 1206 -91 779 398 
Q 353 888 353 1747 
Q 353 2609 779 3096 
Q 1206 3584 1959 3584 
z
" transform="scale(0.015625)"/>
       <path id="DejaVuSans-46" d="M 3122 3366 
L 3122 2828 
Q 2878 2963 2633 3030 
Q 2388 3097 2138 3097 
Q 1578 3097 1268 2742 
Q 959 2388 959 1747 
Q 959 1106 1268 751 
Q 1578 397 2138 397 
Q 2388 397 2633 464 
Q 2878 531 3122 666 
L 3122 134 
Q 2881 22 2623 -34 
Q 2366 -91 2075 -91 
Q 1284 -91 818 406 
Q 353 903 353 1747 
Q 353 2603 823 3093 
Q 1294 3584 2113 3584 
Q 2378 3584 2631 3529 
Q 2884 3475 3122 3366 
z
" transform="scale(0.015625)"/>
       <path id="DejaVuSans-44" d="M 2194 1759 
Q 1497 1759 1228 1600 
Q 959 1441 959 1056 
Q 959 750 1161 570 
Q 1363 391 1709 391 
Q 2188 391 2477 730 
Q 2766 1069 2766 1631 
L 2766 1759 
L 2194 1759 
z
M 3341 1997 
L 3341 0 
L 2766 0 
L 2766 531 
Q 2569 213 2275 61 
Q 1981 -91 1556 -91 
Q 1019 -91 701 211 
Q 384 513 384 1019 
Q 384 1609 779 1909 
Q 1175 2209 1959 2209 
L 2766 2209 
L 2766 2266 
Q 2766 2663 2505 2880 
Q 2244 3097 1772 3097 
Q 1472 3097 1187 3025 
Q 903 2953 641 2809 
L 641 3341 
Q 956 3463 1253 3523 
Q 1550 3584 1831 3584 
Q 2591 3584 2966 3190 
Q 3341 2797 3341 1997 
z
" transform="scale(0.015625)"/>
       <path id="DejaVuSans-4f" d="M 603 4863 
L 1178 4863 
L 1178 0 
L 603 0 
L 603 4863 
z
" transform="scale(0.015625)"/>
       <path id="DejaVuSans-26" d="M 4122 4306 
L 4122 3641 
Q 3803 3938 3442 4084 
Q 3081 4231 2675 4231 
Q 1875 4231 1450 3742 
Q 1025 3253 1025 2328 
Q 1025 1406 1450 917 
Q 1875 428 2675 428 
Q 3081 428 3442 575 
Q 3803 722 4122 1019 
L 4122 359 
Q 3791 134 3420 21 
Q 3050 -91 2638 -91 
Q 1578 -91 968 557 
Q 359 1206 359 2328 
Q 359 3453 968 4101 
Q 1578 4750 2638 4750 
Q 3056 4750 3426 4639 
Q 3797 4528 4122 4306 
z
" transform="scale(0.015625)"/>
       <path id="DejaVuSans-49" d="M 2375 4863 
L 2375 4384 
L 1825 4384 
Q 1516 4384 1395 4259 
Q 1275 4134 1275 3809 
L 1275 3500 
L 2222 3500 
L 2222 3053 
L 1275 3053 
L 1275 0 
L 697 0 
L 697 3053 
L 147 3053 
L 147 3500 
L 697 3500 
L 697 3744 
Q 697 4328 969 4595 
Q 1241 4863 1831 4863 
L 2375 4863 
z
" transform="scale(0.015625)"/>
      </defs>
      <use xlink:href="#DejaVuSans-2f"/>
      <use xlink:href="#DejaVuSans-52" transform="translate(53.96875 0)"/>
      <use xlink:href="#DejaVuSans-46" transform="translate(115.15625 0)"/>
      <use xlink:href="#DejaVuSans-44" transform="translate(170.140625 0)"/>
      <use xlink:href="#DejaVuSans-4f" transform="translate(231.421875 0)"/>
      <use xlink:href="#DejaVuSans-3" transform="translate(259.203125 0)"/>
      <use xlink:href="#DejaVuSans-26" transform="translate(290.984375 0)"/>
      <use xlink:href="#DejaVuSans-49" transform="translate(360.8125 0)"/>
     </g>
    </g>
   </g>
   <g id="line2d_31">
    <path d="M 74.174439 17.854545 
L 79.363472 155.416363 
L 84.552505 188.651108 
L 89.741538 200.775394 
L 94.930572 207.408525 
L 100.119605 211.83653 
L 105.308638 215.001811 
L 110.497671 217.362002 
L 115.686704 219.180455 
L 120.875738 220.616331 
L 126.064771 221.771296 
L 131.253804 222.713895 
L 136.442837 223.492388 
L 141.63187 224.141878 
L 146.820904 224.688583 
L 152.009937 225.152546 
L 157.19897 225.549333 
L 162.388003 225.891192 
L 167.577036 226.187901 
L 172.76607 226.447332 
L 177.955103 226.675844 
L 183.144136 226.878628 
L 188.333169 227.059977 
L 193.522202 227.223424 
L 198.711235 227.37189 
L 203.900269 227.507828 
L 209.089302 227.633297 
L 214.278335 227.750001 
L 219.467368 227.859359 
L 224.656401 227.962584 
L 229.845435 228.060696 
L 235.034468 228.154535 
L 240.223501 228.244813 
L 245.412534 228.332153 
L 250.601567 228.417092 
L 255.790601 228.500077 
L 260.979634 228.581483 
L 266.168667 228.66163 
L 271.3577 228.740784 
L 276.546733 228.81916 
L 281.735766 228.896952 
L 286.9248 228.974344 
L 292.113833 229.051515 
L 297.302866 229.128623 
L 302.491899 229.205789 
L 307.680932 229.283101 
L 312.869966 229.360629 
L 318.058999 229.438437 
L 323.248032 229.516598 
L 328.437065 229.595195 
L 333.626098 229.674301 
L 338.815132 229.753947 
L 344.004165 229.834119 
L 349.193198 229.914764 
L 354.382231 229.995814 
L 359.571264 230.077205 
L 364.760298 230.158813 
L 369.949331 230.240574 
L 375.138364 230.321697 
L 380.327397 230.403703 
L 385.51643 230.477161 
L 390.705463 230.577701 
L 395.894497 230.559226 
L 401.08353 230.945455 
" clip-path="url(#p2b1745998a)" style="fill: none; stroke: #1f77b4; stroke-width: 1.5; stroke-linecap: square"/>
   </g>
   <g id="line2d_32">
    <path d="M 105.308638 208.452207 
L 110.497671 209.832816 
L 115.686704 211.008392 
L 120.875738 212.028652 
L 126.064771 212.927506 
L 131.253804 213.729064 
L 136.442837 214.451045 
L 141.63187 215.106831 
L 146.820904 215.706762 
L 152.009937 216.258984 
L 157.19897 216.770023 
L 162.388003 217.245181 
L 167.577036 217.688821 
L 172.76607 218.104578 
L 177.955103 218.495504 
L 183.144136 218.86419 
L 188.333169 219.21285 
L 193.522202 219.543393 
L 198.711235 219.857473 
L 203.900269 220.156534 
L 209.089302 220.441842 
L 214.278335 220.714514 
L 219.467368 220.975539 
L 224.656401 221.225798 
L 229.845435 221.466079 
L 235.034468 221.697087 
L 240.223501 221.919457 
L 245.412534 222.133765 
L 250.601567 222.340531 
L 255.790601 222.540226 
L 260.979634 222.733283 
L 266.168667 222.920095 
L 271.3577 223.101022 
L 276.546733 223.276396 
L 281.735766 223.446521 
L 286.9248 223.611679 
L 292.113833 223.772128 
L 297.302866 223.928111 
L 302.491899 224.079848 
L 307.680932 224.227548 
L 312.869966 224.371402 
L 318.058999 224.511592 
L 323.248032 224.648284 
L 328.437065 224.781634 
L 333.626098 224.911791 
L 338.815132 225.038891 
L 344.004165 225.163063 
L 349.193198 225.284429 
L 354.382231 225.403103 
L 359.571264 225.519192 
L 364.760298 225.632798 
L 369.949331 225.744016 
L 375.138364 225.852937 
L 380.327397 225.959647 
L 385.51643 226.064225 
L 390.705463 226.16675 
L 395.894497 226.267293 
L 401.08353 226.365924 
" clip-path="url(#p2b1745998a)" style="fill: none; stroke-dasharray: 5.55,2.4; stroke-dashoffset: 0; stroke: #ff7f0e; stroke-width: 1.5"/>
   </g>
   <g id="patch_3">
    <path d="M 57.828984 241.6 
L 57.828984 7.2 
" style="fill: none; stroke: #000000; stroke-width: 0.8; stroke-linejoin: miter; stroke-linecap: square"/>
   </g>
   <g id="patch_4">
    <path d="M 417.428984 241.6 
L 417.428984 7.2 
" style="fill: none; stroke: #000000; stroke-width: 0.8; stroke-linejoin: miter; stroke-linecap: square"/>
   </g>
   <g id="patch_5">
    <path d="M 57.828984 241.6 
L 417.428984 241.6 
" style="fill: none; stroke: #000000; stroke-width: 0.8; stroke-linejoin: miter; stroke-linecap: square"/>
   </g>
   <g id="patch_6">
    <path d="M 57.828984 7.2 
L 417.428984 7.2 
" style="fill: none; stroke: #000000; stroke-width: 0.8; stroke-linejoin: miter; stroke-linecap: square"/>
   </g>
   <g id="legend_1">
    <g id="patch_7">
     <path d="M 169.905547 45.201562 
L 410.428984 45.201562 
Q 412.428984 45.201562 412.428984 43.201562 
L 412.428984 14.2 
Q 412.428984 12.2 410.428984 12.2 
L 169.905547 12.2 
Q 167.905547 12.2 167.905547 14.2 
L 167.905547 43.201562 
Q 167.905547 45.201562 169.905547 45.201562 
z
" style="fill: #ffffff; opacity: 0.8; stroke: #cccccc; stroke-linejoin: miter"/>
    </g>
    <g id="line2d_33">
     <path d="M 171.905547 20.298437 
L 181.905547 20.298437 
L 191.905547 20.298437 
" style="fill: none; stroke: #1f77b4; stroke-width: 1.5; stroke-linecap: square"/>
    </g>
    <g id="text_18">
     <!-- Actual SA iterate -->
     <g transform="translate(199.905547 23.798437) scale(0.1 -0.1)">
      <defs>
       <path id="DejaVuSans-24" d="M 2188 4044 
L 1331 1722 
L 3047 1722 
L 2188 4044 
z
M 1831 4666 
L 2547 4666 
L 4325 0 
L 3669 0 
L 3244 1197 
L 1141 1197 
L 716 0 
L 50 0 
L 1831 4666 
z
" transform="scale(0.015625)"/>
       <path id="DejaVuSans-57" d="M 1172 4494 
L 1172 3500 
L 2356 3500 
L 2356 3053 
L 1172 3053 
L 1172 1153 
Q 1172 725 1289 603 
Q 1406 481 1766 481 
L 2356 481 
L 2356 0 
L 1766 0 
Q 1100 0 847 248 
Q 594 497 594 1153 
L 594 3053 
L 172 3053 
L 172 3500 
L 594 3500 
L 594 4494 
L 1172 4494 
z
" transform="scale(0.015625)"/>
       <path id="DejaVuSans-58" d="M 544 1381 
L 544 3500 
L 1119 3500 
L 1119 1403 
Q 1119 906 1312 657 
Q 1506 409 1894 409 
Q 2359 409 2629 706 
Q 2900 1003 2900 1516 
L 2900 3500 
L 3475 3500 
L 3475 0 
L 2900 0 
L 2900 538 
Q 2691 219 2414 64 
Q 2138 -91 1772 -91 
Q 1169 -91 856 284 
Q 544 659 544 1381 
z
M 1991 3584 
L 1991 3584 
z
" transform="scale(0.015625)"/>
       <path id="DejaVuSans-36" d="M 3425 4513 
L 3425 3897 
Q 3066 4069 2747 4153 
Q 2428 4238 2131 4238 
Q 1616 4238 1336 4038 
Q 1056 3838 1056 3469 
Q 1056 3159 1242 3001 
Q 1428 2844 1947 2747 
L 2328 2669 
Q 3034 2534 3370 2195 
Q 3706 1856 3706 1288 
Q 3706 609 3251 259 
Q 2797 -91 1919 -91 
Q 1588 -91 1214 -16 
Q 841 59 441 206 
L 441 856 
Q 825 641 1194 531 
Q 1563 422 1919 422 
Q 2459 422 2753 634 
Q 3047 847 3047 1241 
Q 3047 1584 2836 1778 
Q 2625 1972 2144 2069 
L 1759 2144 
Q 1053 2284 737 2584 
Q 422 2884 422 3419 
Q 422 4038 858 4394 
Q 1294 4750 2059 4750 
Q 2388 4750 2728 4690 
Q 3069 4631 3425 4513 
z
" transform="scale(0.015625)"/>
       <path id="DejaVuSans-4c" d="M 603 3500 
L 1178 3500 
L 1178 0 
L 603 0 
L 603 3500 
z
M 603 4863 
L 1178 4863 
L 1178 4134 
L 603 4134 
L 603 4863 
z
" transform="scale(0.015625)"/>
       <path id="DejaVuSans-48" d="M 3597 1894 
L 3597 1613 
L 953 1613 
Q 991 1019 1311 708 
Q 1631 397 2203 397 
Q 2534 397 2845 478 
Q 3156 559 3463 722 
L 3463 178 
Q 3153 47 2828 -22 
Q 2503 -91 2169 -91 
Q 1331 -91 842 396 
Q 353 884 353 1716 
Q 353 2575 817 3079 
Q 1281 3584 2069 3584 
Q 2775 3584 3186 3129 
Q 3597 2675 3597 1894 
z
M 3022 2063 
Q 3016 2534 2758 2815 
Q 2500 3097 2075 3097 
Q 1594 3097 1305 2825 
Q 1016 2553 972 2059 
L 3022 2063 
z
" transform="scale(0.015625)"/>
       <path id="DejaVuSans-55" d="M 2631 2963 
Q 2534 3019 2420 3045 
Q 2306 3072 2169 3072 
Q 1681 3072 1420 2755 
Q 1159 2438 1159 1844 
L 1159 0 
L 581 0 
L 581 3500 
L 1159 3500 
L 1159 2956 
Q 1341 3275 1631 3429 
Q 1922 3584 2338 3584 
Q 2397 3584 2469 3576 
Q 2541 3569 2628 3553 
L 2631 2963 
z
" transform="scale(0.015625)"/>
      </defs>
      <use xlink:href="#DejaVuSans-24"/>
      <use xlink:href="#DejaVuSans-46" transform="translate(66.65625 0)"/>
      <use xlink:href="#DejaVuSans-57" transform="translate(121.640625 0)"/>
      <use xlink:href="#DejaVuSans-58" transform="translate(160.84375 0)"/>
      <use xlink:href="#DejaVuSans-44" transform="translate(224.21875 0)"/>
      <use xlink:href="#DejaVuSans-4f" transform="translate(285.5 0)"/>
      <use xlink:href="#DejaVuSans-3" transform="translate(313.28125 0)"/>
      <use xlink:href="#DejaVuSans-36" transform="translate(345.0625 0)"/>
      <use xlink:href="#DejaVuSans-24" transform="translate(410.40625 0)"/>
      <use xlink:href="#DejaVuSans-3" transform="translate(478.8125 0)"/>
      <use xlink:href="#DejaVuSans-4c" transform="translate(510.59375 0)"/>
      <use xlink:href="#DejaVuSans-57" transform="translate(538.375 0)"/>
      <use xlink:href="#DejaVuSans-48" transform="translate(577.578125 0)"/>
      <use xlink:href="#DejaVuSans-55" transform="translate(639.109375 0)"/>
      <use xlink:href="#DejaVuSans-44" transform="translate(680.21875 0)"/>
      <use xlink:href="#DejaVuSans-57" transform="translate(741.5 0)"/>
      <use xlink:href="#DejaVuSans-48" transform="translate(780.703125 0)"/>
     </g>
    </g>
    <g id="line2d_34">
     <path d="M 171.905547 35.299219 
L 181.905547 35.299219 
L 191.905547 35.299219 
" style="fill: none; stroke-dasharray: 5.55,2.4; stroke-dashoffset: 0; stroke: #ff7f0e; stroke-width: 1.5"/>
    </g>
    <g id="text_19">
     <!-- Fully turbulent correlation; not exact data -->
     <g transform="translate(199.905547 38.799219) scale(0.1 -0.1)">
      <defs>
       <path id="DejaVuSans-29" d="M 628 4666 
L 3309 4666 
L 3309 4134 
L 1259 4134 
L 1259 2759 
L 3109 2759 
L 3109 2228 
L 1259 2228 
L 1259 0 
L 628 0 
L 628 4666 
z
" transform="scale(0.015625)"/>
       <path id="DejaVuSans-5c" d="M 2059 -325 
Q 1816 -950 1584 -1140 
Q 1353 -1331 966 -1331 
L 506 -1331 
L 506 -850 
L 844 -850 
Q 1081 -850 1212 -737 
Q 1344 -625 1503 -206 
L 1606 56 
L 191 3500 
L 800 3500 
L 1894 763 
L 2988 3500 
L 3597 3500 
L 2059 -325 
z
" transform="scale(0.015625)"/>
       <path id="DejaVuSans-45" d="M 3116 1747 
Q 3116 2381 2855 2742 
Q 2594 3103 2138 3103 
Q 1681 3103 1420 2742 
Q 1159 2381 1159 1747 
Q 1159 1113 1420 752 
Q 1681 391 2138 391 
Q 2594 391 2855 752 
Q 3116 1113 3116 1747 
z
M 1159 2969 
Q 1341 3281 1617 3432 
Q 1894 3584 2278 3584 
Q 2916 3584 3314 3078 
Q 3713 2572 3713 1747 
Q 3713 922 3314 415 
Q 2916 -91 2278 -91 
Q 1894 -91 1617 61 
Q 1341 213 1159 525 
L 1159 0 
L 581 0 
L 581 4863 
L 1159 4863 
L 1159 2969 
z
" transform="scale(0.015625)"/>
       <path id="DejaVuSans-51" d="M 3513 2113 
L 3513 0 
L 2938 0 
L 2938 2094 
Q 2938 2591 2744 2837 
Q 2550 3084 2163 3084 
Q 1697 3084 1428 2787 
Q 1159 2491 1159 1978 
L 1159 0 
L 581 0 
L 581 3500 
L 1159 3500 
L 1159 2956 
Q 1366 3272 1645 3428 
Q 1925 3584 2291 3584 
Q 2894 3584 3203 3211 
Q 3513 2838 3513 2113 
z
" transform="scale(0.015625)"/>
       <path id="DejaVuSans-1e" d="M 750 3309 
L 1409 3309 
L 1409 2516 
L 750 2516 
L 750 3309 
z
M 750 794 
L 1409 794 
L 1409 256 
L 897 -744 
L 494 -744 
L 750 256 
L 750 794 
z
" transform="scale(0.015625)"/>
       <path id="DejaVuSans-47" d="M 2906 2969 
L 2906 4863 
L 3481 4863 
L 3481 0 
L 2906 0 
L 2906 525 
Q 2725 213 2448 61 
Q 2172 -91 1784 -91 
Q 1150 -91 751 415 
Q 353 922 353 1747 
Q 353 2572 751 3078 
Q 1150 3584 1784 3584 
Q 2172 3584 2448 3432 
Q 2725 3281 2906 2969 
z
M 947 1747 
Q 947 1113 1208 752 
Q 1469 391 1925 391 
Q 2381 391 2643 752 
Q 2906 1113 2906 1747 
Q 2906 2381 2643 2742 
Q 2381 3103 1925 3103 
Q 1469 3103 1208 2742 
Q 947 2381 947 1747 
z
" transform="scale(0.015625)"/>
      </defs>
      <use xlink:href="#DejaVuSans-29"/>
      <use xlink:href="#DejaVuSans-58" transform="translate(52.046875 0)"/>
      <use xlink:href="#DejaVuSans-4f" transform="translate(115.421875 0)"/>
      <use xlink:href="#DejaVuSans-4f" transform="translate(143.203125 0)"/>
      <use xlink:href="#DejaVuSans-5c" transform="translate(170.984375 0)"/>
      <use xlink:href="#DejaVuSans-3" transform="translate(230.171875 0)"/>
      <use xlink:href="#DejaVuSans-57" transform="translate(261.953125 0)"/>
      <use xlink:href="#DejaVuSans-58" transform="translate(301.15625 0)"/>
      <use xlink:href="#DejaVuSans-55" transform="translate(364.53125 0)"/>
      <use xlink:href="#DejaVuSans-45" transform="translate(405.640625 0)"/>
      <use xlink:href="#DejaVuSans-58" transform="translate(469.125 0)"/>
      <use xlink:href="#DejaVuSans-4f" transform="translate(532.5 0)"/>
      <use xlink:href="#DejaVuSans-48" transform="translate(560.28125 0)"/>
      <use xlink:href="#DejaVuSans-51" transform="translate(621.8125 0)"/>
      <use xlink:href="#DejaVuSans-57" transform="translate(685.1875 0)"/>
      <use xlink:href="#DejaVuSans-3" transform="translate(724.390625 0)"/>
      <use xlink:href="#DejaVuSans-46" transform="translate(756.171875 0)"/>
      <use xlink:href="#DejaVuSans-52" transform="translate(811.15625 0)"/>
      <use xlink:href="#DejaVuSans-55" transform="translate(872.34375 0)"/>
      <use xlink:href="#DejaVuSans-55" transform="translate(911.703125 0)"/>
      <use xlink:href="#DejaVuSans-48" transform="translate(950.609375 0)"/>
      <use xlink:href="#DejaVuSans-4f" transform="translate(1012.140625 0)"/>
      <use xlink:href="#DejaVuSans-44" transform="translate(1039.921875 0)"/>
      <use xlink:href="#DejaVuSans-57" transform="translate(1101.203125 0)"/>
      <use xlink:href="#DejaVuSans-4c" transform="translate(1140.40625 0)"/>
      <use xlink:href="#DejaVuSans-52" transform="translate(1168.1875 0)"/>
      <use xlink:href="#DejaVuSans-51" transform="translate(1229.375 0)"/>
      <use xlink:href="#DejaVuSans-1e" transform="translate(1292.75 0)"/>
      <use xlink:href="#DejaVuSans-3" transform="translate(1326.4375 0)"/>
      <use xlink:href="#DejaVuSans-51" transform="translate(1358.21875 0)"/>
      <use xlink:href="#DejaVuSans-52" transform="translate(1421.59375 0)"/>
      <use xlink:href="#DejaVuSans-57" transform="translate(1482.78125 0)"/>
      <use xlink:href="#DejaVuSans-3" transform="translate(1521.984375 0)"/>
      <use xlink:href="#DejaVuSans-48" transform="translate(1553.765625 0)"/>
      <use xlink:href="#DejaVuSans-5b" transform="translate(1613.546875 0)"/>
      <use xlink:href="#DejaVuSans-44" transform="translate(1672.734375 0)"/>
      <use xlink:href="#DejaVuSans-46" transform="translate(1734.015625 0)"/>
      <use xlink:href="#DejaVuSans-57" transform="translate(1789 0)"/>
      <use xlink:href="#DejaVuSans-3" transform="translate(1828.203125 0)"/>
      <use xlink:href="#DejaVuSans-47" transform="translate(1859.984375 0)"/>
      <use xlink:href="#DejaVuSans-44" transform="translate(1923.46875 0)"/>
      <use xlink:href="#DejaVuSans-57" transform="translate(1984.75 0)"/>
      <use xlink:href="#DejaVuSans-44" transform="translate(2023.953125 0)"/>
     </g>
    </g>
   </g>
  </g>
 </g>
 <defs>
  <clipPath id="p2b1745998a">
   <rect x="57.828984" y="7.2" width="359.6" height="234.4"/>
  </clipPath>
 </defs>
</svg>
